<svg width="80" height="80" viewBox="0 0 80 80" fill="none" xmlns="http://www.w3.org/2000/svg">
<circle cx="40" cy="40" r="38.5" stroke="#1893C6" stroke-width="3"/>
<path fill-rule="evenodd" clip-rule="evenodd" d="M23.241 24.861C24.6419 23.6667 26.2796 23 28.0857 23C28.7996 23 29.5261 23.1317 30.1899 23.4069C30.8757 23.6834 31.5009 24.1069 31.9869 24.7142L36.3024 29.998C36.6843 30.4593 36.9831 30.9107 37.1994 31.3677C37.4191 31.8156 37.5687 32.3162 37.5687 32.8237C37.5687 33.4498 37.3587 34.0482 36.9856 34.5868C36.6685 35.0698 36.2352 35.5356 35.7348 35.9715L34.4516 37.1302C34.4646 37.1568 34.482 37.1929 34.5008 37.2346C34.7797 37.6593 35.2734 38.257 36.0222 39.026C36.8421 39.849 37.7118 40.6828 38.65 41.514C39.641 42.3586 40.5796 43.1261 41.5273 43.8252C42.4235 44.4838 43.1217 44.9036 43.6292 45.1433C43.6702 45.1586 43.7081 45.1735 43.7388 45.1857L45.0238 44.0842C45.5333 43.642 46.0796 43.2523 46.6627 42.9817C47.2719 42.6666 47.9361 42.4855 48.6726 42.4855C49.2313 42.4855 49.7833 42.5891 50.3381 42.7862C50.8652 42.9736 51.3813 43.2314 51.8988 43.5372L51.9106 43.5441L58.0827 47.3506C58.7434 47.7494 59.2611 48.2543 59.5836 48.891L59.5931 48.9099L59.602 48.9292C59.8394 49.4446 60 50.0031 60 50.6423C60 51.4069 59.8038 52.1825 59.4005 52.9247C59.195 53.3026 58.9543 53.6721 58.6709 54.0312C58.5725 54.156 58.4691 54.2793 58.3605 54.401C58.2178 54.561 58.0661 54.718 57.9054 54.8721C57.5063 55.2542 57.085 55.6015 56.6394 55.9111C55.9329 56.4023 55.1715 56.7951 54.3484 57.0885C53.0549 57.5562 51.6619 57.7956 50.1817 57.7956C48.0604 57.7956 45.8431 57.362 43.5603 56.517C41.3107 55.6844 39.0769 54.5687 36.8768 53.1772L36.8749 53.176C34.6748 51.7802 32.591 50.2354 30.605 48.5268L30.5954 48.5186C28.6287 46.7935 26.8501 44.983 25.2607 43.0866L25.256 43.0811C23.6791 41.1767 22.3942 39.2536 21.4526 37.328L21.4509 37.3244C20.4978 35.3582 20 33.4338 20 31.5613C20 30.3181 20.2526 29.1132 20.7692 27.9902C21.2946 26.8316 22.1199 25.7821 23.241 24.861Z" fill="#1893C6"/>
</svg>
