<svg width="86" height="70" viewBox="0 0 86 70" fill="none" xmlns="http://www.w3.org/2000/svg">
<rect x="1.5" y="1.5" width="83" height="67" rx="8.5" stroke="#FE860C" stroke-width="3"/>
<rect x="62.168" y="65.8209" width="12.4337" height="4.1791" fill="#F5F5F5"/>
<path d="M39.373 59.418C39.373 57.7611 40.7162 56.418 42.373 56.418H59.1682C60.8251 56.418 62.1682 57.7611 62.1682 59.418V70.0001H39.373V59.418Z" fill="#FE860C"/>
<path d="M25.4267 45.6268V25.1468L27.6667 27.3868H20.9467V23.2268H30.6107V45.6268H25.4267ZM40.7739 41.8188V27.0348H44.9019V41.8188H40.7739ZM35.2379 36.3788V32.4748H50.4699V36.3788H35.2379ZM56.4267 45.6268V25.1468L58.6667 27.3868H51.9467V23.2268H61.6107V45.6268H56.4267Z" fill="#FE860C"/>
<rect x="73" y="67" width="3" height="3" rx="1.5" fill="#FE860C"/>
</svg>
