<svg width="91" height="72" viewBox="0 0 91 72" fill="none" xmlns="http://www.w3.org/2000/svg">
<path d="M79.334 1C79.0151 1 78.6999 1.02132 78.3884 1.04821C78.3106 1.02688 78.2345 1 78.1511 1H32.519C26.3849 1 21.3947 5.9902 21.3947 12.1244V58.9486H1.92703C1.41438 58.9486 1 59.3621 1 59.8756C1 66.0089 5.9902 71 12.1244 71C12.3524 71 12.5545 70.9073 12.7158 70.772C12.8771 70.9073 13.0792 71 13.3072 71H58.9394C65.0735 71 70.0637 66.0089 70.0637 59.8756C70.0637 59.7922 70.0368 59.7162 70.0164 59.6402C70.0359 59.5623 70.0637 59.4882 70.0637 59.4038V56.3909V13.0523H89.5313C90.044 13.0523 90.4584 12.6379 90.4584 12.1253C90.4584 5.9902 85.4682 1 79.334 1ZM88.557 11.1973H70.111C70.5782 6.51954 74.5357 2.85406 79.334 2.85406C84.1323 2.85406 88.0898 6.51954 88.557 11.1973ZM13.3072 69.1459C13.0792 69.1459 12.8771 69.2405 12.7158 69.374C12.5545 69.2386 12.3524 69.1459 12.1244 69.1459C7.32605 69.1459 3.36763 65.4795 2.90134 60.8027H47.8623C48.1515 64.2827 50.0445 67.3114 52.8033 69.1459H13.3072ZM58.9394 69.1459C53.8277 69.1459 49.6691 64.9891 49.6691 59.8756C49.6691 59.3621 49.2547 58.9486 48.742 58.9486H23.2487V12.1244C23.2487 7.01271 27.4074 2.85406 32.519 2.85406H73.198C70.1963 4.8481 68.2096 8.25679 68.2096 12.1244V56.39V59.4029C68.2096 59.4863 68.2365 59.5623 68.2569 59.6383C68.2375 59.7162 68.2096 59.7904 68.2096 59.8738C68.2096 64.9873 64.051 69.1459 58.9394 69.1459Z" fill="#FE860C" stroke="#FE860C"/>
<path d="M34.1419 51.5781H60.0987C60.1981 51.5781 60.2757 51.6558 60.2757 51.7552C60.2757 51.8536 60.1971 51.9322 60.0987 51.9322H34.1419C34.0434 51.9322 33.9648 51.8536 33.9648 51.7552C33.9648 51.6558 34.0425 51.5781 34.1419 51.5781Z" stroke="#FE860C" stroke-width="1.5"/>
<path d="M34.1419 42.3076H60.0987C60.1981 42.3076 60.2757 42.3853 60.2757 42.4846C60.2757 42.5831 60.1971 42.6617 60.0987 42.6617H34.1419C34.0434 42.6617 33.9648 42.5831 33.9648 42.4846C33.9648 42.3853 34.0425 42.3076 34.1419 42.3076Z" stroke="#FE860C" stroke-width="1.5"/>
<path d="M34.1419 33.0371H60.0987C60.1971 33.0371 60.2757 33.1157 60.2757 33.2141C60.2757 33.3126 60.1971 33.3912 60.0987 33.3912H34.1419C34.0434 33.3912 33.9648 33.3126 33.9648 33.2141C33.9648 33.1157 34.0434 33.0371 34.1419 33.0371Z" stroke="#FE860C" stroke-width="1.5"/>
<path d="M34.1419 24.1147H60.0987C60.1971 24.1147 60.2757 24.1933 60.2757 24.2918C60.2757 24.3902 60.1971 24.4688 60.0987 24.4688H34.1419C34.0434 24.4688 33.9648 24.3902 33.9648 24.2918C33.9648 24.1933 34.0434 24.1147 34.1419 24.1147Z" stroke="#FE860C" stroke-width="1.5"/>
<path d="M34.1419 14.4966H60.0987C60.1971 14.4966 60.2757 14.5752 60.2757 14.6736C60.2757 14.772 60.1971 14.8506 60.0987 14.8506H34.1419C34.0434 14.8506 33.9648 14.772 33.9648 14.6736C33.9648 14.5752 34.0434 14.4966 34.1419 14.4966Z" stroke="#FE860C" stroke-width="1.5"/>
</svg>
