<svg width="50" height="70" viewBox="0 0 50 70" fill="none" xmlns="http://www.w3.org/2000/svg">
<path fill-rule="evenodd" clip-rule="evenodd" d="M21.5821 26.2462H20.8745C17.215 26.2462 13.7053 25.0479 11.1176 22.915C8.52987 20.7821 7.07611 17.8892 7.07611 14.8728V11.3733C7.07611 8.35694 8.52987 5.46409 11.1176 3.33117C13.7053 1.19826 17.215 0 20.8745 0L21.5821 0C23.3942 0 25.1885 0.29418 26.8626 0.865744C28.5367 1.43731 30.0578 2.27506 31.3391 3.33117C32.6204 4.38728 33.6368 5.64107 34.3302 7.02095C35.0236 8.40082 35.3805 9.87977 35.3805 11.3733V14.8728C35.3805 16.3664 35.0236 17.8453 34.3302 19.2252C33.6368 20.6051 32.6204 21.8589 31.3391 22.915C30.0578 23.9711 28.5367 24.8088 26.8626 25.3804C25.1885 25.952 23.3942 26.2462 21.5821 26.2462ZM20.8745 5.83248C19.0917 5.83248 17.3818 6.41625 16.1211 7.45536C14.8605 8.49447 14.1522 9.90381 14.1522 11.3733V14.8728C14.1522 17.9349 17.1596 20.4137 20.8745 20.4137H21.5821C22.4649 20.4137 23.3391 20.2704 24.1546 19.9919C24.9702 19.7135 25.7113 19.3053 26.3355 18.7908C26.9597 18.2763 27.4549 17.6655 27.7927 16.9932C28.1306 16.321 28.3044 15.6005 28.3044 14.8728V11.3733C28.3044 10.6457 28.1306 9.92519 27.7927 9.25294C27.4549 8.58069 26.9597 7.96987 26.3355 7.45536C25.7113 6.94084 24.9702 6.53271 24.1546 6.25425C23.3391 5.9758 22.4649 5.83248 21.5821 5.83248H20.8745ZM28.3044 61.241C28.3044 62.0145 27.9317 62.7562 27.2682 63.3031C26.6046 63.85 25.7047 64.1573 24.7664 64.1573H21.2283L13.8692 64.1281H11.7817C8.66216 64.1258 5.6708 63.1047 3.46262 61.2885C1.25444 59.4722 0.00935837 57.0087 0 54.4374V46.6598C0 42.0192 2.23655 37.5687 6.21763 34.2873C10.1987 31.0059 15.5982 29.1624 21.2283 29.1624H24.7664C25.7047 29.1624 26.6046 29.4696 27.2682 30.0165C27.9317 30.5634 28.3044 31.3052 28.3044 32.0786C28.3044 32.8521 27.9317 33.5938 27.2682 34.1407C26.6046 34.6876 25.7047 34.9949 24.7664 34.9949H21.2283C17.4781 35.0033 13.8844 36.235 11.2325 38.4208C8.58071 40.6066 7.08638 43.5687 7.07611 46.6598V54.4462C7.08266 55.4705 7.58166 56.4509 8.46373 57.1725C9.3458 57.8941 10.539 58.298 11.7817 58.2956L21.2283 58.3248H24.7664C25.7047 58.3248 26.6046 58.632 27.2682 59.1789C27.9317 59.7258 28.3044 60.4676 28.3044 61.241Z" fill="#FE860C"/>
<path fill-rule="evenodd" clip-rule="evenodd" d="M49.1299 39.8373C48.9979 39.3651 48.7428 38.9223 48.3824 38.5396C48.0219 38.1569 47.5647 37.8434 47.0425 37.6209C47.0772 37.1408 46.9914 36.6599 46.7905 36.2084C46.5896 35.7568 46.2779 35.3442 45.8749 34.9963C45.4771 34.6482 44.9933 34.3743 44.4563 34.1932C43.9192 34.0121 43.3413 33.928 42.7615 33.9465C42.423 33.3879 41.9031 32.9177 41.2598 32.5882C40.6164 32.2587 39.8747 32.0828 39.1173 32.0801C38.3259 32.0886 37.5534 32.2806 36.8883 32.6342H36.8529C36.3795 32.3742 35.8427 32.2029 35.2804 32.1323C34.718 32.0618 34.1437 32.0937 33.5979 32.2259C33.0419 32.3498 32.5227 32.5665 32.0724 32.8624C31.622 33.1584 31.2501 33.5273 30.9797 33.9465C30.4067 33.9376 29.8375 34.0263 29.3079 34.2069C28.7783 34.3875 28.2995 34.6563 27.9016 34.9963C27.0985 35.7079 26.6633 36.6498 26.6987 37.6209C26.1855 37.8493 25.7371 38.165 25.3833 38.5471C25.0295 38.9292 24.7784 39.369 24.6466 39.8373C24.4933 40.3023 24.4582 40.7884 24.5434 41.2651C24.6286 41.7418 24.8324 42.1989 25.1419 42.6077C24.8346 43.0173 24.6321 43.4743 24.5469 43.9507C24.4617 44.4272 24.4956 44.9129 24.6466 45.3781C24.912 46.3259 25.662 47.1337 26.6987 47.5945C26.6598 48.5656 27.0914 49.5104 27.9016 50.2191C28.6977 50.919 29.8192 51.2981 30.9797 51.2689C30.929 51.4619 30.9613 51.6635 31.071 51.839C31.1808 52.0146 31.3611 52.1533 31.5812 52.2313V69.3759C31.5565 69.4875 31.5779 69.6028 31.6421 69.7033C31.7062 69.8037 31.8093 69.8835 31.935 69.93C32.1022 69.9914 32.2869 70.0131 32.4682 69.9925C32.6496 69.9719 32.8203 69.9098 32.961 69.8133L36.8529 66.4596H36.8954L40.7872 69.7841C40.9359 69.8786 41.1105 69.9414 41.2957 69.9668C41.4809 69.9923 41.6708 69.9796 41.8486 69.93C41.9654 69.8749 42.0607 69.7935 42.1234 69.6954C42.1861 69.5972 42.2135 69.4864 42.2024 69.3759V52.2284C42.4139 52.1355 42.5833 51.9888 42.6853 51.8101C42.7873 51.6314 42.8165 51.4303 42.7685 51.2369C43.9396 51.2981 45.0824 50.9248 45.882 50.2162C46.6887 49.5104 47.1133 48.5627 47.0496 47.5916C48.1075 47.1425 48.8681 46.3317 49.137 45.3752C49.2903 44.9102 49.3255 44.4241 49.2402 43.9474C49.155 43.4707 48.9512 43.0136 48.6417 42.6048C49.2609 41.7766 49.4378 40.7763 49.1299 39.8373ZM42.3369 43.1618C42.2786 43.6021 42.1477 44.0338 41.9477 44.4449C41.4134 45.5473 40.3697 46.428 39.0465 46.8946C38.3743 47.1541 37.6313 47.2824 36.8883 47.2737H36.8529C36.1083 47.2803 35.3713 47.1508 34.6947 46.8946C34.0445 46.6624 33.4564 46.3264 32.9646 45.906C32.4727 45.4855 32.0867 44.989 31.8289 44.4449C31.6125 44.0383 31.481 43.6045 31.4397 43.1618C31.3986 42.9789 31.3749 42.7936 31.3689 42.6077C31.4171 41.9806 31.5719 41.3621 31.8289 40.7705C32.349 39.671 33.3821 38.7874 34.6947 38.3208C35.3705 38.0642 36.1099 37.9359 36.8529 37.9417H36.8954C37.6383 37.933 38.3813 38.0613 39.0536 38.3208C39.7121 38.5474 40.3085 38.8811 40.807 39.302C41.3055 39.7229 41.6958 40.2224 41.9548 40.7705C42.1564 41.1817 42.2874 41.6133 42.344 42.0536C42.344 42.2578 42.4147 42.4036 42.4147 42.6077C42.4147 42.8118 42.3404 42.9577 42.3404 43.1676L42.3369 43.1618Z" fill="#FE860C"/>
</svg>
