<svg width="50" height="50" viewBox="0 0 50 50" fill="none" xmlns="http://www.w3.org/2000/svg">
<mask id="path-1-inside-1_193_415" fill="white">
<path d="M40.4252 27.9255C39.4753 27.9255 38.6501 27.7346 37.9128 27.4032V18.3415C38.6501 18.0101 39.4754 17.8191 40.4252 17.8191C40.8659 17.8191 41.223 17.462 41.223 17.0212C41.223 16.5805 40.8659 16.2234 40.4252 16.2234C36.477 16.2234 34.3414 18.7485 32.4465 21.464C30.5516 18.7485 28.4159 16.2234 24.4678 16.2234C24.0271 16.2234 23.6699 16.5805 23.6699 17.0212C23.6699 17.462 24.0271 17.8191 24.4678 17.8191C25.4177 17.8191 26.2429 18.01 26.9802 18.3415V27.4032C26.2429 27.7345 25.4175 27.9255 24.4678 27.9255C24.0271 27.9255 23.6699 28.2827 23.6699 28.7234C23.6699 29.1641 24.0271 29.5212 24.4678 29.5212C28.4159 29.5212 30.5516 26.9961 32.4465 24.2806C34.3414 26.9961 36.4771 29.5212 40.4252 29.5212C40.8659 29.5212 41.223 29.1641 41.223 28.7234C41.2231 28.2827 40.866 27.9255 40.4252 27.9255ZM28.576 26.3789V19.3659C29.6709 20.2956 30.5748 21.5514 31.4803 22.8723C30.5748 24.1933 29.6709 25.4492 28.576 26.3789ZM36.3171 26.3789C35.2222 25.4492 34.3183 24.1933 33.4128 22.8724C34.3183 21.5514 35.2222 20.2956 36.3171 19.366V26.3789Z"/>
</mask>
<path d="M37.9128 27.4032H35.9128V28.6969L37.0928 29.2273L37.9128 27.4032ZM37.9128 18.3415L37.093 16.5172L35.9128 17.0476V18.3415H37.9128ZM32.4465 21.464L30.8063 22.6085L32.4465 24.959L34.0866 22.6085L32.4465 21.464ZM26.9802 18.3415H28.9802V17.0477L27.8002 16.5173L26.9802 18.3415ZM26.9802 27.4032L27.8 29.2274L28.9802 28.697V27.4032H26.9802ZM32.4465 24.2806L34.0866 23.1361L32.4465 20.7857L30.8063 23.1361L32.4465 24.2806ZM41.223 28.7234L39.223 28.7229V28.7234H41.223ZM28.576 26.3789H26.576V30.7007L29.8705 27.9034L28.576 26.3789ZM28.576 19.3659L29.8705 17.8413L26.576 15.044V19.3659H28.576ZM31.4803 22.8723L33.1299 24.0031L33.905 22.8723L33.1299 21.7415L31.4803 22.8723ZM36.3171 26.3789L35.0226 27.9034L38.3171 30.7007V26.3789H36.3171ZM33.4128 22.8724L31.7631 21.7417L30.988 22.8725L31.7632 24.0032L33.4128 22.8724ZM36.3171 19.366H38.3171V15.0444L35.0227 17.8413L36.3171 19.366ZM40.4252 25.9255C39.7561 25.9255 39.2106 25.7938 38.7328 25.579L37.0928 29.2273C38.0896 29.6755 39.1945 29.9255 40.4252 29.9255V25.9255ZM39.9128 27.4032V18.3415H35.9128V27.4032H39.9128ZM38.7326 20.1657C39.2106 19.9509 39.7563 19.8191 40.4252 19.8191V15.8191C39.1944 15.8191 38.0896 16.0693 37.093 16.5172L38.7326 20.1657ZM40.4252 19.8191C41.9705 19.8191 43.223 18.5665 43.223 17.0212H39.223C39.223 16.3574 39.7614 15.8191 40.4252 15.8191V19.8191ZM43.223 17.0212C43.223 15.4759 41.9705 14.2234 40.4252 14.2234V18.2234C39.7614 18.2234 39.223 17.6851 39.223 17.0212H43.223ZM40.4252 14.2234C35.3896 14.2234 32.7275 17.5664 30.8063 20.3195L34.0866 22.6085C35.9553 19.9306 37.5643 18.2234 40.4252 18.2234V14.2234ZM34.0866 20.3195C32.1655 17.5664 29.5032 14.2234 24.4678 14.2234V18.2234C27.3286 18.2234 28.9376 19.9306 30.8063 22.6085L34.0866 20.3195ZM24.4678 14.2234C22.9225 14.2234 21.6699 15.4759 21.6699 17.0212H25.6699C25.6699 17.6851 25.1316 18.2234 24.4678 18.2234V14.2234ZM21.6699 17.0212C21.6699 18.5665 22.9225 19.8191 24.4678 19.8191V15.8191C25.1316 15.8191 25.6699 16.3574 25.6699 17.0212H21.6699ZM24.4678 19.8191C25.1369 19.8191 25.6824 19.9508 26.1602 20.1656L27.8002 16.5173C26.8033 16.0692 25.6985 15.8191 24.4678 15.8191V19.8191ZM24.9802 18.3415V27.4032H28.9802V18.3415H24.9802ZM26.1604 25.5789C25.6824 25.7937 25.1365 25.9255 24.4678 25.9255V29.9255C25.6984 29.9255 26.8034 29.6753 27.8 29.2274L26.1604 25.5789ZM24.4678 25.9255C22.9225 25.9255 21.6699 27.1781 21.6699 28.7234H25.6699C25.6699 29.3872 25.1316 29.9255 24.4678 29.9255V25.9255ZM21.6699 28.7234C21.6699 30.2687 22.9225 31.5212 24.4678 31.5212V27.5212C25.1316 27.5212 25.6699 28.0595 25.6699 28.7234H21.6699ZM24.4678 31.5212C29.5032 31.5212 32.1655 28.1782 34.0866 25.4251L30.8063 23.1361C28.9376 25.814 27.3286 27.5212 24.4678 27.5212V31.5212ZM30.8063 25.4251C32.7275 28.1782 35.3897 31.5212 40.4252 31.5212V27.5212C37.5644 27.5212 35.9553 25.814 34.0866 23.1361L30.8063 25.4251ZM40.4252 31.5212C41.9705 31.5212 43.223 30.2687 43.223 28.7234H39.223C39.223 28.0595 39.7614 27.5212 40.4252 27.5212V31.5212ZM43.223 28.7238C43.2234 27.1779 41.9703 25.9255 40.4252 25.9255V29.9255C39.7617 29.9255 39.2229 29.3874 39.223 28.7229L43.223 28.7238ZM30.576 26.3789V19.3659H26.576V26.3789H30.576ZM27.2815 20.8904C28.1464 21.6249 28.9153 22.6678 29.8306 24.0031L33.1299 21.7415C32.2343 20.435 31.1954 18.9663 29.8705 17.8413L27.2815 20.8904ZM29.8306 21.7416C28.9153 23.0769 28.1464 24.1199 27.2815 24.8543L29.8705 27.9034C31.1954 26.7785 32.2343 25.3097 33.1299 24.0031L29.8306 21.7416ZM37.6116 24.8543C36.7466 24.1199 35.9778 23.0769 35.0624 21.7416L31.7632 24.0032C32.6588 25.3097 33.6977 26.7785 35.0226 27.9034L37.6116 24.8543ZM35.0625 24.0032C35.9778 22.6678 36.7466 21.6249 37.6115 20.8906L35.0227 17.8413C33.6977 18.9662 32.6587 20.435 31.7631 21.7417L35.0625 24.0032ZM34.3171 19.366V26.3789H38.3171V19.366H34.3171Z" fill="#F5F5F5" mask="url(#path-1-inside-1_193_415)"/>
<mask id="path-3-inside-2_193_415" fill="white">
<path d="M20.2135 17.8191H9.5752C9.13447 17.8191 8.77734 18.1762 8.77734 18.6169C8.77734 19.0577 9.13447 19.4148 9.5752 19.4148H20.2135C20.6542 19.4148 21.0113 19.0577 21.0113 18.6169C21.0113 18.1762 20.6542 17.8191 20.2135 17.8191Z"/>
</mask>
<path d="M20.2135 15.8191H9.5752V19.8191H20.2135V15.8191ZM9.5752 15.8191C8.0299 15.8191 6.77734 17.0717 6.77734 18.6169H10.7773C10.7773 19.2808 10.239 19.8191 9.5752 19.8191V15.8191ZM6.77734 18.6169C6.77734 20.1622 8.0299 21.4148 9.5752 21.4148V17.4148C10.239 17.4148 10.7773 17.9531 10.7773 18.6169H6.77734ZM9.5752 21.4148H20.2135V17.4148H9.5752V21.4148ZM20.2135 21.4148C21.7588 21.4148 23.0113 20.1622 23.0113 18.6169H19.0113C19.0113 17.9531 19.5496 17.4148 20.2135 17.4148V21.4148ZM23.0113 18.6169C23.0113 17.0717 21.7588 15.8191 20.2135 15.8191V19.8191C19.5496 19.8191 19.0113 19.2808 19.0113 18.6169H23.0113Z" fill="#F5F5F5" mask="url(#path-3-inside-2_193_415)"/>
<mask id="path-5-inside-3_193_415" fill="white">
<path d="M20.2135 22.0745H9.5752C9.13447 22.0745 8.77734 22.4316 8.77734 22.8723C8.77734 23.313 9.13447 23.6702 9.5752 23.6702H20.2135C20.6542 23.6702 21.0113 23.313 21.0113 22.8723C21.0113 22.4316 20.6542 22.0745 20.2135 22.0745Z"/>
</mask>
<path d="M20.2135 20.0745H9.5752V24.0745H20.2135V20.0745ZM9.5752 20.0745C8.0299 20.0745 6.77734 21.327 6.77734 22.8723H10.7773C10.7773 23.5362 10.239 24.0745 9.5752 24.0745V20.0745ZM6.77734 22.8723C6.77734 24.4176 8.0299 25.6702 9.5752 25.6702V21.6702C10.239 21.6702 10.7773 22.2085 10.7773 22.8723H6.77734ZM9.5752 25.6702H20.2135V21.6702H9.5752V25.6702ZM20.2135 25.6702C21.7588 25.6702 23.0113 24.4176 23.0113 22.8723H19.0113C19.0113 22.2085 19.5496 21.6702 20.2135 21.6702V25.6702ZM23.0113 22.8723C23.0113 21.327 21.7588 20.0745 20.2135 20.0745V24.0745C19.5496 24.0745 19.0113 23.5362 19.0113 22.8723H23.0113Z" fill="#F5F5F5" mask="url(#path-5-inside-3_193_415)"/>
<mask id="path-7-inside-4_193_415" fill="white">
<path d="M20.2135 26.3298H9.5752C9.13447 26.3298 8.77734 26.687 8.77734 27.1277C8.77734 27.5684 9.13447 27.9255 9.5752 27.9255H20.2135C20.6542 27.9255 21.0113 27.5684 21.0113 27.1277C21.0113 26.687 20.6542 26.3298 20.2135 26.3298Z"/>
</mask>
<path d="M20.2135 24.3298H9.5752V28.3298H20.2135V24.3298ZM9.5752 24.3298C8.02991 24.3298 6.77734 25.5824 6.77734 27.1277H10.7773C10.7773 27.7915 10.239 28.3298 9.5752 28.3298V24.3298ZM6.77734 27.1277C6.77734 28.673 8.0299 29.9255 9.5752 29.9255V25.9255C10.239 25.9255 10.7773 26.4638 10.7773 27.1277H6.77734ZM9.5752 29.9255H20.2135V25.9255H9.5752V29.9255ZM20.2135 29.9255C21.7588 29.9255 23.0113 28.673 23.0113 27.1277H19.0113C19.0113 26.4638 19.5496 25.9255 20.2135 25.9255V29.9255ZM23.0113 27.1277C23.0113 25.5824 21.7588 24.3298 20.2135 24.3298V28.3298C19.5496 28.3298 19.0113 27.7915 19.0113 27.1277H23.0113Z" fill="#F5F5F5" mask="url(#path-7-inside-4_193_415)"/>
<path d="M45.8084 39.4254H45.2127L45.2126 38.8297H45.8084V39.4254Z" stroke="#F5F5F5" stroke-width="2"/>
<mask id="path-10-inside-5_193_415" fill="white">
<path d="M49.2021 2.12769H0.797852C0.357129 2.12769 0 2.48481 0 2.92554V39.6277C0 40.0684 0.357129 40.4255 0.797852 40.4255C1.23857 40.4255 1.5957 40.0684 1.5957 39.6277V3.72349H48.4043V42.0213H0.797852C0.357129 42.0213 0 42.3785 0 42.8192V47.0745C0 47.5152 0.357129 47.8723 0.797852 47.8723H49.2021C49.6429 47.8723 50 47.5152 50 47.0745V2.92554C50 2.48481 49.6429 2.12769 49.2021 2.12769ZM48.4043 46.2766H1.5957V43.617H48.4043V46.2766Z"/>
</mask>
<path d="M1.5957 3.72349V1.72349H-0.404297V3.72349H1.5957ZM48.4043 3.72349H50.4043V1.72349H48.4043V3.72349ZM48.4043 42.0213V44.0213H50.4043V42.0213H48.4043ZM48.4043 46.2766V48.2766H50.4043V46.2766H48.4043ZM1.5957 46.2766H-0.404297V48.2766H1.5957V46.2766ZM1.5957 43.617V41.617H-0.404297V43.617H1.5957ZM48.4043 43.617H50.4043V41.617H48.4043V43.617ZM49.2021 0.127686H0.797852V4.12769H49.2021V0.127686ZM0.797852 0.127686C-0.74744 0.127686 -2 1.38024 -2 2.92554H2C2 3.58938 1.4617 4.12769 0.797852 4.12769V0.127686ZM-2 2.92554V39.6277H2V2.92554H-2ZM-2 39.6277C-2 41.173 -0.747445 42.4255 0.797852 42.4255V38.4255C1.4617 38.4255 2 38.9638 2 39.6277H-2ZM0.797852 42.4255C2.34315 42.4255 3.5957 41.173 3.5957 39.6277H-0.404297C-0.404297 38.9638 0.134001 38.4255 0.797852 38.4255V42.4255ZM3.5957 39.6277V3.72349H-0.404297V39.6277H3.5957ZM1.5957 5.72349H48.4043V1.72349H1.5957V5.72349ZM46.4043 3.72349V42.0213H50.4043V3.72349H46.4043ZM48.4043 40.0213H0.797852V44.0213H48.4043V40.0213ZM0.797852 40.0213C-0.747435 40.0213 -2 41.2739 -2 42.8192H2C2 43.483 1.46169 44.0213 0.797852 44.0213V40.0213ZM-2 42.8192V47.0745H2V42.8192H-2ZM-2 47.0745C-2 48.6197 -0.747445 49.8723 0.797852 49.8723V45.8723C1.4617 45.8723 2 46.4106 2 47.0745H-2ZM0.797852 49.8723H49.2021V45.8723H0.797852V49.8723ZM49.2021 49.8723C50.7474 49.8723 52 48.6198 52 47.0745H48C48 46.4106 48.5383 45.8723 49.2021 45.8723V49.8723ZM52 47.0745V2.92554H48V47.0745H52ZM52 2.92554C52 1.38024 50.7474 0.127686 49.2021 0.127686V4.12769C48.5383 4.12769 48 3.58939 48 2.92554H52ZM48.4043 44.2766H1.5957V48.2766H48.4043V44.2766ZM3.5957 46.2766V43.617H-0.404297V46.2766H3.5957ZM1.5957 45.617H48.4043V41.617H1.5957V45.617ZM46.4043 43.617V46.2766H50.4043V43.617H46.4043Z" fill="#F5F5F5" mask="url(#path-10-inside-5_193_415)"/>
</svg>
