<svg width="66" height="70" viewBox="0 0 66 70" fill="none" xmlns="http://www.w3.org/2000/svg">
<path d="M32.6634 26.9062C36.5331 26.9062 39.6389 23.5703 39.6389 19.4141C39.6389 15.2578 36.5331 11.8945 32.6634 11.8945C28.7938 11.8945 25.688 15.2305 25.688 19.3867C25.688 23.5703 28.8193 26.9062 32.6634 26.9062ZM16.4467 48.6172H3.89593C-0.177342 48.6172 -0.406464 41.9453 3.97231 41.9453H14.8429L21.0801 32.0742C22.913 29.3945 25.0261 28.1094 27.9792 28.1094H37.2713C40.2499 28.1094 42.3375 29.2852 44.1704 32.1016L50.4331 41.9727H61.38C65.7588 41.9727 65.5042 48.6445 61.5328 48.6445H48.982C47.9891 48.6445 46.7926 48.2617 46.0798 47.1133L41.2937 39.7852L41.2682 58.1602H24.135L24.1096 39.7852L19.3235 47.1133C18.6361 48.2344 17.4396 48.6172 16.4467 48.6172ZM1.01918 23.1602C0.484565 23.8711 -0.71196 27.2891 4.37963 32.8945C9.72581 38.8008 13.1881 37.5156 13.7736 36.8594L10.2095 33.0312C9.70035 33.5781 9.0639 33.0859 7.81646 32.0195C7.00181 31.3086 6.05986 30.3516 5.24521 29.2578C4.68513 28.4922 4.17597 27.6992 4.68513 27.125L1.01918 23.1602ZM15.072 35.4922C15.3011 35.2461 15.2756 34.8633 15.072 34.6445L12.2716 31.6367C12.0425 31.3906 11.6861 31.3906 11.4824 31.6367L10.4641 32.7305L14.0537 36.5859C14.0791 36.5859 15.072 35.4922 15.072 35.4922ZM5.98349 25.7305C6.21261 25.4844 6.18715 25.1016 5.98349 24.8828L3.10674 21.793C2.87761 21.5469 2.5212 21.5469 2.31754 21.793L1.29922 22.8867L4.96517 26.8242L5.98349 25.7305ZM64.6641 22.3398V36.7227C64.6641 37.1328 64.3586 37.4609 63.9767 37.4609H53.1317V35.2188H52.0879C51.8842 35.2188 51.7315 35.0547 51.7315 34.8359C51.7315 34.6172 51.8842 34.4531 52.0879 34.4531H53.1317H54.1754C54.3791 34.4531 54.5318 34.2891 54.5318 34.0703C54.5318 33.8516 54.3791 33.6875 54.1754 33.6875H53.1317V31.8828H52.0879C51.8842 31.8828 51.7315 31.7188 51.7315 31.5C51.7315 31.2812 51.8842 31.1172 52.0879 31.1172H53.1317H54.1754C54.3791 31.1172 54.5318 30.9531 54.5318 30.7344C54.5318 30.5156 54.3791 30.3516 54.1754 30.3516H53.1317V28.4922H52.0879C51.8842 28.4922 51.7315 28.3281 51.7315 28.1094C51.7315 27.8906 51.8842 27.7266 52.0879 27.7266H53.1317H54.1754C54.3791 27.7266 54.5318 27.5625 54.5318 27.3438C54.5318 27.125 54.3791 26.9609 54.1754 26.9609H53.1317V25.1562H52.0879C51.8842 25.1562 51.7315 24.9922 51.7315 24.7734C51.7315 24.5547 51.8842 24.3906 52.0879 24.3906H53.1317H54.1754C54.3791 24.3906 54.5318 24.2266 54.5318 24.0078C54.5318 23.7891 54.3791 23.625 54.1754 23.625H53.1317V21.3828H63.9767C64.3586 21.6016 64.6641 21.9297 64.6641 22.3398ZM57.7395 27.6719C57.7395 28.4648 58.3251 29.0938 59.0634 29.0938C59.8016 29.0938 60.3872 28.4648 60.3872 27.6719C60.3872 26.8789 59.8016 26.25 59.0634 26.25C58.3251 26.25 57.7395 26.8789 57.7395 27.6719ZM61.38 30.8164C61.38 30.0781 60.82 29.4766 60.1326 29.4766H57.9432C57.2558 29.4766 56.6958 30.0781 56.6958 30.8164V32.5117H61.38V30.8164Z" fill="#F5F5F5"/>
</svg>
