<svg width="69" height="70" viewBox="0 0 69 70" fill="none" xmlns="http://www.w3.org/2000/svg">
<g clip-path="url(#clip0_397_272)">
<path d="M67.965 24.6666L37.5225 10.4076C36.5351 9.94482 35.4833 9.7113 34.3966 9.7113C33.3098 9.7113 32.2583 9.94482 31.2706 10.4076L0.82807 24.6666C0.324886 24.9032 0 25.4191 0 25.9827C0 26.5464 0.324886 27.0623 0.82807 27.2989L31.2706 41.5579C32.2581 42.0207 33.3098 42.2553 34.3966 42.2553C35.4833 42.2553 36.5351 42.0207 37.5227 41.5579L61.5482 30.3051V41.6365C60.5948 41.7459 59.8512 42.5716 59.8512 43.5694C59.8512 44.4388 60.4166 45.1915 61.2225 45.4313L59.5978 56.3402H67.0785L65.4541 45.4313C66.2597 45.1915 66.8251 44.4388 66.8251 43.5694C66.8251 42.5716 66.0816 41.7459 65.1281 41.6365V28.628L67.9653 27.2989C68.4684 27.0623 68.7934 26.5464 68.7934 25.9827C68.7934 25.4191 68.4682 24.9032 67.965 24.6666Z" fill="#F5F5F5"/>
<path d="M34.3958 47.4184C32.8848 47.4184 31.4206 47.0915 30.0444 46.4471L15.1543 39.4722V53.368C15.1543 56.4187 24.2138 60.2888 34.3958 60.2888C44.578 60.2888 53.6376 56.4186 53.6376 53.368V39.4722L38.7467 46.4471C37.3712 47.0915 35.9074 47.4184 34.3958 47.4184Z" fill="#F5F5F5"/>
</g>
<defs>
<clipPath id="clip0_397_272">
<rect width="68.7931" height="70" fill="white"/>
</clipPath>
</defs>
</svg>
