<svg fill="none" height="70" viewBox="0 0 80 70" width="80" xmlns="http://www.w3.org/2000/svg" xmlns:xlink="http://www.w3.org/1999/xlink"><clipPath id="a"><path d="m0 0h79.4595v70h-79.4595z"/></clipPath><g clip-path="url(#a)" fill="#fe860c"><path d="m39.7302 17.5c4.5712 0 8.277-3.2646 8.277-7.2917 0-4.02708-3.7058-7.29167-8.277-7.29167-4.5713 0-8.2771 3.26459-8.2771 7.29167 0 4.0271 3.7058 7.2917 8.2771 7.2917z"/><path d="m72.8376 46.6666h-3.3108v-8.75c0-.7735-.3489-1.5154-.9697-2.0624-.6209-.5469-1.4631-.8542-2.3411-.8542h-23.1757v-4.375h11.5878v-5.8334c-4.4696-2.0416-9.6013-4.375-14.8986-4.375s-10.4291 2.3334-14.8987 4.375v5.8334h11.5879v4.375h-23.1757c-.8781 0-1.7202.3073-2.3411.8542-.6209.547-.96973 1.2889-.96973 2.0624v8.75h-3.31081c-.87808 0-1.7202.3073-2.3411.8543s-.96971 1.2888-.96971 2.0624v11.6667c0 .7735.34881 1.5154.96971 2.0624.6209.5469 1.46302.8542 2.3411.8542h13.24324c.8781 0 1.7202-.3073 2.3411-.8542.6209-.547.9697-1.2889.9697-2.0624v-11.6667c0-.7736-.3488-1.5154-.9697-2.0624s-1.463-.8543-2.3411-.8543h-3.3108v-5.8333h19.8649v5.8333h-3.3109c-.878 0-1.7202.3073-2.3411.8543-.6208.547-.9697 1.2888-.9697 2.0624v11.6667c0 .7735.3489 1.5154.9697 2.0624.6209.5469 1.4631.8542 2.3411.8542h13.2433c.8781 0 1.7202-.3073 2.3411-.8542.6209-.547.9697-1.2889.9697-2.0624v-11.6667c0-.7736-.3488-1.5154-.9697-2.0624s-1.463-.8543-2.3411-.8543h-3.3108v-5.8333h19.8648v5.8333h-3.3108c-.8781 0-1.7202.3073-2.3411.8543s-.9697 1.2888-.9697 2.0624v11.6667c0 .7735.3488 1.5154.9697 2.0624.6209.5469 1.463.8542 2.3411.8542h13.2433c.8781 0 1.7202-.3073 2.3411-.8542.6209-.547.9697-1.2889.9697-2.0624v-11.6667c0-.7736-.3488-1.5154-.9697-2.0624s-1.463-.8543-2.3411-.8543zm-56.2838 11.6667h-6.62163v-5.8333h6.62163zm26.4865 0h-6.6216v-5.8333h6.6216zm26.4865 0h-6.6217v-5.8333h6.6217z"/></g></svg>