<svg width="28" height="28" viewBox="0 0 28 28" fill="none" xmlns="http://www.w3.org/2000/svg">
<g filter="url(#filter0_d_193_402)">
<path d="M22.6658 2.66822C22.3121 2.66835 21.973 2.80888 21.7229 3.0589L13.0027 11.7779L10.8678 7.57694C10.3471 7.05633 9.50262 7.05608 8.98163 7.57638C8.46064 8.09668 8.46039 8.94051 8.98107 9.46112L12.0593 14.6053C12.5803 15.1261 13.4251 15.1261 13.946 14.6053L23.6096 4.94308C24.1303 4.42246 24.1301 3.57859 23.6091 3.05828C23.3589 2.80842 23.0196 2.66811 22.6658 2.66822ZM13.8985 0.000572263C11.3445 0.0278427 8.82403 1.02929 6.92643 2.92721C3.73047 6.1237 3.07759 11.0846 5.33727 14.9991C7.59695 18.9136 12.2209 20.8296 16.5873 19.6594C20.9538 18.4892 23.9996 14.5185 23.9996 9.99884C23.9996 9.2628 23.4025 8.66613 22.6659 8.66613C21.9293 8.6661 21.3321 9.26278 21.3321 9.99884C21.3321 13.3261 19.1083 16.2242 15.8964 17.0849C12.6845 17.9457 9.311 16.5485 7.64783 13.6673C5.98467 10.7862 6.46165 7.16331 8.81343 4.81114C11.1652 2.45897 14.785 1.98245 17.665 3.64548C18.3027 4.01374 19.1185 3.79564 19.487 3.15834C19.8555 2.52107 19.6373 1.70595 18.9996 1.33768C17.4093 0.419364 15.646 -0.0180865 13.8985 0.000572263Z" fill="#FE860C"/>
</g>
<defs>
<filter id="filter0_d_193_402" x="0" y="0" width="28" height="28" filterUnits="userSpaceOnUse" color-interpolation-filters="sRGB">
<feFlood flood-opacity="0" result="BackgroundImageFix"/>
<feColorMatrix in="SourceAlpha" type="matrix" values="0 0 0 0 0 0 0 0 0 0 0 0 0 0 0 0 0 0 127 0" result="hardAlpha"/>
<feOffset dy="4"/>
<feGaussianBlur stdDeviation="2"/>
<feComposite in2="hardAlpha" operator="out"/>
<feColorMatrix type="matrix" values="0 0 0 0 0 0 0 0 0 0 0 0 0 0 0 0 0 0 0.25 0"/>
<feBlend mode="normal" in2="BackgroundImageFix" result="effect1_dropShadow_193_402"/>
<feBlend mode="normal" in="SourceGraphic" in2="effect1_dropShadow_193_402" result="shape"/>
</filter>
</defs>
</svg>
