<svg width="80" height="80" viewBox="0 0 80 80" fill="none" xmlns="http://www.w3.org/2000/svg">
<path fill-rule="evenodd" clip-rule="evenodd" d="M34.2869 58.5113L34.3876 58.6219L34.3955 58.6307C36.241 60.6453 38.0305 62.0262 40.0544 61.9996C42.0692 61.9732 43.8513 60.5563 45.6957 58.5105C48.2236 55.7202 51.4945 51.9564 53.8575 47.4913C56.2296 43.0095 57.7603 37.6816 56.6085 31.8338C52.717 12.0705 27.3033 12.0473 23.3915 31.8128C22.2723 37.4948 23.6862 42.6925 25.9409 47.0975C28.1871 51.4862 31.3301 55.2123 33.8507 58.0265C33.9975 58.1904 34.1425 58.3514 34.2851 58.5095L34.2869 58.5113ZM40 27.467C36.7014 27.467 34.0272 30.5133 34.0272 34.271C34.0272 38.0287 36.7014 41.075 40 41.075C43.2987 41.075 45.9729 38.0287 45.9729 34.271C45.9729 30.5133 43.2987 27.467 40 27.467Z" fill="#1893C6"/>
<circle cx="40" cy="40" r="38.5" stroke="#1893C6" stroke-width="3"/>
</svg>
