<svg width="79" height="80" viewBox="0 0 79 80" fill="none" xmlns="http://www.w3.org/2000/svg">
<path d="M77.5 40C77.5 61.2808 60.4691 78.5 39.5 78.5C18.5309 78.5 1.5 61.2808 1.5 40C1.5 18.7192 18.5309 1.5 39.5 1.5C60.4691 1.5 77.5 18.7192 77.5 40Z" stroke="#1893C6" stroke-width="3"/>
<path d="M53.7661 27H25.2339C22.2054 27 19.75 29.2057 19.75 31.9263V48.142C19.75 50.8626 22.2054 53.0683 25.2339 53.0683H53.7661C56.7945 53.0683 59.25 50.8626 59.25 48.142V31.9263C59.25 29.2057 56.7945 27 53.7661 27ZM33.4952 44.5887L25.8159 50.4739C25.2742 50.8892 24.4599 50.8315 23.9977 50.3444C23.5354 49.8578 23.5997 49.1264 24.142 48.7112L31.8213 42.826C32.3629 42.4107 33.1771 42.4684 33.6394 42.9555C34.1017 43.4421 34.0374 44.1735 33.4952 44.5887ZM39.5 42.3514C38.4728 42.3491 37.4772 42.0425 36.6987 41.4377L36.6994 41.4383L36.6969 41.4366C36.6975 41.4372 36.6982 41.4372 36.6987 41.4377L24.916 32.251C24.3775 31.8312 24.3202 31.0998 24.7869 30.6166C25.2542 30.1329 26.0685 30.0814 26.6062 30.5006L38.3922 39.6896C38.6441 39.891 39.0592 40.0364 39.5 40.0342C39.9402 40.0353 40.3482 39.8939 40.614 39.6857L40.6197 39.6812L52.3937 30.5007C52.9315 30.0815 53.7458 30.133 54.2131 30.6167C54.6797 31.0998 54.6225 31.8312 54.084 32.2511L42.298 41.4406C41.5221 42.039 40.5278 42.3502 39.5 42.3514ZM55.0028 50.3444C54.5406 50.8315 53.7262 50.8892 53.1847 50.4739L45.5054 44.5887C44.9632 44.1735 44.8989 43.4421 45.3612 42.9555C45.8234 42.4684 46.6377 42.4108 47.1793 42.826L54.8586 48.7112C55.4008 49.1264 55.4651 49.8578 55.0028 50.3444Z" fill="#1893C6"/>
</svg>
