<svg width="80" height="80" viewBox="0 0 80 80" fill="none" xmlns="http://www.w3.org/2000/svg">
<circle cx="40" cy="40" r="38.5" stroke="#1893C6" stroke-width="3"/>
<path d="M39.9995 29.2378C42.5501 29.2378 44.6187 27.1698 44.6187 24.6192C44.6187 22.0686 42.5502 20 39.9995 20C37.4488 20 35.3809 22.0685 35.3809 24.6192C35.3809 27.1699 37.4488 29.2378 39.9995 29.2378Z" fill="#1893C6"/>
<path d="M40.0005 37.8285C43.1734 37.8285 46.4228 36.7298 45.9158 33.688C45.7093 32.4527 44.6878 30.7211 43.9119 29.9458C43.8114 29.8459 43.3565 29.8198 43.2329 29.8964C42.2914 30.4772 41.1859 30.8158 40.0004 30.8158C38.8156 30.8158 37.7101 30.4772 36.7686 29.8964C36.645 29.8198 36.1901 29.8459 36.0897 29.9458C35.3144 30.7211 34.2917 32.4527 34.0858 33.688C33.5788 36.7299 36.8283 37.8285 40.0005 37.8285Z" fill="#1893C6"/>
<path d="M27.4741 51.4098C30.0248 51.4098 32.0934 49.3418 32.0934 46.7912C32.0934 44.24 30.0248 42.172 27.4741 42.172C24.9234 42.172 22.8555 44.24 22.8555 46.7912C22.8555 49.3418 24.9235 51.4098 27.4741 51.4098Z" fill="#1893C6"/>
<path d="M31.3863 52.1183C31.2859 52.0173 30.8311 51.9924 30.7074 52.0684C29.7653 52.6492 28.6605 52.9873 27.475 52.9873C26.2896 52.9873 25.1847 52.6493 24.2431 52.0684C24.1195 51.9925 23.664 52.0173 23.5637 52.1183C22.7883 52.8931 21.7663 54.6247 21.5604 55.8601C21.0533 58.9019 24.3027 60.0001 27.475 60.0001C30.6479 60.0001 33.8974 58.9019 33.3902 55.8601C33.1838 54.6247 32.1617 52.8931 31.3863 52.1183Z" fill="#1893C6"/>
<path d="M52.5235 51.4098C55.0741 51.4098 57.1421 49.3418 57.1421 46.7912C57.1421 44.24 55.0741 42.172 52.5235 42.172C49.9729 42.172 47.9043 44.24 47.9043 46.7912C47.9044 49.3418 49.9729 51.4098 52.5235 51.4098Z" fill="#1893C6"/>
<path d="M58.4388 55.8601C58.2329 54.6247 57.2109 52.8931 56.4355 52.1183C56.3351 52.0173 55.8797 51.9924 55.756 52.0684C54.8145 52.6492 53.7096 52.9873 52.5241 52.9873C51.3387 52.9873 50.2338 52.6493 49.2917 52.0684C49.168 51.9925 48.7132 52.0173 48.6128 52.1183C47.8375 52.8931 46.8157 54.6247 46.6092 55.8601C46.1022 58.9019 49.3512 60.0001 52.5241 60.0001C55.6965 60.0001 58.9459 58.9019 58.4388 55.8601Z" fill="#1893C6"/>
<path d="M46.2693 48.9822L40.7625 45.8032V39.4449C40.7625 39.0241 40.4216 38.6832 40.0008 38.6832C39.5804 38.6832 39.2396 39.0241 39.2396 39.4449V45.8032L33.7327 48.9822C33.3686 49.1926 33.2432 49.6589 33.4536 50.023C33.6641 50.3872 34.1303 50.5119 34.4944 50.3021L40.0007 47.1224L45.5075 50.3014C45.8717 50.5119 46.3374 50.3871 46.5478 50.0229C46.7582 49.6589 46.6334 49.1926 46.2693 48.9822Z" fill="#1893C6"/>
</svg>
