<svg width="50" height="51" viewBox="0 0 50 51" fill="none" xmlns="http://www.w3.org/2000/svg">
<g clip-path="url(#clip0_302_404)">
<path d="M38.856 27.0833C38.856 27.0833 33.3893 21.4796 25.856 21.4796C18.4952 21.4796 11.219 27.0833 11.219 27.0833L7.13214 25.3682V30.3999C7.77619 30.6201 8.24762 31.2162 8.24762 31.9379C8.24762 32.6668 7.76667 33.264 7.1131 33.4795L8.32143 36.8678H4.75476L5.97381 33.4507C5.3881 33.2006 4.97857 32.6189 4.97857 31.9379C4.97857 31.2712 5.37619 30.7039 5.94405 30.4454V24.8691L0 22.3772L26.1536 10.5748L50.1488 22.5256L38.856 27.0833ZM25.5583 24.3186C33.1369 24.3186 36.8512 28.352 36.8512 28.352V36.7182C36.8512 36.7182 32.9881 39.8552 24.9643 39.8552C16.9405 39.8552 14.2655 36.7182 14.2655 36.7182V28.352C14.2655 28.352 17.9798 24.3186 25.5583 24.3186ZM25.4095 38.0623C30.6619 38.0623 34.9202 36.9911 34.9202 35.6721C34.9202 34.3532 30.6619 33.282 25.4095 33.282C20.1571 33.282 15.9 34.3532 15.9 35.6721C15.9 36.9911 20.1571 38.0623 25.4095 38.0623Z" fill="#1893C6"/>
</g>
<defs>
<clipPath id="clip0_302_404">
<rect width="50" height="50.2688" fill="white" transform="translate(0 0.0805664)"/>
</clipPath>
</defs>
</svg>
