<svg width="80" height="80" viewBox="0 0 80 80" fill="none" xmlns="http://www.w3.org/2000/svg">
<path d="M40.8324 9.52392C36.5462 6.53571 30.4104 9.23066 30.1725 14.2061L29.8315 21.3367H39.9999C42.4546 21.3367 44.4444 23.1863 44.4444 25.4678C44.4444 27.7493 42.4546 29.5989 39.9999 29.5989H29.4365L27.6883 66.1592C27.1093 78.269 11.7191 84.381 1.90477 76.3985L1.51784 76.0841C-0.329449 74.5816 -0.516648 71.9716 1.0997 70.2548C2.7161 68.5379 5.52392 68.3636 7.3712 69.866L7.75813 70.1808C11.9643 73.6018 18.5601 70.9822 18.8082 65.7924L20.5389 29.5989H13.3333C10.8787 29.5989 8.88889 27.7493 8.88889 25.4678C8.88889 23.1863 10.8787 21.3367 13.3333 21.3367H20.9339L21.2924 13.8392C21.8475 2.22986 36.1639 -4.05826 46.1657 2.91422L47.111 3.57312C49.0746 4.94203 49.4728 7.53142 47.9999 9.35661C46.527 11.1818 43.7412 11.5517 41.7777 10.1828L40.8324 9.52392Z" fill="#F5F5F5"/>
<path d="M44.8091 46.3142C45.9326 45.7395 47.3446 46.1659 47.8908 47.2445L51.5019 54.3768L36.8571 67.9886C35.1215 69.6018 35.1215 72.2176 36.8571 73.8308C38.5931 75.4444 41.4069 75.4444 43.1424 73.8308L55.5246 62.3221L58.9908 69.1689C62.0784 75.2672 70.5215 77.027 76.1152 72.7377L78.3836 70.9981C80.277 69.5461 80.5459 66.9426 78.9836 65.1824C77.4214 63.4226 74.6205 63.1731 72.7272 64.6251L70.4583 66.3647C69.3397 67.2223 67.6512 66.8704 67.0335 65.6509L62.2046 56.1131L74.2534 44.9133C75.9894 43.3001 75.9894 40.6844 74.2534 39.0712C72.5179 37.458 69.7041 37.458 67.9681 39.0712L58.1819 48.1674L55.9335 43.7265C53.2037 38.3338 46.1433 36.2026 40.5255 39.0745L37.858 40.4381C35.7073 41.5378 34.9229 44.0495 36.1055 46.049C37.2886 48.048 39.9913 48.7771 42.142 47.6774L44.8091 46.3142Z" fill="#F5F5F5"/>
</svg>
