<svg width="80" height="80" viewBox="0 0 80 80" fill="none" xmlns="http://www.w3.org/2000/svg">
<path d="M75.1682 34.3603C81.6106 27.469 81.6106 16.2561 75.1682 9.36491C72.4293 6.4352 68.8983 4.66106 65.0918 4.27047C63.7326 1.68054 61.1489 0 58.2665 0H7.82687C3.51109 0 0 3.75569 0 8.37213C0 12.9886 3.51109 16.7443 7.82687 16.7443H10.4358V71.6279C10.4358 76.2443 13.9469 80 18.2626 80H68.7023V74.4185C67.2637 74.4185 66.0934 73.1667 66.0934 71.6279V44.0675L75.1682 34.3603ZM10.4358 11.1628H7.82687C6.38828 11.1628 5.21797 9.91111 5.21797 8.37213C5.21797 6.83315 6.38828 5.58147 7.82687 5.58147C9.26546 5.58147 10.4358 6.83331 10.4358 8.37213V11.1628ZM18.2626 74.4185C16.8241 74.4185 15.6537 73.1667 15.6537 71.6279V8.37213C15.6537 7.39372 15.4947 6.45492 15.205 5.58147H57.0347C55.1034 6.45726 53.3284 7.73083 51.8006 9.36524L25.2092 37.8088V58.8578L18.5942 65.9334L22.2837 69.88L28.8987 62.8041H48.5769L60.8754 49.6488V71.6277C60.8754 72.6058 61.0331 73.5451 61.3225 74.4184H18.2626V74.4185ZM46.4151 57.2228H34.1165L39.9673 50.9645L48.7258 50.9643L48.7256 45.383H45.1853L51.0362 39.1245H59.7945V33.5432H56.2542L65.329 23.8361L61.6395 19.8896L30.427 53.2763V40.1206L55.4901 13.3118C57.6254 11.0279 60.4645 9.76988 63.4843 9.76988C66.5042 9.76988 69.3431 11.0279 71.4786 13.3118C75.8867 18.0265 75.8867 25.6988 71.4786 30.4137L46.4151 57.2228Z" fill="black"/>
</svg>
