<svg width="80" height="80" viewBox="0 0 80 80" fill="none" xmlns="http://www.w3.org/2000/svg">
<g clip-path="url(#clip0_366_564)">
<path d="M67.4403 74.6078C67.3531 73.7075 67.228 72.8328 67.0903 72.008C66.653 69.3203 65.9655 66.6833 65.053 64.1708C64.7155 63.2709 64.353 62.3834 63.9778 61.5459C62.7653 58.8338 61.278 56.2588 59.428 53.6841C58.803 52.8091 58.1405 51.9342 57.4528 51.0969C54.128 46.9972 50.2778 43.4098 46.4031 39.9975C45.378 39.1103 44.3655 38.2228 43.3528 37.3478L43.332 37.3322L43.303 37.3081C43.1028 37.135 42.9105 36.965 42.7113 36.7923C41.7991 35.9986 40.885 35.2127 40.0028 34.423C37.1744 31.9306 34.4978 29.4377 32.0686 26.7505H47.9397C46.2688 28.6028 44.4775 30.3642 42.5955 32.0956C43.5717 32.9562 44.5653 33.8169 45.5703 34.6859L45.6222 34.7322C46.7428 35.7025 47.875 36.6816 49.0014 37.678C51.9789 34.9575 54.8727 32.0898 57.4463 28.9188C58.1363 28.0727 58.8034 27.2003 59.4391 26.3169C61.2814 23.7436 62.7661 21.1736 63.9731 18.4675C64.3516 17.6242 64.7156 16.7378 65.0477 15.8311C65.9689 13.3214 66.6592 10.6845 67.0955 8.00172C67.2341 7.17297 67.3497 6.29797 67.4448 5.40828C67.6298 3.66969 67.725 1.85328 67.725 0.00515625H58.4831C58.4831 1.62266 58.4022 3.21078 58.2378 4.72688C58.2253 4.84344 58.2058 4.94969 58.1927 5.065H21.8098C21.797 4.94828 21.7772 4.84328 21.7656 4.72469C21.5908 3.21219 21.5156 1.625 21.5156 0H12.278C12.278 1.84984 12.3655 3.675 12.553 5.39969C12.6531 6.29969 12.7653 7.17438 12.903 7.98703C13.3403 10.6869 14.0278 13.3242 14.9528 15.8364C15.2903 16.7364 15.653 17.6238 16.028 18.4613C17.228 21.1736 18.7153 23.7484 20.5653 26.3233C21.1903 27.1981 21.8653 28.073 22.5405 28.9108C25.8653 33.0105 29.728 36.5977 33.6031 39.9973C33.3434 40.2236 33.0895 40.4608 32.8319 40.6906C32.2188 41.2334 31.605 41.7748 30.9969 42.3303C28.0192 45.0478 25.1253 47.9153 22.552 51.0864C21.862 51.9325 21.1947 52.8045 20.5592 53.6883C18.7169 56.2614 17.2322 58.8316 16.0248 61.5377C15.6467 62.3809 15.2858 63.2673 14.9506 64.1741C14.0294 66.6837 13.3391 69.3203 12.903 72.0034C12.7644 72.835 12.6487 73.71 12.5536 74.5969C12.3686 76.3352 12.2734 78.1517 12.2734 80H21.5153C21.5153 78.3825 21.5963 76.7944 21.7606 75.2783C21.7731 75.1617 21.7927 75.0555 21.8058 74.94H58.198C58.2117 75.0552 58.2273 75.1663 58.2405 75.2825C58.4028 76.795 58.478 78.3822 58.478 79.9947H67.7278C67.7278 78.1575 67.628 76.3327 67.4403 74.6078ZM23.7905 13.5742C23.0752 11.6245 22.528 9.57641 22.152 7.47453H57.8427C57.4694 9.56953 56.9277 11.6227 56.21 13.5723C56.0672 13.9594 55.9039 14.3258 55.7503 14.703H24.2486C24.095 14.3263 23.9323 13.9613 23.7905 13.5742ZM28.4905 22.3611C27.2508 20.6316 26.2178 18.8994 25.3267 17.1123H54.6736C53.7845 18.8986 52.747 20.6291 51.508 22.3602C51.0283 23.0273 50.5134 23.6886 49.9892 24.3408H30.0033C29.4833 23.6911 28.9686 23.0283 28.4905 22.3611ZM37.4028 47.9095C37.4531 47.8628 37.5066 47.8177 37.5569 47.7709C38.3573 47.0358 39.1706 46.3067 39.9989 45.5761C40.0005 45.5748 40.002 45.5736 40.0034 45.5723C42.8313 48.0736 45.5067 50.5681 47.9292 53.2545H32.0573C33.7286 51.4014 35.5205 49.6413 37.4028 47.9095ZM28.4902 57.6477C28.9698 56.9778 29.4847 56.3167 30.0094 55.6641H49.9883C50.5092 56.3147 51.0241 56.9781 51.5028 57.6466C52.7422 59.3752 53.7822 61.1066 54.6697 62.8928H25.3248C26.2139 61.1078 27.2511 59.3764 28.4902 57.6477ZM22.1553 72.5306C22.5287 70.4355 23.0705 68.3825 23.7853 66.4325C23.9281 66.0456 24.0923 65.6792 24.2464 65.302H55.75C55.9038 65.6797 56.0669 66.0455 56.2155 66.4331C56.9305 68.382 57.4673 70.4295 57.842 72.5306H22.1553Z" fill="black"/>
</g>
<defs>
<clipPath id="clip0_366_564">
<rect width="80" height="80" fill="white"/>
</clipPath>
</defs>
</svg>
