<svg width="80" height="80" viewBox="0 0 80 80" fill="none" xmlns="http://www.w3.org/2000/svg">
<g clip-path="url(#clip0_366_567)">
<path d="M69.1668 69.7776L50.9267 25.9708C51.6075 24.4668 51.99 22.7999 51.99 21.0444C51.99 17.2066 50.1755 13.7869 47.3616 11.591V0H32.639V11.591C29.8253 13.7869 28.0107 17.2066 28.0107 21.0444C28.0107 22.7999 28.3931 24.4668 29.074 25.9708L10.834 69.7776L14.4818 71.2965L11.6915 77.998L16.4999 80L19.2903 73.2987L22.9381 74.8176L31.8665 53.3742C34.5147 54.0387 37.2406 54.3757 40.0001 54.3757C42.7597 54.3757 45.4856 54.0385 48.1338 53.3742L57.0622 74.8176L60.71 73.2987L63.5003 80L68.3089 77.998L65.5186 71.2965L69.1668 69.7776ZM37.8478 5.20876H42.1528V9.25205C41.4539 9.12471 40.7353 9.05486 40.0005 9.05486C39.2653 9.05486 38.5467 9.12502 37.8478 9.25221V5.20876ZM40.0003 14.2636C43.7394 14.2636 46.7812 17.3055 46.7812 21.0446C46.7812 24.7836 43.7394 27.8255 40.0003 27.8255C36.2612 27.8255 33.2193 24.7836 33.2193 21.0446C33.2193 17.3055 36.2614 14.2636 40.0003 14.2636ZM20.1318 68.007L17.6446 66.9714L32.7839 30.6116C33.5054 31.1572 34.2912 31.6213 35.1265 31.9946L20.1318 68.007ZM40.0003 49.1673C37.9331 49.1673 35.8892 48.9443 33.895 48.5031L40.0003 33.8399L46.1056 48.5031C44.1114 48.9442 42.0675 49.1673 40.0003 49.1673ZM59.8689 68.007L44.8742 31.9946C45.7094 31.6213 46.4952 31.1574 47.2169 30.6116L62.3561 66.9714L59.8689 68.007Z" fill="#F5F5F5"/>
</g>
<defs>
<clipPath id="clip0_366_567">
<rect width="80" height="80" fill="white"/>
</clipPath>
</defs>
</svg>
