<svg fill="none" height="80" viewBox="0 0 80 80" width="80" xmlns="http://www.w3.org/2000/svg"><path d="m40 0c-22.0565 0-40 17.9435-40 40s17.9435 40 40 40 40-17.9435 40-40-17.9482-40-40-40zm-35.17647 42.3529h13.82117c.2071 4.8189.9929 9.5577 2.4141 14.1177h-12.24939c-2.26353-4.2635-3.65176-9.0494-3.98588-14.1177zm13.82117-4.7058h-13.82117c.33412-5.0683 1.72235-9.8542 3.98588-14.1177h12.23529c-1.4165 4.56-2.1976 9.2988-2.4 14.1177zm7.3835-14.1177h27.7459c1.553 4.5412 2.4565 9.28 2.6777 14.1177h-33.1012c.2165-4.8377 1.1247-9.5765 2.6776-14.1177zm-2.6776 18.8235h33.1059c-.2306 4.8377-1.1341 9.5765-2.6918 14.1177h-27.7223c-1.5577-4.5412-2.4659-9.28-2.6918-14.1177zm37.8118 0h14.0141c-.3341 5.0683-1.7224 9.8542-3.9859 14.1177h-12.4424c1.4212-4.56 2.2071-9.2988 2.4142-14.1177zm0-4.7058c-.2024-4.8189-.9836-9.5577-2.4-14.1177h12.4282c2.2588 4.2635 3.6471 9.0494 3.9859 14.1177zm7.007-18.8236h-11.0776c-1.8447-4.4941-4.3106-8.7435-7.2942-12.70585 7.4259 2.15059 13.8259 6.68235 18.3718 12.70585zm-25.5435-13.98585c3.8776 4.22117 6.9835 8.94115 9.28 13.98585h-24.0094c2.2917-5.04 5.3929-9.75526 9.2706-13.97644.9364-.07059 1.8729-.14118 2.8329-.14118.8847 0 1.7553.07059 2.6259.13177zm-12.6635 1.34117c-2.96 3.94358-5.4165 8.17408-7.2471 12.64468h-10.8894c4.4941-5.9623 10.8094-10.46585 18.1365-12.64468zm-18.1365 54.99768h10.9035c1.84 4.4753 4.3059 8.7106 7.28 12.6541-7.3459-2.1694-13.68-6.6777-18.1835-12.6541zm25.3976 13.9764c-3.887-4.2211-7.0023-8.9364-9.3082-13.9764h23.9718c-2.3059 5.0447-5.4212 9.7647-9.313 13.9859-.8517.0611-1.7082.1317-2.5741.1317-.9412 0-1.8588-.0706-2.7765-.1412zm12.5224-1.2564c2.9929-3.9624 5.4776-8.2212 7.327-12.72h11.0965c-4.5553 6.0376-10.9741 10.5741-18.4235 12.72z" fill="#f5f5f5"/></svg>