<svg fill="none" height="80" viewBox="0 0 80 80" width="80" xmlns="http://www.w3.org/2000/svg"><g fill="#f5f5f5"><path d="m41.5901 38.5384c-2.374-3.5702-5.7344-6.2403-9.7175-7.7221-.7406-.2757-1.5653.1016-1.8409.8427-.2758.7412.1014 1.5655.8426 1.8411 3.4132 1.2695 6.2941 3.5603 8.3316 6.6239.2756.4147.7302.639 1.1934.639.2724 0 .5477-.0775.7914-.2396.6585-.4382.8374-1.3268.3994-1.985z"/><path d="m28.2637 17.3353c-.7906 0-1.4317.641-1.4317 1.4317v8.9185c0 .7906.641 1.4317 1.4317 1.4317s1.4318-.641 1.4318-1.4317v-8.9185c0-.7907-.6411-1.4317-1.4318-1.4317z"/><path d="m79.2525 64.8125-14.9251-28.949v-11.964c2.5268-.2346 4.5118-2.366 4.5118-4.9528 0-2.7433-2.2318-4.9752-4.9751-4.9752h-16.6401c-2.7433 0-4.9752 2.2319-4.9752 4.9752 0 2.5868 1.9849 4.7179 4.5117 4.9526v11.9641l-.5404 1.0479c-2.7207-4.5342-6.8652-8.1471-11.7517-10.199v-11.4539c2.1243-.5666 3.6942-2.5066 3.6942-4.8072 0-2.74326-2.2317-4.97513-4.9752-4.97513h-16.6399c-2.7433 0-4.9752 2.23187-4.9752 4.97513 0 2.301 1.5706 4.2416 3.6958 4.8075v11.4528c-4.3069 1.8011-7.9964 4.7583-10.71436 8.5995-2.97906 4.2103-4.55374 9.1708-4.55374 14.3455 0 13.7116 11.1554 24.8673 24.8673 24.8673 2.9734 0 5.869-.519 8.6225-1.5399 1.1761.9849 2.67 1.5394 4.2647 1.5394h35.5794c2.3417 0 4.4672-1.1939 5.6861-3.1935 1.2189-1.9995 1.3056-4.436.2325-6.5173zm-34.1402-45.8657c0-1.1643.9473-2.1118 2.1118-2.1118h16.6403c1.1647 0 2.1119.9473 2.1119 2.1118 0 1.1644-.9474 2.1119-2.1119 2.1119h-16.6403c-1.1644-.0002-2.1118-.9475-2.1118-2.1119zm-30.6767-8.4954c0-1.1644.9472-2.11189 2.1119-2.11189h16.6404c1.1644 0 2.1119.94734 2.1119 2.11189 0 1.1645-.9472 2.1118-2.1119 2.1118h-16.6404c-1.1647-.0001-2.1119-.9473-2.1119-2.1118zm10.4323 61.2092c-12.1337-.0003-22.00462-9.8712-22.00462-22.0041 0-4.5789 1.39265-8.9675 4.0278-12.6913 2.57812-3.6437 6.14262-6.3884 10.30782-7.9379.5606-.2086.9325-.7438.9325-1.3417v-12.2591h13.4737v12.2589c0 .5981.3717 1.1331.9322 1.3417 5.2547 1.9561 9.629 5.9292 12.0984 10.958l-5.4484 10.5679c-.4449-.1892-.8657-.3997-1.2991-.618-1.5931-.8017-3.3987-1.7103-6.8319-1.7103-3.4345 0-5.2399.9088-6.8326 1.711-1.4975.7537-2.7908 1.405-5.5451 1.405-2.7544 0-4.0478-.6511-5.5452-1.405-1.5928-.8019-3.39826-1.711-6.83263-1.711-.79062 0-1.43172.641-1.43172 1.4318 0 11.0273 8.97135 19.9987 19.99875 19.9987 2.1589 0 4.2589-.3393 6.2704-1.0075.0792.6622.2575 1.3148.5383 1.9375-2.1875.7137-4.4703 1.0754-6.8086 1.0754zm6.9677-6.8481c-.1041.2017-.1938.4075-.2761.6153-2.1155.9047-4.3638 1.3641-6.6924 1.3641-8.9409 0-16.30446-6.8834-17.06962-15.629 1.78547.1914 2.85152.7281 4.04792 1.3304 1.5929.8019 3.3983 1.711 6.8327 1.711 3.4345 0 5.2398-.9088 6.8326-1.711 1.4975-.7537 2.7908-1.405 5.5452-1.405 2.7534 0 4.0468.651 5.5445 1.4047.4078.2052.8231.4134 1.2709.6116zm44.7392 5.027c-.6946 1.1399-1.9062 1.8202-3.241 1.8202h-35.5795c-1.3347 0-2.5464-.6805-3.2411-1.8202-.6947-1.1396-.7442-2.5285-.1326-3.7148l15.084-29.2576c.1045-.203.1592-.4278.1592-.6561v-12.289h11.8403v12.289c0 .2283.0545.4531.1592.6561l15.0842 29.2576c.6117 1.1864.5622 2.5752-.1327 3.7148z"/><path d="m63.233 44.1556-3.6782-7.134v-9.7592c0-.7906-.6407-1.4317-1.4317-1.4317-.7909 0-1.4317.6409-1.4317 1.4317v10.1062c0 .2283.0545.4532.1592.6561l3.8372 7.4428c.2541.4931.7548.776 1.2736.776.2209 0 .4451-.0514.655-.1594.703-.3622.9791-1.2256.6166-1.9285z"/><path d="m74.9344 67.0614c-.0026-.0053-.0062-.0126-.0092-.018l-9.2933-18.0254c-.1443-.28-.3772-.5047-.662-.6389-.1811-.0853-.3566-.1737-.532-.262-1.1096-.5583-2.3667-1.191-4.7681-1.191-2.4039 0-3.6614.6335-4.7708 1.1922-.9825.495-1.7586.8858-3.4805.8858-1.7236 0-2.4998-.3906-3.4826-.8851-.1153-.058-.2308-.1161-.3474-.1736-.7003-.3439-1.547-.0644-1.904.6287l-9.513 18.4542c-.3039.5723-.2834 1.2176.0524 1.7648.1573.2593.6214.8622 1.5295.8622h35.5799c.9078 0 1.3702-.5978 1.531-.8644.1579-.2607.4676-.9345.0701-1.7295zm-35.4195-.2695v-.0002l8.0752-15.6649c.9228.4009 2.0683.7403 3.8289.7403 2.4022 0 3.6594-.6331 4.7684-1.1917.983-.4952 1.7594-.8861 3.4828-.8861 1.7214 0 2.4978.3907 3.4805.8853.0514.0258.1025.0515.1539.0773l8.2695 16.0401h-32.0592z"/></g></svg>