<svg fill="none" height="80" viewBox="0 0 80 80" width="80" xmlns="http://www.w3.org/2000/svg" xmlns:xlink="http://www.w3.org/1999/xlink"><clipPath id="a"><path d="m0 0h80v80h-80z"/></clipPath><g clip-path="url(#a)" fill="#000"><path d="m23.2432 45.683c2.2482 0 4.4213-.1453 6.4776-.4156v-22.5396c-2.0561-.2701-4.2294-.4153-6.4776-.4153-12.8369 0-23.2432 4.7197-23.2432 10.542v2.2863c0 5.822 10.4063 10.5422 23.2432 10.5422z"/><path d="m23.2432 57.4523c2.2482 0 4.4213-.1453 6.4776-.4152v-6.6067c-2.0567.2701-4.2288.4173-6.4776.4173-11.2052 0-20.55755-3.5964-22.754357-8.3829-.319919.6973-.488843 1.4192-.488843 2.1592v2.2863c0 5.8222 10.4063 10.542 23.2432 10.542z"/><path d="m29.7208 62.7137v-.5136c-2.0567.2702-4.2288.4174-6.4776.4174-11.2052 0-20.55755-3.5964-22.754357-8.3829-.319919.697-.488843 1.4189-.488843 2.159v2.2862c0 5.8225 10.4063 10.5422 23.2432 10.5422 2.5671 0 5.0362-.1892 7.3452-.5378-.5723-1.1707-.8676-2.4054-.8676-3.6845z"/><path d="m56.7568 4.45801c-12.8368 0-23.2431 4.71971-23.2431 10.54199v2.2863c0 5.8223 10.4063 10.542 23.2431 10.542 12.8367 0 23.2432-4.7197 23.2432-10.542v-2.2863c0-5.82228-10.4065-10.54199-23.2432-10.54199z"/><path d="m56.7568 32.9932c-11.2051 0-20.5575-3.5962-22.7543-8.3828-.3199.697-.4888 1.4189-.4888 2.1591v2.2863c0 5.8223 10.4063 10.542 23.2431 10.542 12.8367 0 23.2432-4.7197 23.2432-10.542v-2.2863c0-.7402-.1689-1.4621-.4888-2.1591-2.1968 4.7866-11.5492 8.3828-22.7544 8.3828z"/><path d="m56.7568 44.7629c-11.2051 0-20.5575-3.5965-22.7543-8.3829-.3199.697-.4888 1.4189-.4888 2.1592v2.2862c0 5.8225 10.4063 10.5422 23.2431 10.5422 12.8367 0 23.2432-4.7197 23.2432-10.5422v-2.2862c0-.7403-.1689-1.4622-.4888-2.1592-2.1968 4.7866-11.5492 8.3829-22.7544 8.3829z"/><path d="m56.7568 57.1679c-11.2051 0-20.5575-3.5964-22.7543-8.3829-.3199.6972-.4888 1.419-.4888 2.159v2.2864c0 5.8223 10.4063 10.542 23.2431 10.542 12.8367 0 23.2432-4.7197 23.2432-10.542v-2.2864c0-.74-.1689-1.4622-.4888-2.159-2.1968 4.7863-11.5492 8.3829-22.7544 8.3829z"/><path d="m56.7568 68.9373c-11.2051 0-20.5575-3.5962-22.7543-8.3827-.3199.6972-.4888 1.4194-.4888 2.159v2.2862c0 5.8223 10.4063 10.5421 23.2431 10.5421 12.8367 0 23.2432-4.7198 23.2432-10.5421v-2.2864c0-.74-.1689-1.4621-.4888-2.159-2.1968 4.7865-11.5492 8.3829-22.7544 8.3829z"/></g></svg>