<svg width="76" height="70" viewBox="0 0 76 70" fill="none" xmlns="http://www.w3.org/2000/svg">
<g clip-path="url(#clip0_397_150)">
<path d="M66.5825 7.875H8.58109C3.84915 7.875 0 11.4601 0 15.8666V54.1331C0 58.5396 3.84952 62.1247 8.58109 62.1247H66.5825C71.314 62.1247 75.1639 58.5396 75.1639 54.1331V15.8666C75.1639 11.4601 71.314 7.875 66.5825 7.875ZM37.582 57.925H8.58109C6.33632 57.925 4.50984 56.2243 4.50984 54.1334V15.8666C4.50984 13.7757 6.33632 12.075 8.58109 12.075H37.582V57.925ZM68.6172 26.6452C68.4116 29.8459 66.487 36.1865 60.7742 40.5909C62.5086 40.9486 64.3929 41.1414 66.3814 41.1414V45.3414C62.4161 45.3414 58.7756 44.6698 55.6822 43.4777C52.7925 44.633 49.3049 45.3414 45.1123 45.3414V41.1414C47.041 41.1414 48.8419 40.9661 50.5113 40.6172C47.3499 38.1616 45.4821 34.9083 45.4821 31.2441H49.9915C49.9915 34.3441 52.1187 37.0251 55.5852 38.8122C57.3294 37.8812 58.8556 36.673 60.1567 35.1894C62.2718 32.7793 63.3519 30.107 63.8225 28.1747H45.1123V23.9747H53.4919V19.7795H58.0017V23.975H65.9146C66.661 23.975 67.3811 24.2659 67.8907 24.773C68.3939 25.2697 68.6611 25.9543 68.6172 26.6452Z" fill="#FE860C"/>
<path d="M16.1726 41.3916L14.5003 45.3319H8.49805L18.4028 23.9504H24.405L34.0808 45.3319H27.8486L26.2089 41.3916H16.1726ZM21.2237 29.3565L17.8781 37.2679H24.5035L21.2237 29.3565Z" fill="#FE860C"/>
</g>
<defs>
<clipPath id="clip0_397_150">
<rect width="75.1639" height="70" fill="white"/>
</clipPath>
</defs>
</svg>
