<svg width="69" height="70" viewBox="0 0 69 70" fill="none" xmlns="http://www.w3.org/2000/svg">
<path d="M38.5449 55.1897V70L53.1042 55.1897H38.5449Z" fill="#F5F5F5"/>
<path d="M35.2173 16.023L38.3455 16.6476L40.1243 10.6531L40.5597 10.2353C44.5942 6.36357 48.9473 3.22957 53.1034 1.17373V0H1.58008V70H34.0562V50.6245H53.1033V36.1588C44.3863 41.6682 34.4572 42.5996 31.37 42.7567L24.3988 49.8482L21.2254 46.6201L28.1097 39.6171C27.9757 36.1401 28.1168 25.2615 34.3689 17.1268L35.2173 16.023Z" fill="#F5F5F5"/>
<path d="M66.148 4.15196C64.7146 2.69385 61.6703 2.67362 57.796 4.09672C53.4446 5.69483 48.5898 8.89815 44.0739 13.1441L41.4688 21.9233L37.1087 21.0527C34.1114 25.5606 33.0657 30.9808 32.7285 34.9194L46.7677 20.6383L49.941 23.8664L36.5024 37.5366C41.9635 36.5483 49.9687 34.1418 55.7234 28.288C56.3231 27.678 56.913 27.0508 57.4859 26.4141L55.7667 22.1835L63.8242 17.7433C67.2737 11.6726 68.2137 6.25387 66.148 4.15196Z" fill="#F5F5F5"/>
</svg>
