<svg width="50" height="50" viewBox="0 0 50 50" fill="none" xmlns="http://www.w3.org/2000/svg">
<path d="M25 25L34.375 15.625" stroke="#F5F5F5" stroke-width="2" stroke-miterlimit="10" stroke-linecap="round" stroke-linejoin="round"/>
<path d="M46.875 9.375H40.625V3.125L34.375 9.375V15.625H40.625L46.875 9.375Z" stroke="#F5F5F5" stroke-width="2" stroke-miterlimit="10" stroke-linecap="round" stroke-linejoin="round"/>
<path d="M25 34.375C30.1777 34.375 34.375 30.1777 34.375 25C34.375 19.8223 30.1777 15.625 25 15.625C19.8223 15.625 15.625 19.8223 15.625 25C15.625 30.1777 19.8223 34.375 25 34.375Z" stroke="#F5F5F5" stroke-width="2" stroke-miterlimit="10" stroke-linecap="round" stroke-linejoin="round"/>
<path d="M42.1875 14.0625C44.2187 17.1875 45.3125 20.9375 45.3125 25C45.3125 36.25 36.25 45.3125 25 45.3125C13.75 45.3125 4.6875 36.25 4.6875 25C4.6875 13.75 13.75 4.6875 25 4.6875C29.0625 4.6875 32.8125 5.78125 35.9375 7.8125" stroke="#F5F5F5" stroke-width="2" stroke-miterlimit="10" stroke-linecap="round" stroke-linejoin="round"/>
</svg>
