<svg width="81" height="70" viewBox="0 0 81 70" fill="none" xmlns="http://www.w3.org/2000/svg">
<path d="M61.2486 24.9062C50.5384 24.9062 42.1484 29.0003 42.1484 34.227V59.6496C42.1484 64.8762 50.5384 68.9712 61.2486 68.9712C71.9594 68.9712 80.3498 64.8762 80.3498 59.6496V34.227C80.3498 29.0003 71.9594 24.9062 61.2486 24.9062ZM78.5872 59.6495C78.5872 63.747 70.6469 67.2085 61.2486 67.2085C51.8509 67.2085 43.911 63.747 43.911 59.6495V55.2316C46.9089 58.4259 53.4556 60.5988 61.2486 60.5988C69.0422 60.5988 75.5892 58.4259 78.5872 55.2315V59.6495ZM78.5872 51.2781C78.5872 55.3747 70.6469 58.8362 61.2486 58.8362C51.8509 58.8362 43.911 55.3747 43.911 51.2781V46.8542C46.9089 50.0485 53.4556 52.2214 61.2486 52.2214C69.0422 52.2214 75.5892 50.0485 78.5872 46.8541V51.2781ZM78.5872 42.9005C78.5872 46.9972 70.6469 50.4586 61.2486 50.4586C51.8509 50.4586 43.911 46.9972 43.911 42.9005V38.1806C46.9089 41.3749 53.4556 43.5477 61.2486 43.5477C69.0422 43.5477 75.5892 41.3749 78.5872 38.1805V42.9005ZM61.2486 41.7852C51.8509 41.7852 43.911 38.3237 43.911 34.227C43.911 30.1304 51.8509 26.6689 61.2486 26.6689C70.6469 26.6689 78.5872 30.1304 78.5872 34.227C78.5872 38.3237 70.6469 41.7852 61.2486 41.7852Z" fill="#F5F5F5" stroke="#F5F5F5"/>
<path d="M51.0357 2.77346C49.2467 1.92269 47.2334 1.81953 45.3666 2.48299L45.3665 2.48303C43.4997 3.14649 42.003 4.49727 41.1521 6.28612C41.142 6.30743 41.1326 6.32876 41.1239 6.35048L25.0914 46.3029C25.091 46.3038 25.0909 46.3048 25.0904 46.3058C24.4451 46.3843 23.8038 46.5322 23.1765 46.7552C20.9448 47.5483 19.1556 49.163 18.1382 51.3018C17.1146 53.4545 17.4269 55.7708 17.7886 58.4528C18.1517 61.1452 18.5633 64.1969 17.6797 67.7938C17.5915 68.1534 17.6841 68.5332 17.9281 68.8115C18.1719 69.0898 18.5363 69.2318 18.9043 69.1915C20.4737 69.0198 22.011 68.6692 23.4735 68.1494C29.0543 66.166 32.6496 62.0804 34.1533 58.9182C35.1706 56.7794 35.2941 54.3724 34.501 52.1407C34.2778 51.5129 33.9875 50.9215 33.6411 50.3713C33.6415 50.3703 33.6421 50.3696 33.6426 50.3687L54.5166 12.7198C54.528 12.6993 54.5388 12.6784 54.5488 12.6573C56.305 8.9638 54.7291 4.53006 51.0357 2.77346ZM32.1051 57.9441C30.7965 60.6962 27.6422 64.2609 22.7139 66.0124C21.9037 66.3004 21.0669 66.5298 20.2129 66.6987C20.742 63.3838 20.3553 60.5176 20.036 58.1495C19.7098 55.7304 19.4521 53.8195 20.1862 52.2757C20.9432 50.6839 22.2749 49.4822 23.9358 48.8919C25.5967 48.3017 27.3881 48.3934 28.9797 49.1504C30.5715 49.9075 31.7733 51.239 32.3636 52.9C32.9541 54.561 32.8623 56.3523 32.1051 57.9441ZM52.5148 11.653L32.0867 48.5233C31.4564 47.9565 30.741 47.4767 29.954 47.1025C29.1669 46.7282 28.3434 46.476 27.5058 46.3449L43.2146 7.23003C44.4436 4.68755 47.5076 3.60688 50.0615 4.82158C52.6158 6.0364 53.7114 9.09498 52.5148 11.653Z" fill="#F5F5F5"/>
</svg>
