<svg width="44" height="50" viewBox="0 0 44 50" fill="none" xmlns="http://www.w3.org/2000/svg">
<path d="M36.7115 14.9456C36.5867 14.8193 36.4467 14.7037 36.2928 14.6012L36.1351 14.5682C36.0524 14.5323 35.9866 14.4733 35.9437 14.402C35.6972 14.2857 35.4392 14.2107 35.1767 14.1732C34.95 14.1418 34.7908 13.9313 34.8237 13.7031C34.8543 13.475 35.0663 13.3158 35.293 13.3472C35.5525 13.3854 35.8127 13.4514 36.0623 13.5493C36.1028 13.3671 36.1258 13.181 36.1258 12.9935C36.125 12.5832 36.0286 12.169 35.8234 11.7794C35.5892 11.3339 35.2455 10.9863 34.8436 10.7491C34.4914 10.5409 34.0934 10.4169 33.6846 10.3878C33.6548 10.7605 33.566 11.1318 33.4113 11.4916C33.3194 11.7028 33.0753 11.8001 32.8633 11.709C32.652 11.6186 32.554 11.3737 32.6451 11.1624C32.7936 10.8157 32.8633 10.459 32.8648 10.1053L32.8595 9.95448C32.8312 9.46454 32.6688 8.99149 32.3925 8.58807C32.1161 8.18534 31.7288 7.85546 31.2466 7.64647C30.9006 7.49872 30.5423 7.42909 30.1894 7.42909C29.5134 7.42909 28.8589 7.68944 28.3645 8.14862C28.457 8.46327 28.5099 8.79471 28.5099 9.13925C28.5099 9.36893 28.3216 9.55565 28.0919 9.55565C27.8622 9.55565 27.6747 9.36893 27.6747 9.13925C27.6747 8.80165 27.6127 8.48163 27.4994 8.18387H27.5002C27.308 7.68251 26.9682 7.25077 26.5326 6.94608C26.0985 6.64149 25.5727 6.46307 25.0001 6.46307C24.5033 6.46307 24.0401 6.59862 23.6421 6.8328C23.3236 7.02108 23.0488 7.27528 22.833 7.57382C23.2548 8.15175 23.5043 8.866 23.5043 9.63612C23.5043 9.86571 23.3168 10.0517 23.0863 10.0517C22.8566 10.0517 22.6691 9.86571 22.6691 9.63612C22.6691 8.95946 22.4203 8.34393 22.0062 7.87313C21.5148 7.312 20.7976 6.96073 19.9937 6.96073C19.4357 6.96073 18.9221 7.12987 18.4926 7.42079C18.0646 7.71171 17.724 8.12352 17.5227 8.60731C17.3926 8.92343 17.3183 9.27177 17.3183 9.63612C17.3183 9.86571 17.1322 10.0517 16.9019 10.0517C16.6714 10.0517 16.4854 9.86571 16.4854 9.63612C16.4854 9.29774 16.5345 8.97167 16.6232 8.66083C16.3094 8.53378 15.9695 8.46337 15.6205 8.46337C15.4223 8.46337 15.2232 8.48632 15.0211 8.53153C14.4271 8.66854 13.9303 8.98856 13.5666 9.42176C13.3048 9.73417 13.118 10.1054 13.0208 10.5042C13.882 10.5194 14.7424 10.8524 15.4069 11.5031C15.5708 11.6646 15.5738 11.928 15.4131 12.0918C15.2516 12.2571 14.9882 12.2587 14.8236 12.0986C14.3016 11.5896 13.6287 11.3347 12.952 11.3339C12.8311 11.3339 12.7101 11.3423 12.5891 11.3576H12.5876H12.5868C12.0196 11.4364 11.473 11.6951 11.039 12.1377C10.5291 12.6582 10.2765 13.3304 10.2758 14.0086C10.2758 14.3952 10.36 14.7848 10.5283 15.1431C10.6592 15.4255 10.843 15.6889 11.0803 15.92V15.9207C11.3482 16.1841 11.6575 16.3785 11.9875 16.5056C12.201 16.5891 12.309 16.8302 12.2248 17.0444C12.1414 17.2603 11.901 17.3676 11.6859 17.2833C11.255 17.1164 10.8478 16.8608 10.4955 16.5155C10.3417 16.364 10.2046 16.2024 10.083 16.031C9.76836 16.4819 9.59766 17.0215 9.59766 17.5712C9.59766 17.9969 9.69951 18.4263 9.91455 18.8297C10.1564 19.2813 10.5063 19.6335 10.9182 19.8738C11.2435 20.0644 11.6071 20.1847 11.9822 20.2267L11.9814 20.2015C11.9814 19.9809 12.0021 19.7651 12.0396 19.5554C12.0825 19.3288 12.3007 19.1809 12.5258 19.2216C12.7523 19.2637 12.9017 19.481 12.861 19.7076C12.8312 19.8676 12.8151 20.0337 12.8151 20.2014L12.822 20.3951L12.8441 20.5903V20.5926L12.8449 20.5964C13.0363 21.9039 14.1662 22.8813 15.489 22.8813L15.6812 22.8737H15.6819C16.2683 22.8316 16.7949 22.605 17.2129 22.2521C17.5061 22.0049 17.7464 21.6949 17.911 21.3457C18.0082 21.1367 18.2585 21.048 18.466 21.1467C18.6742 21.2447 18.7631 21.4927 18.665 21.701C18.4867 22.0768 18.2433 22.4159 17.9509 22.7045C18.1146 23.2082 18.4224 23.6407 18.8243 23.9622C19.2837 24.3305 19.8631 24.5478 20.4893 24.5478L20.6822 24.5402H20.683C21.0795 24.5119 21.4462 24.3978 21.7716 24.2202C21.721 23.9807 21.692 23.7357 21.692 23.4877C21.692 22.9763 21.8061 22.455 22.0418 21.965C22.1421 21.7576 22.3908 21.6711 22.5976 21.7714C22.805 21.8701 22.8931 22.1197 22.7928 22.3271C22.6113 22.703 22.5264 23.098 22.5264 23.4877C22.5264 23.7601 22.5685 24.0319 22.6496 24.2898H22.6504C22.864 24.9704 23.3463 25.5652 24.0405 25.8989C24.4156 26.0804 24.8106 26.1653 25.1995 26.1653C25.8173 26.1653 26.4213 25.9494 26.9005 25.5583L26.902 25.5575C27.193 25.3179 27.4364 25.0147 27.6116 24.6526L27.6124 24.6511C27.7755 24.3128 27.8612 23.9584 27.8757 23.6047C27.8864 23.375 28.0801 23.1959 28.3112 23.2066C28.5409 23.2166 28.7185 23.4109 28.7085 23.6406C28.6886 24.1045 28.5761 24.5729 28.3625 25.0146V25.0139C28.191 25.3714 27.9652 25.686 27.7004 25.9547C28.1918 26.6604 29.0094 27.1053 29.8936 27.1045C30.0573 27.1045 30.2242 27.0892 30.3919 27.057C31.0356 26.9361 31.5784 26.5954 31.9643 26.1269C32.3493 25.6576 32.5736 25.0613 32.5736 24.432L32.5729 24.3755V24.3724C32.5698 24.2307 32.5553 24.0823 32.5277 23.9329C32.4611 23.5785 32.3256 23.2569 32.1396 22.9729C31.8702 22.7356 31.5709 22.4257 31.2885 22.0811C30.9876 21.7138 30.7105 21.3118 30.5245 20.9069C30.402 20.6359 30.3147 20.3619 30.3132 20.0733C30.3132 19.9455 30.3308 19.8131 30.379 19.686C30.4257 19.5566 30.5022 19.4342 30.6048 19.3331C30.7671 19.1716 31.0304 19.1716 31.1935 19.3331C31.3558 19.4969 31.3558 19.7617 31.1935 19.9233L31.162 19.9731L31.146 20.0734C31.1444 20.1783 31.1881 20.3559 31.2822 20.5602C31.3756 20.764 31.5142 20.9928 31.6772 21.2185C32.0003 21.671 32.419 22.115 32.7344 22.3859L32.7772 22.4227L32.8087 22.4694C33.0667 22.8537 33.2558 23.2962 33.3468 23.7792V23.78L33.3767 23.9866L33.5015 23.992C34.0297 23.9912 34.5616 23.835 35.0294 23.5066C35.4015 23.2448 35.6847 22.9088 35.8761 22.5313C36.0682 22.1532 36.1685 21.7352 36.1685 21.3142C36.1685 20.92 36.0796 20.5242 35.9021 20.156C35.7374 20.2089 35.5705 20.251 35.4014 20.2801C35.1748 20.3206 34.9597 20.1667 34.9191 19.9402C34.8808 19.7129 35.034 19.4985 35.2605 19.4587C35.9984 19.3316 36.6744 18.9015 37.0924 18.2109C37.3572 17.7769 37.482 17.2992 37.482 16.8269C37.482 16.131 37.2133 15.4506 36.7127 14.9461L36.7115 14.9456ZM17.6146 11.7657C18.0127 11.2949 18.5409 10.9603 19.1089 10.7414C19.6792 10.5224 20.29 10.4176 20.8765 10.4176C21.4468 10.4183 21.9948 10.5148 22.4603 10.7307C22.6685 10.8256 22.7596 11.0744 22.6631 11.2834C22.5674 11.4917 22.3201 11.5835 22.1097 11.4871C21.7882 11.3363 21.3479 11.2498 20.8765 11.2498C20.3911 11.2498 19.8737 11.3392 19.409 11.52C18.9443 11.6983 18.5363 11.9647 18.2492 12.3031C18.1022 12.4792 17.8382 12.5021 17.6621 12.3521C17.4868 12.2036 17.4646 11.941 17.6146 11.7657ZM27.1007 21.6207C26.6161 21.6207 26.1767 21.5656 25.7756 21.473C25.7863 21.5878 25.7939 21.7156 25.7939 21.8512C25.7939 22.1229 25.7641 22.4336 25.6791 22.7598C25.5934 23.085 25.4487 23.4272 25.2206 23.7557C25.0897 23.9455 24.8302 23.9922 24.6411 23.8612C24.4513 23.7303 24.4054 23.4716 24.5347 23.2809C24.703 23.0383 24.8079 22.7902 24.8723 22.5461C24.9366 22.3019 24.9604 22.0645 24.9604 21.8511C24.9611 21.5563 24.9159 21.3137 24.8838 21.1751C24.6802 21.0832 24.4926 20.9799 24.3174 20.8642C23.6192 20.4126 23.1523 19.8163 22.8591 19.249C22.6624 18.8685 22.5429 18.5012 22.4786 18.1819C22.4419 17.9997 22.4235 17.8345 22.4235 17.6843C22.4235 17.4531 22.6104 17.2663 22.8407 17.2663C23.0711 17.2663 23.2579 17.4531 23.2579 17.6843C23.2571 17.8052 23.2832 18.0081 23.349 18.2386C23.4148 18.4697 23.5197 18.7323 23.6713 18.9964C23.9752 19.5276 24.4582 20.0597 25.2038 20.405C25.7021 20.6361 26.3222 20.7861 27.1007 20.7861C27.3311 20.7861 27.5179 20.9729 27.5179 21.2033C27.5179 21.434 27.3312 21.6207 27.1007 21.6207ZM30.0356 18.577C29.9499 18.7899 29.7072 18.894 29.4929 18.809C29.2793 18.7232 29.1768 18.4821 29.2609 18.2685V18.2678L29.2633 18.2616L29.2756 18.2249L29.3185 18.0749C29.3499 17.9433 29.382 17.7572 29.382 17.5528L29.3813 17.5237C28.8087 17.7182 28.2774 17.8054 27.7883 17.8054C27.0488 17.8069 26.4089 17.6041 25.8883 17.2964C25.367 16.9888 24.9613 16.5814 24.6581 16.1673C24.3137 15.698 23.862 15.277 23.3445 14.9793C22.8256 14.6807 22.2453 14.5031 21.6291 14.5016C21.0895 14.5031 20.5153 14.6378 19.9159 14.967C19.3472 15.2793 18.9813 15.6949 18.7447 16.1512C18.5098 16.6082 18.4103 17.1072 18.4109 17.562C18.4094 17.983 18.4982 18.3641 18.6138 18.6046C18.7125 18.8128 18.6229 19.0608 18.4155 19.1596C18.2081 19.2584 17.9593 19.1687 17.8605 18.9613C17.6791 18.5769 17.5781 18.0932 17.5766 17.562C17.5773 17.0338 17.6822 16.4565 17.9402 15.9047C17.4229 16.0219 16.9421 16.0739 16.5042 16.0739C16.2677 16.0739 16.0448 16.0586 15.8328 16.031L15.7555 16.1872L15.7547 16.1887L15.7485 16.1949L15.7264 16.2232L15.6375 16.3441C15.5617 16.4529 15.4568 16.6113 15.3428 16.8134C15.1154 17.2138 14.8552 17.7787 14.7288 18.4132C14.6837 18.639 14.4647 18.7868 14.2389 18.7408C14.0131 18.6957 13.866 18.4767 13.9128 18.2494C14.0628 17.4969 14.3592 16.8569 14.6171 16.4015C14.7518 16.1657 14.8751 15.979 14.9653 15.8518C14.6255 15.7501 14.3315 15.6253 14.0912 15.4981C13.5424 15.2064 13.2567 14.9141 13.2323 14.8903C13.073 14.7242 13.0776 14.4608 13.243 14.3009C13.4091 14.1417 13.6717 14.1463 13.8316 14.31L13.8363 14.3146L13.8607 14.3384L13.9802 14.4386C14.0888 14.5243 14.2565 14.6423 14.4808 14.7616C14.9309 14.9989 15.603 15.2393 16.504 15.2409C17.137 15.2409 17.8834 15.12 18.7507 14.7862C18.9704 14.5818 19.2237 14.3951 19.5146 14.2358C20.2281 13.8447 20.9469 13.6686 21.6289 13.6686C22.4082 13.6686 23.1331 13.8953 23.7608 14.2565C24.3886 14.6194 24.9206 15.1162 25.3301 15.675C25.5789 16.0125 25.9058 16.3394 26.3107 16.5774C26.718 16.8163 27.1994 16.9718 27.7881 16.9724C28.1915 16.9724 28.6462 16.8974 29.1606 16.7168C29.0352 16.5154 28.8483 16.321 28.5406 16.1449C28.34 16.0308 28.2688 15.7767 28.3821 15.5769C28.4962 15.3756 28.7496 15.3066 28.9501 15.4184C29.4431 15.6964 29.773 16.0645 29.9644 16.4496C30.158 16.8331 30.2154 17.222 30.2154 17.5527C30.2132 18.1301 30.0471 18.5473 30.0356 18.577ZM29.8795 13.4705C28.9058 13.4705 28.0538 13.2079 27.3648 12.8106C27.2677 12.9454 27.1375 13.1145 26.9698 13.2982C26.5925 13.7124 26.0382 14.1985 25.2965 14.4648C25.0783 14.5414 24.841 14.4297 24.7637 14.2123C24.6863 13.9948 24.8004 13.7568 25.0155 13.6803C25.5629 13.485 26.0206 13.1015 26.3376 12.7548C26.4846 12.5963 26.5986 12.4463 26.6813 12.3314C26.2702 11.984 25.9457 11.5882 25.7229 11.1809C25.5117 10.7905 25.3892 10.3879 25.3877 9.99667C25.3877 9.76708 25.5745 9.58026 25.8049 9.58026C26.0346 9.58026 26.2213 9.76708 26.2213 9.99667C26.2197 10.2072 26.2933 10.4882 26.4555 10.7829C26.6154 11.0783 26.8589 11.386 27.1773 11.6617C27.8143 12.2137 28.7336 12.6361 29.8796 12.6361C30.11 12.6361 30.296 12.8237 30.296 13.0541C30.2959 13.2837 30.1099 13.4705 29.8795 13.4705ZM33.1649 19.3395C33.0188 19.5156 32.7554 19.5416 32.5778 19.3938C32.4003 19.2476 32.3758 18.9844 32.5212 18.8075C32.9759 18.2556 33.1436 17.6998 33.145 17.1679C33.1466 16.6833 32.998 16.2155 32.7653 15.8214C32.5356 15.4278 32.2181 15.1125 31.9126 14.9372C31.7074 14.8193 31.5146 14.7665 31.3614 14.7665C31.131 14.7665 30.945 14.5806 30.945 14.3501C30.945 14.1197 31.1311 13.9329 31.3614 13.9329C31.6147 13.9329 31.8628 13.9949 32.0986 14.099C32.3336 14.2016 32.5557 14.3478 32.7623 14.5263C33.1749 14.8829 33.5255 15.3682 33.746 15.9371C33.8914 16.3167 33.9802 16.7332 33.9802 17.168C33.981 17.8828 33.7368 18.6482 33.1649 19.3395Z" fill="#F5F5F5"/>
<path d="M23.9154 1.61023C23.7146 1.60461 23.5144 1.60176 23.3147 1.60176C18.6336 1.60176 14.3942 3.12213 11.336 5.82816L11.3351 5.829C8.27223 8.54832 6.38864 12.4057 6.38057 17.2319V17.2331C6.38057 17.3427 6.38134 17.4543 6.38359 17.5682V17.5746V17.5775L6.37518 18.6502L1.85665 26.6298L1.80843 26.7149L1.78367 26.8096L1.73924 26.9795L1.69394 27.1527L1.73179 27.3278L1.76323 27.4732L1.78078 27.5543L1.81565 27.6297C1.96221 27.9463 2.25084 28.1765 2.59734 28.2449L2.5986 28.2452L2.61361 28.2481L5.66736 29.0903L6.56495 37.7493L6.56513 37.7607H6.56506L6.56535 37.7707C6.58513 38.4581 6.89108 39.1057 7.40911 39.5565L7.40931 39.5567C7.85773 39.9466 8.43066 40.1595 9.01992 40.1595H9.04087L9.0618 40.1583L9.25389 40.1476L9.27426 40.1464L9.29455 40.1442L9.33382 40.1398L11.5085 40.3133L11.563 40.3176L11.6174 40.314C11.6346 40.3129 11.6506 40.3116 11.6628 40.3107L11.6931 40.3083C11.7095 40.3071 11.7127 40.3072 11.7105 40.3072C12.1864 40.3072 12.6504 40.4819 13.0096 40.8048L13.0103 40.8054C13.4231 41.1754 13.6582 41.7019 13.6582 42.2548V47.6484V48.3984H14.4082H30.6973H31.4473V47.6484V47.6412V47.634V47.6268V47.6196V47.6124V47.6052V47.598V47.5908V47.5836V47.5764V47.5692V47.5619V47.5547V47.5475V47.5403V47.5331V47.5259V47.5187V47.5115V47.5043V47.4971V47.4899V47.4827V47.4755V47.4683V47.4611V47.4539V47.4467V47.4395V47.4323V47.4251V47.4179V47.4107V47.4035V47.3963V47.3891V47.3819V47.3747V47.3675V47.3603V47.3531V47.3459V47.3387V47.3315V47.3243V47.3171V47.3099V47.3027V47.2955V47.2883V47.2812V47.274V47.2668V47.2596V47.2524V47.2452V47.238V47.2309V47.2237V47.2165V47.2093V47.2022V47.195V47.1878V47.1806V47.1735V47.1663V47.1591V47.1519V47.1448V47.1376V47.1304V47.1233V47.1161V47.109V47.1018V47.0946V47.0875V47.0803V47.0732V47.066V47.0589V47.0517V47.0446V47.0374V47.0303V47.0231V47.016V47.0088V47.0017V46.9946V46.9874V46.9803V46.9731V46.966V46.9589V46.9518V46.9446V46.9375V46.9304V46.9233V46.9161V46.909V46.9019V46.8948V46.8877V46.8806V46.8735V46.8664V46.8593V46.8522V46.8451V46.838V46.8309V46.8238V46.8167V46.8096V46.8025V46.7954V46.7883V46.7812V46.7742V46.7671V46.76V46.7529V46.7459V46.7388V46.7317V46.7247V46.7176V46.7106V46.7035V46.6964V46.6894V46.6823V46.6753V46.6683V46.6612V46.6542V46.6471V46.6401V46.6331V46.626V46.619V46.612V46.605V46.598V46.5909V46.5839V46.5769V46.5699V46.5629V46.5559V46.5489V46.5419V46.5349V46.5279V46.5209V46.514V46.507V46.5V46.493V46.486V46.4791V46.4721V46.4651V46.4582V46.4512V46.4443V46.4373V46.4304V46.4234V46.4165V46.4095V46.4026V46.3957V46.3887V46.3818V46.3749V46.368V46.3611V46.3541V46.3472V46.3403V46.3334V46.3265V46.3196V46.3127V46.3058V46.299V46.2921V46.2852V46.2783V46.2715V46.2646V46.2577V46.2509V46.244V46.2371V46.2303V46.2234V46.2166V46.2098V46.2029V46.1961V46.1893V46.1824V46.1756V46.1688V46.162V46.1552V46.1484V46.1416V46.1348V46.128V46.1212V46.1144V46.1076V46.1009V46.0941V46.0873V46.0806V46.0738V46.067V46.0603V46.0535V46.0468V46.0401V46.0333V46.0266V46.0199V46.0131V46.0064V45.9997V45.993V45.9863V45.9796V45.9729V45.9662V45.9595V45.9528V45.9462V45.9395V45.9328V45.9261V45.9195V45.9128V45.9062V45.8995V45.8929V45.8862V45.8796V45.873V45.8664V45.8597V45.8531V45.8465V45.8399V45.8333V45.8267V45.8201V45.8135V45.807V45.8004V45.7938V45.7872V45.7807V45.7741V45.7676V45.761V45.7545V45.7479V45.7414V45.7349V45.7284V45.7219V45.7153V45.7088V45.7023V45.6958V45.6893V45.6829V45.6764V45.6699V45.6634V45.657V45.6505V45.6441V45.6376V45.6312V45.6247V45.6183V45.6119V45.6054V45.599V45.5926V45.5862V45.5798V45.5734V45.567V45.5606V45.5543V45.5479V45.5415V45.5352V45.5288V45.5225V45.5161V45.5098V45.5035V45.4971V45.4908V45.4845V45.4782V45.4719V45.4656V45.4593V45.453V45.4467V45.4405V45.4342V45.4279V45.4217V45.4154V45.4092V45.4029V45.3967V45.3905V45.3843V45.3781V45.3718V45.3656V45.3595V45.3533V45.3471V45.3409V45.3347V45.3286V45.3224V45.3163V45.3101V45.304V45.2978V45.2917V45.2856V45.2795V45.2734V45.2673V45.2612V45.2551V45.249V45.243V45.2369V45.2308V45.2248V45.2187V45.2127V45.2066V45.2006V45.1946V45.1886V45.1826V45.1766V45.1706V45.1646V45.1586V45.1526V45.1467V45.1407V45.1348V45.1288V45.1229V45.1169V45.111V45.1051V45.0992V45.0933V45.0874V45.0815V45.0756V45.0697V45.0639V45.058V45.0521V45.0463V45.0405V45.0346V45.0288V45.023V45.0172V45.0114V45.0056V44.9998V44.994V44.9882V44.9825V44.9767V44.9709V44.9652V44.9595V44.9537V44.948V44.9423V44.9366V44.9309V44.9252V44.9195V44.9138V44.9081V44.9025V44.8968V44.8912V44.8855V44.8799V44.8743V44.8687V44.8631V44.8575V44.8519V44.8463V44.8407V44.8351V44.8296V44.824V44.8185V44.8129V44.8074V44.8019V44.7964V44.7909V44.7854V44.7799V44.7744V44.7689V44.7634V44.758V44.7525V44.7471V44.7417V44.7362V44.7308V44.7254V44.72V44.7146V44.7092V44.7039V44.6985V44.6931V44.6878V44.6824V44.6771V44.6718V44.6665V44.6612V44.6559V44.6506V44.6453V44.64V44.6347V44.6295V44.6242V44.619V44.6138V44.6085V44.6033V44.5981V44.5929V44.5877V44.5826V44.5774V44.5722V44.5671V44.5619V44.5568V44.5517V44.5465V44.5414V44.5363V44.5312V44.5262V44.5211V44.516V44.511V44.5059V44.5009V44.4959V44.4908V44.4858V44.4808V44.4758V44.4708V44.4659V44.4609V44.456V44.451V44.4461V44.4411V44.4362V44.4313V44.4264V44.4215V44.4166V44.4118V44.4069V44.4021V44.3972V44.3924V44.3876V44.3827V44.3779V44.3731V44.3694C31.448 43.8479 31.5107 43.1462 31.6356 42.351C31.7608 41.5609 31.9417 40.7258 32.1901 39.971C32.3585 39.4636 32.5437 39.0205 32.7829 38.6345C33.566 37.3913 34.4424 36.3163 35.3445 35.2375C35.4329 35.1318 35.5216 35.0259 35.6106 34.9197C36.422 33.9518 37.2518 32.962 38.0019 31.8658C38.0019 31.8657 38.0019 31.8657 38.002 31.8656L37.383 31.4421M23.9154 1.61023L11.833 6.38984C14.7373 3.82002 18.793 2.35176 23.3147 2.35176C23.7457 2.35176 24.1806 2.36553 24.6185 2.39238C30.0328 2.73301 34.0187 4.89326 36.7201 8.03252C39.417 11.1741 40.8156 15.3468 40.8156 19.7194C40.8156 20.2941 40.7919 20.8721 40.7429 21.4516C40.3349 26.2245 38.9998 29.0805 37.383 31.4421M23.9154 1.61023L23.9425 1.1725L25.4397 1.26519L25.4126 1.7028L23.9154 1.61023ZM37.383 31.4421C36.6548 32.5063 35.8489 33.4678 35.0344 34.4396C34.0432 35.6223 33.0392 36.8202 32.1471 38.2367C31.8639 38.693 31.6563 39.1982 31.478 39.7355L37.383 31.4421ZM37.936 6.98954L37.9354 6.98883C34.9736 3.52566 30.5031 1.14282 24.7187 0.793755L24.7178 0.793705C24.2465 0.764731 23.7781 0.75 23.3147 0.75C18.448 0.75 14.0079 2.32982 10.772 5.19016L10.7711 5.19096C7.54298 8.03514 5.5217 12.2044 5.529 17.2318L5.52901 17.2329C5.529 17.3484 5.52977 17.4621 5.5319 17.5755L5.53209 17.5857L5.532 17.5959L5.52673 18.2281L5.52511 18.4224L5.42939 18.5914L1.11559 26.2094C1.1155 26.2096 1.1154 26.2097 1.11531 26.2099C0.94783 26.5069 0.863281 26.8381 0.863281 27.169C0.863281 27.4456 0.92201 27.723 1.04058 27.9813L1.04081 27.9818C1.28979 28.5251 1.78215 28.9215 2.37333 29.0587L3.10151 29.2276L3.09328 29.2636L4.38561 29.6196L4.87959 29.7557L4.93243 30.2653L5.63716 37.0627L5.68502 37.0566L5.72553 37.8652C5.77074 38.7679 6.17279 39.6096 6.84967 40.1982L6.85011 40.1986C7.45454 40.7251 8.22618 41.0108 9.01992 41.0108C9.06809 41.0108 9.11104 41.0077 9.18127 41.0025C9.20465 41.0007 9.23107 40.9988 9.2617 40.9966L9.31745 40.9928L9.37317 40.9972L11.5512 41.1699L11.5939 41.1653L11.6179 41.1627L11.6421 41.1616L11.678 41.1601L11.6943 41.1594H11.7106C11.9776 41.1594 12.2382 41.2555 12.4415 41.4386L12.4632 41.4582L12.4727 41.4682C12.6846 41.6729 12.8066 41.9578 12.8066 42.2547V49.25H32.2988V48.8242V48.8241V48.8239V48.8236V48.8233V48.8229V48.8224V48.8219V48.8213V48.8206V48.8199V48.819V48.8181V48.8172V48.8161V48.815V48.8139V48.8126V48.8113V48.8099V48.8085V48.807V48.8054V48.8037V48.802V48.8002V48.7984V48.7965V48.7945V48.7924V48.7903V48.7881V48.7859V48.7836V48.7812V48.7788V48.7762V48.7737V48.771V48.7683V48.7656V48.7627V48.7598V48.7569V48.7539V48.7508V48.7476V48.7444V48.7412V48.7378V48.7344V48.731V48.7275V48.7239V48.7203V48.7166V48.7128V48.709V48.7051V48.7012V48.6972V48.6932V48.689V48.6849V48.6806V48.6764V48.672V48.6676V48.6632V48.6586V48.6541V48.6494V48.6448V48.64V48.6352V48.6304V48.6254V48.6205V48.6155V48.6104V48.6053V48.6001V48.5948V48.5895V48.5842V48.5788V48.5733V48.5678V48.5623V48.5567V48.551V48.5453V48.5395V48.5337V48.5278V48.5219V48.5159V48.5099V48.5038V48.4977V48.4915V48.4853V48.479V48.4727V48.4663V48.4599V48.4534V48.4469V48.4403V48.4337V48.4271V48.4204V48.4136V48.4068V48.3999V48.393V48.3861V48.3791V48.3721V48.365V48.3578V48.3507V48.3435V48.3362V48.3289V48.3215V48.3141V48.3067V48.2992V48.2917V48.2841V48.2765V48.2688V48.2611V48.2534V48.2456V48.2378V48.2299V48.222V48.214V48.206V48.198V48.1899V48.1818V48.1737V48.1655V48.1572V48.149V48.1407V48.1323V48.1239V48.1155V48.107V48.0985V48.09V48.0814V48.0728V48.0641V48.0554V48.0467V48.0379V48.0291V48.0203V48.0114V48.0025V47.9936V47.9846V47.9756V47.9665V47.9574V47.9483V47.9392V47.93V47.9208V47.9115V47.9022V47.8929V47.8836V47.8742V47.8648V47.8553V47.8459V47.8364V47.8268V47.8172V47.8076V47.798V47.7884V47.7787V47.7689V47.7592V47.7494V47.7396V47.7298V47.7199V47.71V47.7001V47.6901V47.6801V47.6701V47.6601V47.65V47.6399V47.6298V47.6197V47.6095V47.5993V47.5891V47.5789V47.5686V47.5583V47.548V47.5376V47.5273V47.5169V47.5065V47.496V47.4855V47.4751V47.4646V47.454V47.4435V47.4329V47.4223V47.4117V47.401V47.3904V47.3797V47.369V47.3582V47.3475V47.3367V47.3259V47.3151V47.3043V47.2934V47.2826V47.2717V47.2608V47.2499V47.2389V47.228V47.217V47.206V47.195V47.184V47.1729V47.1619V47.1508V47.1397V47.1286V47.1175V47.1063V47.0952V47.084V47.0728V47.0616V47.0504V47.0392V47.0279V47.0167V47.0054V46.9941V46.9828V46.9715V46.9602V46.9489V46.9375V46.9261V46.9148V46.9034V46.892V46.8806V46.8692V46.8578V46.8463V46.8349V46.8234V46.812V46.8005V46.789V46.7775V46.766V46.7545V46.743V46.7315V46.72V46.7084V46.6969V46.6853V46.6738V46.6622V46.6506V46.6391V46.6275V46.6159V46.6043V46.5927V46.5811V46.5695V46.5579V46.5462V46.5346V46.523V46.5114V46.4997V46.4881V46.4765V46.4648V46.4532V46.4415V46.4299V46.4182V46.4066V46.3949V46.3833V46.3716V46.3599V46.3483V46.3366V46.325V46.3133V46.3017V46.29V46.2784V46.2667V46.2551V46.2434V46.2318V46.2201V46.2085V46.1968V46.1852V46.1735V46.1619V46.1503V46.1387V46.127V46.1154V46.1038V46.0922V46.0806V46.069V46.0574V46.0458V46.0342V46.0227V46.0111V45.9995V45.988V45.9764V45.9649V45.9534V45.9418V45.9303V45.9188V45.9073V45.8958V45.8843V45.8728V45.8614V45.8499V45.8385V45.827V45.8156V45.8042V45.7928V45.7814V45.77V45.7586V45.7472V45.7359V45.7246V45.7132V45.7019V45.6906V45.6793V45.668V45.6568V45.6455V45.6343V45.6231V45.6119V45.6007V45.5895V45.5783V45.5672V45.556V45.5449V45.5338V45.5227V45.5117V45.5006V45.4896V45.4785V45.4675V45.4566V45.4456V45.4346V45.4237V45.4128V45.4019V45.391V45.3802V45.3693V45.3585V45.3477V45.3369V45.3262V45.3154V45.3047V45.294V45.2833V45.2727V45.262V45.2514V45.2408V45.2303V45.2197V45.2092V45.1987V45.1882V45.1778V45.1673V45.1569V45.1465V45.1362V45.1259V45.1155V45.1053V45.095V45.0848V45.0746V45.0644V45.0542V45.0441V45.034V45.0239V45.0139V45.0038V44.9938V44.9839V44.9739V44.964V44.9541V44.9443V44.9344V44.9247V44.9149V44.9051V44.8954V44.8858V44.8761V44.8665V44.8569V44.8473V44.8378V44.8283V44.8189V44.8094V44.8V44.7907V44.7813V44.772V44.7628V44.7535V44.7443V44.7351V44.726V44.7169V44.7078V44.6988V44.6898V44.6808V44.6719V44.663V44.6542V44.6453V44.6366V44.6278V44.6191V44.6104V44.6018V44.5932V44.5846V44.5761V44.5676V44.5591V44.5507V44.5424V44.534V44.5257V44.5175V44.5093V44.5011V44.4929V44.4848V44.4768V44.4688V44.4608V44.4529V44.445V44.4371V44.4293V44.4215V44.4138V44.4061V44.3985V44.3909V44.3833V44.3758V44.3701C32.2964 43.7925 32.4067 42.7293 32.6142 41.7201C32.6142 41.7199 32.6143 41.7196 32.6143 41.7194L33.3489 41.8705C33.4484 41.3814 33.5716 40.8937 33.711 40.4721L37.936 6.98954ZM37.936 6.98954C40.9117 10.4602 42.4172 15.0077 42.4172 19.7195C42.4172 20.3392 42.3912 20.9623 42.3393 21.5855L42.3392 21.5864C41.9288 26.5831 40.4381 29.8424 38.7031 32.3488C37.877 33.5419 37.0148 34.5721 36.1688 35.583C36.1127 35.65 36.0566 35.717 36.0007 35.7839C35.1099 36.8492 34.2354 37.9101 33.506 39.085C33.3262 39.3686 33.1449 39.7908 32.9985 40.2379L37.936 6.98954Z" stroke="#F5F5F5" stroke-width="1.5"/>
</svg>
