<svg width="50" height="50" viewBox="0 0 50 50" fill="none" xmlns="http://www.w3.org/2000/svg">
<path d="M40.0709 14.9457C39.9461 14.8194 39.8061 14.7038 39.6521 14.6012L39.4944 14.5683C39.4118 14.5324 39.346 14.4734 39.303 14.4021C39.0565 14.2858 38.7985 14.2108 38.536 14.1733C38.3094 14.1418 38.1502 13.9314 38.1831 13.7032C38.2137 13.475 38.4257 13.3159 38.6523 13.3472C38.9119 13.3855 39.1721 13.4514 39.4217 13.5494C39.4622 13.3671 39.4852 13.1811 39.4852 12.9936C39.4844 12.5833 39.388 12.1691 39.1828 11.7794C38.9485 11.3339 38.6049 10.9864 38.2029 10.7492C37.8508 10.541 37.4527 10.4169 37.0439 10.3878C37.0142 10.7606 36.9254 11.1319 36.7707 11.4917C36.6788 11.7029 36.4347 11.8001 36.2227 11.709C36.0113 11.6187 35.9134 11.3738 36.0045 11.1625C36.1529 10.8158 36.2227 10.459 36.2242 10.1053L36.2188 9.95454C36.1905 9.4646 36.0282 8.99155 35.7519 8.58814C35.4755 8.1854 35.0882 7.85552 34.606 7.64653C34.26 7.49878 33.9017 7.42915 33.5487 7.42915C32.8728 7.42915 32.2183 7.6895 31.7238 8.14868C31.8164 8.46333 31.8692 8.79478 31.8692 9.13931C31.8692 9.36899 31.681 9.55571 31.4513 9.55571C31.2216 9.55571 31.0341 9.36899 31.0341 9.13931C31.0341 8.80171 30.9721 8.48169 30.8588 8.18394C30.6666 7.68257 30.3275 7.25083 29.892 6.94614C29.4579 6.64155 28.932 6.46313 28.3595 6.46313C27.8627 6.46313 27.3995 6.59868 27.0015 6.83286C26.683 7.02114 26.4082 7.27534 26.1924 7.57388C26.6142 8.15181 26.8637 8.86606 26.8637 9.63618C26.8637 9.86577 26.6762 10.0518 26.4457 10.0518C26.216 10.0518 26.0285 9.86577 26.0285 9.63618C26.0285 8.95952 25.7797 8.34399 25.3656 7.87319C24.8742 7.31206 24.1569 6.96079 23.3531 6.96079C22.7951 6.96079 22.2814 7.12993 21.852 7.42085C21.424 7.71177 21.0834 8.12358 20.882 8.60737C20.752 8.92349 20.6776 9.27183 20.6776 9.63618C20.6776 9.86577 20.4916 10.0518 20.2612 10.0518C20.0308 10.0518 19.8448 9.86577 19.8448 9.63618C19.8448 9.2978 19.8938 8.97173 19.9826 8.66089C19.6688 8.53384 19.3289 8.46343 18.9799 8.46343C18.7816 8.46343 18.5826 8.48638 18.3805 8.53159C17.7864 8.6686 17.2896 8.98862 16.926 9.42183C16.6642 9.73423 16.4773 10.1054 16.3802 10.5042C17.2414 10.5195 18.1018 10.8525 18.7663 11.5032C18.9302 11.6647 18.9332 11.9281 18.7725 12.0918C18.6109 12.2572 18.3476 12.2587 18.183 12.0987C17.6609 11.5897 16.9881 11.3347 16.3113 11.3339C16.1904 11.3339 16.0694 11.3423 15.9484 11.3577H15.947C15.3798 11.4365 14.8324 11.6952 14.3983 12.1377C13.8885 12.6583 13.6358 13.3304 13.6352 14.0086C13.6352 14.3953 13.7193 14.7848 13.8877 15.1431C14.0186 15.4255 14.2023 15.6889 14.4396 15.9201C14.7076 16.1834 15.0169 16.3786 15.3469 16.5056C15.5604 16.5891 15.6684 16.8302 15.5842 17.0445C15.5008 17.2604 15.2604 17.3676 15.0453 17.2833C14.6144 17.1165 14.2071 16.8609 13.8549 16.5156C13.7011 16.364 13.564 16.2025 13.4424 16.0311C13.1277 16.482 12.957 17.0215 12.957 17.5712C12.957 17.9969 13.0589 18.4263 13.2739 18.8297C13.5158 19.2814 13.8657 19.6335 14.2775 19.8739C14.6028 20.0645 14.9665 20.1847 15.3416 20.2268L15.3408 20.2015C15.3408 19.981 15.3615 19.7652 15.399 19.5554C15.4419 19.3289 15.6601 19.181 15.8852 19.2216C16.1117 19.2637 16.261 19.4811 16.2204 19.7077C16.1905 19.8676 16.1745 20.0337 16.1745 20.2014L16.1813 20.3952L16.2035 20.5904V20.5926L16.2043 20.5964C16.3957 21.904 17.5256 22.8814 18.8483 22.8814L19.0405 22.8738C19.6269 22.8317 20.1543 22.605 20.5723 22.2522C20.8654 22.0049 21.1058 21.695 21.2704 21.3458C21.3676 21.1368 21.6179 21.0481 21.8254 21.1467C22.0336 21.2448 22.1225 21.4927 22.0244 21.701C21.8461 22.0769 21.6026 22.416 21.3103 22.7045C21.474 23.2083 21.7817 23.6408 22.1837 23.9623C22.6431 24.3305 23.2225 24.5479 23.8486 24.5479L24.0416 24.5403C24.4381 24.512 24.8056 24.3979 25.131 24.2203C25.0804 23.9807 25.0514 23.7358 25.0514 23.4877C25.0514 22.9763 25.1654 22.455 25.4012 21.9651C25.5015 21.7577 25.7502 21.6711 25.9569 21.7714C26.1644 21.8702 26.2524 22.1198 26.1521 22.3272C25.9707 22.7031 25.8857 23.0981 25.8857 23.4877C25.8857 23.7602 25.9278 24.032 26.009 24.2899C26.2226 24.9705 26.7057 25.5653 27.3999 25.899C27.775 26.0804 28.17 26.1654 28.5589 26.1654C29.1767 26.1654 29.7807 25.9495 30.2599 25.5583L30.2614 25.5576C30.5523 25.3179 30.7958 25.0148 30.971 24.6527L30.9718 24.6511C31.1349 24.3128 31.2206 23.9584 31.2351 23.6047C31.2458 23.375 31.4395 23.1959 31.6706 23.2067C31.9003 23.2167 32.0778 23.411 32.0679 23.6407C32.0479 24.1045 31.9355 24.573 31.7219 25.0147C31.5504 25.3722 31.3246 25.6861 31.0598 25.9547C31.5512 26.6605 32.3687 27.1053 33.2529 27.1045C33.4167 27.1045 33.5836 27.0893 33.7513 27.0571C34.395 26.9362 34.9378 26.5955 35.3236 26.127C35.7087 25.6577 35.933 25.0614 35.933 24.4321L35.9322 24.3755V24.3724C35.9292 24.2308 35.9146 24.0824 35.8871 23.933C35.8205 23.5786 35.685 23.257 35.499 22.973C35.2296 22.7357 34.9303 22.4257 34.6479 22.0812C34.347 21.7138 34.0699 21.3119 33.8839 20.907C33.7614 20.636 33.6741 20.362 33.6726 20.0734C33.6726 19.9456 33.6901 19.8131 33.7384 19.6861C33.7851 19.5567 33.8616 19.4342 33.9642 19.3332C34.1265 19.1716 34.3897 19.1716 34.5528 19.3332C34.7151 19.4969 34.7151 19.7618 34.5528 19.9234L34.5214 19.9732L34.5054 20.0735C34.5038 20.1784 34.5475 20.356 34.6416 20.5603C34.735 20.764 34.8735 20.9928 35.0366 21.2186C35.3597 21.671 35.7784 22.1151 36.0938 22.386L36.1366 22.4228L36.1681 22.4695C36.4261 22.8538 36.6151 23.2962 36.7062 23.7792L36.736 23.9867L36.8608 23.992C37.3891 23.9913 37.921 23.8351 38.3888 23.5067C38.7608 23.2449 39.044 22.9088 39.2354 22.5314C39.4275 22.1533 39.5278 21.7353 39.5278 21.3143C39.5278 20.9201 39.439 20.5243 39.2614 20.1561C39.0968 20.2089 38.9299 20.251 38.7607 20.2801C38.5342 20.3207 38.319 20.1667 38.2785 19.9403C38.2401 19.7129 38.3934 19.4986 38.6199 19.4587C39.3578 19.3317 40.0338 18.9015 40.4518 18.211C40.7166 17.777 40.8414 17.2993 40.8414 16.827C40.8414 16.1311 40.5727 15.4506 40.0721 14.9461L40.0709 14.9457ZM20.974 11.7658C21.3721 11.295 21.9003 10.9604 22.4683 10.7415C23.0386 10.5225 23.6494 10.4176 24.2358 10.4176C24.8062 10.4184 25.3542 10.5149 25.8196 10.7308C26.0278 10.8256 26.1189 11.0745 26.0225 11.2834C25.9268 11.4917 25.6795 11.5835 25.469 11.4872C25.1476 11.3364 24.7073 11.2499 24.2358 11.2499C23.7505 11.2499 23.2331 11.3393 22.7684 11.5201C22.3037 11.6984 21.8957 11.9648 21.6086 12.3032C21.4616 12.4792 21.1976 12.5022 21.0215 12.3522C20.8462 12.2037 20.824 11.9411 20.974 11.7658ZM30.4601 21.6208C29.9755 21.6208 29.536 21.5657 29.135 21.4731C29.1457 21.5878 29.1533 21.7157 29.1533 21.8512C29.1533 22.123 29.1234 22.4336 29.0385 22.7598C28.9527 23.0851 28.8081 23.4273 28.58 23.7557C28.4491 23.9456 28.1896 23.9922 28.0005 23.8613C27.8106 23.7303 27.7647 23.4716 27.894 23.281C28.0624 23.0383 28.1673 22.7903 28.2316 22.5461C28.296 22.302 28.3197 22.0646 28.3197 21.8511C28.3205 21.5564 28.2753 21.3137 28.2432 21.1751C28.0396 21.0833 27.852 20.9799 27.6768 20.8643C26.9786 20.4126 26.5117 19.8164 26.2185 19.2491C26.0218 18.8686 25.9022 18.5012 25.838 18.182C25.8013 17.9998 25.7829 17.8345 25.7829 17.6843C25.7829 17.4532 25.9697 17.2664 26.2001 17.2664C26.4305 17.2664 26.6173 17.4532 26.6173 17.6843C26.6165 17.8052 26.6426 18.0082 26.7084 18.2386C26.7742 18.4698 26.8791 18.7324 27.0307 18.9964C27.3346 19.5277 27.8176 20.0597 28.5632 20.405C29.0615 20.6362 29.6815 20.7862 30.4601 20.7862C30.6904 20.7862 30.8772 20.973 30.8772 21.2034C30.8772 21.434 30.6905 21.6208 30.4601 21.6208ZM33.395 18.5771C33.3093 18.79 33.0666 18.8941 32.8522 18.809C32.6387 18.7233 32.5361 18.4822 32.6203 18.2686L32.6227 18.2617L32.635 18.225L32.6778 18.075C32.7093 17.9433 32.7414 17.7573 32.7414 17.5529L32.7406 17.5238C32.1681 17.7182 31.6368 17.8054 31.1477 17.8054C30.4082 17.807 29.7683 17.6042 29.2477 17.2964C28.7264 16.9888 28.3207 16.5815 28.0175 16.1673C27.673 15.6981 27.2214 15.2771 26.7039 14.9793C26.185 14.6807 25.6047 14.5032 24.9885 14.5016C24.4488 14.5032 23.8747 14.6378 23.2753 14.967C22.7065 15.2793 22.3406 15.695 22.1041 16.1512C21.8691 16.6083 21.7696 17.1073 21.7703 17.5621C21.7687 17.9831 21.8576 18.3642 21.9731 18.6046C22.0719 18.8128 21.9823 19.0609 21.7749 19.1596C21.5675 19.2584 21.3187 19.1688 21.2199 18.9614C21.0385 18.577 20.9375 18.0932 20.9359 17.5621C20.9367 17.0338 21.0416 16.4566 21.2996 15.9047C20.7822 16.0219 20.3015 16.074 19.8636 16.074C19.6271 16.074 19.4042 16.0586 19.1922 16.0311L19.1148 16.1873L19.1141 16.1887L19.1079 16.195L19.0857 16.2233L18.9969 16.3442C18.9211 16.453 18.8162 16.6114 18.7021 16.8134C18.4748 17.2138 18.2146 17.7788 18.0882 18.4132C18.0431 18.6391 17.8241 18.7869 17.5982 18.7409C17.3725 18.6958 17.2254 18.4768 17.2722 18.2495C17.4222 17.4969 17.7186 16.857 17.9765 16.4015C18.1111 16.1658 18.2345 15.9791 18.3247 15.8519C17.9849 15.7501 17.6909 15.6253 17.4506 15.4982C16.9018 15.2065 16.6161 14.9141 16.5917 14.8904C16.4324 14.7243 16.437 14.4609 16.6023 14.3009C16.7685 14.1417 17.0311 14.1463 17.191 14.3101L17.1957 14.3147L17.2201 14.3384L17.3396 14.4386C17.4481 14.5244 17.6159 14.6423 17.8401 14.7617C18.2902 14.999 18.9624 15.2394 19.8634 15.241C20.4964 15.241 21.2428 15.1201 22.1101 14.7863C22.3298 14.5819 22.5831 14.3952 22.874 14.2359C23.5875 13.8448 24.3062 13.6687 24.9883 13.6687C25.7676 13.6687 26.4925 13.8954 27.1202 14.2566C27.7479 14.6195 28.28 15.1163 28.6895 15.675C28.9383 16.0125 29.2651 16.3395 29.6701 16.5775C30.0773 16.8164 30.5588 16.9718 31.1475 16.9725C31.5509 16.9725 32.0056 16.8975 32.52 16.7168C32.3945 16.5155 32.2077 16.321 31.9 16.145C31.6994 16.0309 31.6282 15.7768 31.7415 15.577C31.8556 15.3756 32.109 15.3067 32.3095 15.4185C32.8024 15.6964 33.1324 16.0646 33.3237 16.4497C33.5174 16.8332 33.5748 17.222 33.5748 17.5528C33.5726 18.1301 33.4064 18.5473 33.395 18.5771ZM33.2389 13.4706C32.2651 13.4706 31.4132 13.208 30.7242 12.8107C30.6271 12.9455 30.4969 13.1146 30.3292 13.2983C29.9519 13.7125 29.3976 14.1986 28.6559 14.4649C28.4377 14.5415 28.2004 14.4297 28.123 14.2124C28.0457 13.9949 28.1598 13.7569 28.3749 13.6803C28.9223 13.4851 29.38 13.1016 29.697 12.7548C29.8439 12.5963 29.958 12.4463 30.0407 12.3315C29.6296 11.984 29.3051 11.5882 29.0823 11.181C28.8711 10.7906 28.7485 10.3879 28.7471 9.99673C28.7471 9.76714 28.9339 9.58032 29.1643 9.58032C29.3939 9.58032 29.5807 9.76714 29.5807 9.99673C29.5791 10.2073 29.6526 10.4882 29.8148 10.783C29.9748 11.0784 30.2183 11.3861 30.5367 11.6618C31.1736 12.2137 32.093 12.6362 33.239 12.6362C33.4693 12.6362 33.6554 12.8238 33.6554 13.0542C33.6553 13.2837 33.4692 13.4706 33.2389 13.4706ZM36.5243 19.3396C36.3781 19.5157 36.1147 19.5417 35.9372 19.3939C35.7597 19.2477 35.7352 18.9844 35.8806 18.8076C36.3353 18.2556 36.5029 17.6999 36.5044 17.1679C36.506 16.6833 36.3574 16.2156 36.1247 15.8214C35.895 15.4279 35.5774 15.1125 35.272 14.9373C35.0668 14.8194 34.8739 14.7666 34.7208 14.7666C34.4903 14.7666 34.3044 14.5806 34.3044 14.3501C34.3044 14.1198 34.4904 13.933 34.7208 13.933C34.9741 13.933 35.2222 13.995 35.458 14.0991C35.693 14.2017 35.915 14.3479 36.1217 14.5263C36.5343 14.883 36.8849 15.3683 37.1054 15.9372C37.2508 16.3167 37.3396 16.7333 37.3396 17.168C37.3403 17.8829 37.0962 18.6483 36.5243 19.3396Z" fill="#F5F5F5"/>
<path d="M41.2954 6.98954L41.2948 6.98883C38.333 3.52566 33.8625 1.14282 28.0781 0.793755L28.0772 0.793705C27.6059 0.764731 27.1375 0.75 26.6741 0.75C21.8074 0.75 17.3672 2.32982 14.1314 5.19016L14.1305 5.19096C10.9024 8.03514 8.88107 12.2044 8.88838 17.2318L8.88838 17.2329C8.88838 17.3484 8.88914 17.4621 8.89127 17.5755L8.89146 17.5857L8.89138 17.5959L8.88611 18.2281L8.88449 18.4224L8.78876 18.5914L4.47497 26.2094C4.47488 26.2095 4.47479 26.2097 4.47471 26.2098C4.30721 26.5069 4.22266 26.8381 4.22266 27.169C4.22266 27.4456 4.28139 27.723 4.39996 27.9813L4.40018 27.9818C4.64917 28.5251 5.14152 28.9215 5.73271 29.0587L6.46088 29.2276L6.45266 29.2636L7.74499 29.6196L8.23896 29.7557L8.2918 30.2653L8.99654 37.0627L9.0444 37.0566L9.0849 37.8652C9.13012 38.7679 9.53216 39.6096 10.209 40.1982L10.2095 40.1986C10.8139 40.7251 11.5856 41.0108 12.3793 41.0108C12.4275 41.0108 12.4704 41.0077 12.5406 41.0025C12.564 41.0007 12.5904 40.9988 12.6211 40.9966L12.6768 40.9928L12.7325 40.9972L14.9106 41.1699L14.9532 41.1653L14.9773 41.1627L15.0015 41.1616L15.0374 41.1601L15.0537 41.1594H15.07C15.337 41.1594 15.5975 41.2555 15.8009 41.4386L15.8225 41.4582L15.8321 41.4682C16.044 41.6729 16.166 41.9578 16.166 42.2547V49.25H35.6582V48.8242V48.8241V48.8239V48.8236V48.8233V48.8229V48.8224V48.8219V48.8213V48.8206V48.8199V48.819V48.8181V48.8172V48.8161V48.815V48.8139V48.8126V48.8113V48.8099V48.8085V48.807V48.8054V48.8037V48.802V48.8002V48.7984V48.7965V48.7945V48.7924V48.7903V48.7881V48.7859V48.7836V48.7812V48.7788V48.7762V48.7737V48.771V48.7683V48.7656V48.7627V48.7598V48.7569V48.7539V48.7508V48.7476V48.7444V48.7412V48.7378V48.7344V48.731V48.7275V48.7239V48.7203V48.7166V48.7128V48.709V48.7051V48.7012V48.6972V48.6932V48.689V48.6849V48.6806V48.6764V48.672V48.6676V48.6632V48.6586V48.6541V48.6494V48.6448V48.64V48.6352V48.6304V48.6254V48.6205V48.6155V48.6104V48.6053V48.6001V48.5948V48.5895V48.5842V48.5788V48.5733V48.5678V48.5623V48.5567V48.551V48.5453V48.5395V48.5337V48.5278V48.5219V48.5159V48.5099V48.5038V48.4977V48.4915V48.4853V48.479V48.4727V48.4663V48.4599V48.4534V48.4469V48.4403V48.4337V48.4271V48.4204V48.4136V48.4068V48.3999V48.393V48.3861V48.3791V48.3721V48.365V48.3578V48.3507V48.3435V48.3362V48.3289V48.3215V48.3141V48.3067V48.2992V48.2917V48.2841V48.2765V48.2688V48.2611V48.2534V48.2456V48.2378V48.2299V48.222V48.214V48.206V48.198V48.1899V48.1818V48.1737V48.1655V48.1572V48.149V48.1407V48.1323V48.1239V48.1155V48.107V48.0985V48.09V48.0814V48.0728V48.0641V48.0554V48.0467V48.0379V48.0291V48.0203V48.0114V48.0025V47.9936V47.9846V47.9756V47.9665V47.9574V47.9483V47.9392V47.93V47.9208V47.9115V47.9022V47.8929V47.8836V47.8742V47.8648V47.8553V47.8459V47.8364V47.8268V47.8172V47.8076V47.798V47.7883V47.7787V47.7689V47.7592V47.7494V47.7396V47.7298V47.7199V47.71V47.7001V47.6901V47.6801V47.6701V47.6601V47.65V47.6399V47.6298V47.6197V47.6095V47.5993V47.5891V47.5789V47.5686V47.5583V47.548V47.5376V47.5273V47.5169V47.5065V47.496V47.4855V47.4751V47.4646V47.454V47.4435V47.4329V47.4223V47.4117V47.401V47.3904V47.3797V47.369V47.3582V47.3475V47.3367V47.3259V47.3151V47.3043V47.2934V47.2826V47.2717V47.2608V47.2499V47.2389V47.228V47.217V47.206V47.195V47.184V47.1729V47.1619V47.1508V47.1397V47.1286V47.1175V47.1063V47.0952V47.084V47.0728V47.0616V47.0504V47.0392V47.0279V47.0167V47.0054V46.9941V46.9828V46.9715V46.9602V46.9489V46.9375V46.9261V46.9148V46.9034V46.892V46.8806V46.8692V46.8578V46.8463V46.8349V46.8234V46.812V46.8005V46.789V46.7775V46.766V46.7545V46.743V46.7315V46.72V46.7084V46.6969V46.6853V46.6738V46.6622V46.6506V46.6391V46.6275V46.6159V46.6043V46.5927V46.5811V46.5695V46.5579V46.5462V46.5346V46.523V46.5114V46.4997V46.4881V46.4765V46.4648V46.4532V46.4415V46.4299V46.4182V46.4066V46.3949V46.3833V46.3716V46.3599V46.3483V46.3366V46.325V46.3133V46.3017V46.29V46.2784V46.2667V46.2551V46.2434V46.2318V46.2201V46.2085V46.1968V46.1852V46.1735V46.1619V46.1503V46.1387V46.127V46.1154V46.1038V46.0922V46.0806V46.069V46.0574V46.0458V46.0342V46.0227V46.0111V45.9995V45.988V45.9764V45.9649V45.9534V45.9418V45.9303V45.9188V45.9073V45.8958V45.8843V45.8728V45.8614V45.8499V45.8385V45.827V45.8156V45.8042V45.7928V45.7814V45.77V45.7586V45.7472V45.7359V45.7246V45.7132V45.7019V45.6906V45.6793V45.668V45.6568V45.6455V45.6343V45.6231V45.6119V45.6007V45.5895V45.5783V45.5672V45.556V45.5449V45.5338V45.5227V45.5117V45.5006V45.4896V45.4785V45.4675V45.4566V45.4456V45.4346V45.4237V45.4128V45.4019V45.391V45.3802V45.3693V45.3585V45.3477V45.3369V45.3262V45.3154V45.3047V45.294V45.2833V45.2727V45.262V45.2514V45.2408V45.2303V45.2197V45.2092V45.1987V45.1882V45.1778V45.1673V45.1569V45.1465V45.1362V45.1259V45.1155V45.1053V45.095V45.0848V45.0746V45.0644V45.0542V45.0441V45.034V45.0239V45.0139V45.0038V44.9938V44.9839V44.9739V44.964V44.9541V44.9443V44.9344V44.9247V44.9149V44.9051V44.8954V44.8858V44.8761V44.8665V44.8569V44.8473V44.8378V44.8283V44.8189V44.8094V44.8V44.7907V44.7813V44.772V44.7628V44.7535V44.7443V44.7351V44.726V44.7169V44.7078V44.6988V44.6898V44.6808V44.6719V44.663V44.6542V44.6453V44.6366V44.6278V44.6191V44.6104V44.6018V44.5932V44.5846V44.5761V44.5676V44.5591V44.5507V44.5424V44.534V44.5257V44.5175V44.5093V44.5011V44.4929V44.4848V44.4768V44.4688V44.4608V44.4529V44.445V44.4371V44.4293V44.4215V44.4138V44.4061V44.3985V44.3909V44.3833V44.3758V44.37C35.6558 43.7925 35.766 42.7293 35.9735 41.7201C35.9736 41.7199 35.9736 41.7196 35.9737 41.7194L36.7083 41.8705C36.8078 41.3814 36.931 40.8937 37.0704 40.4721L41.2954 6.98954ZM41.2954 6.98954C44.2711 10.4602 45.7766 15.0077 45.7766 19.7195C45.7766 20.3392 45.7506 20.9623 45.6987 21.5855L45.6986 21.5864C45.2882 26.5831 43.7975 29.8424 42.0625 32.3488C41.2364 33.5419 40.3742 34.5721 39.5281 35.583C39.472 35.65 39.416 35.717 39.3601 35.7839C38.4694 36.8492 37.5948 37.9099 36.8655 39.0848C36.6857 39.3684 36.5043 39.7907 36.3579 40.2379L41.2954 6.98954ZM44.8496 21.5148L44.8495 21.5154C44.4298 26.4251 43.0467 29.4039 41.3612 31.8658M44.8496 21.5148L40.7424 31.4421M44.8496 21.5148C44.9004 20.9138 44.925 20.3148 44.925 19.7194C44.925 15.1908 43.4765 10.8383 40.6486 7.544L40.648 7.54332C37.8078 4.24275 33.6299 1.99648 28.0249 1.64386L28.0237 1.64379C27.5712 1.61604 27.121 1.60176 26.6741 1.60176C21.993 1.60176 17.7536 3.12213 14.6954 5.82816L14.6944 5.829C11.6316 8.54832 9.74801 12.4057 9.73994 17.2319V17.2331C9.73994 17.3427 9.74071 17.4543 9.74297 17.5682V17.5746V17.5775L9.73455 18.6502L5.21602 26.6298L5.16781 26.7149L5.14305 26.8096L5.09862 26.9795L5.05331 27.1527L5.09116 27.3278L5.12261 27.4732L5.14016 27.5543L5.17502 27.6297C5.32159 27.9463 5.61021 28.1765 5.95671 28.2449L5.95797 28.2452L5.97298 28.2481L9.02673 29.0903L9.92433 37.7493L9.9245 37.7607H9.92444L9.92472 37.7707C9.94451 38.4581 10.2505 39.1057 10.7685 39.5565L10.7687 39.5567C11.2171 39.9466 11.79 40.1595 12.3793 40.1595H12.4002L12.4212 40.1583L12.6133 40.1476L12.6336 40.1464M44.8496 21.5148L12.6336 40.1464M41.3612 31.8658L40.7424 31.4421M41.3612 31.8658C41.3613 31.8657 41.3613 31.8657 41.3613 31.8656L40.7424 31.4421M41.3612 31.8658C40.6111 32.962 39.7814 33.9518 38.97 34.9198C38.881 35.0259 38.7922 35.1318 38.7038 35.2375C37.8018 36.3163 36.9254 37.3913 36.1423 38.6345M40.7424 31.4421C40.0142 32.5063 39.2083 33.4678 38.3938 34.4396C37.4025 35.6223 36.3986 36.8202 35.5064 38.2367C35.2232 38.693 35.0157 39.1982 34.8374 39.7355M36.1423 38.6345C36.1427 38.6338 36.1432 38.633 36.1437 38.6323L35.5065 38.2368L36.1411 38.6364C36.1415 38.6358 36.1419 38.6351 36.1423 38.6345ZM36.1423 38.6345C35.903 39.0205 35.7179 39.4636 35.5495 39.971M35.5495 39.971C35.5496 39.9707 35.5497 39.9704 35.5498 39.97L34.8374 39.7355M35.5495 39.971C35.5494 39.9712 35.5493 39.9715 35.5492 39.9718L34.8374 39.7355M35.5495 39.971L34.8374 39.7355M12.6336 40.1464L12.6539 40.1442M12.6336 40.1464L12.6539 40.1442M12.6539 40.1442L12.6932 40.1398L12.6539 40.1442ZM34.9949 42.351C34.995 42.3508 34.995 42.3507 34.995 42.3505L34.2541 42.2342L34.9949 42.3515C34.9949 42.3513 34.9949 42.3512 34.9949 42.351ZM34.8066 44.3694V44.3684H34.0566L34.8066 44.3694ZM15.0704 40.3072C15.0705 40.3072 15.0705 40.3072 15.0705 40.3072L15.0699 40.3072C15.0701 40.3072 15.0703 40.3072 15.0704 40.3072Z" stroke="#F5F5F5" stroke-width="1.5"/>
</svg>
