<svg fill="none" height="50" viewBox="0 0 44 50" width="44" xmlns="http://www.w3.org/2000/svg" xmlns:xlink="http://www.w3.org/1999/xlink"><mask id="a" fill="#fff"><path d="m38.8647 6.50137c-3.1011-3.62617-7.7652-6.095608-13.7415-6.4562528-.4861-.0298828-.9699-.0451172-1.4491-.0451172-5.0262 0-9.6499 1.63203-13.0394 4.62822-3.39193 2.98848-5.50394 7.36408-5.49632 12.60468 0 .1187.00078.2373.00303.3567l-.00528.6323-4.314353 7.6189c-.231933.4111-.349121.8696-.349121 1.3282 0 .3827.081251.767.245704 1.1252.34834.7602 1.0334 1.3068 1.84482 1.4951l-.00156.0068 1.98418.5466.78389 7.5608.00615-.0008c.05518 1.1016.54658 2.1358 1.38105 2.8615.7418.6461 1.68867.9966 2.66241.9966.09863 0 .19589-.0091.29394-.016l2.24826.1783.1126-.0122.0359-.0015c.0864 0 .1669.0306.2289.0865l.0037.0039c.0713.0643.1134.1584.1134.2549v7.7453h20.9922v-1.1758s0-3.1851 0-4.4558c-.0023-.5115.0995-1.5226.3001-2.4979.0995-.4891.2227-.9768.3621-1.3984.1378-.421.2971-.7793.4302-.9883 1.3963-2.2506 3.3705-4.0969 5.1785-6.708 1.8059-2.6088 3.3452-5.9931 3.767-11.128.0536-.6438.0805-1.2876.0805-1.9283 0-4.868-1.5555-9.5951-4.6619-13.21813zm2.2375 14.95023c-.408 4.7729-1.743 7.6289-3.3598 9.9905-1.6144 2.3593-3.6108 4.2141-5.236 6.7946-.2832.4563-.4907.9615-.669 1.4988-.2648.8046-.4539 1.6819-.5833 2.4987-.1286.819-.1967 1.5616-.1975 2.1342v3.28h-16.289v-5.3936c0-.7663-.3261-1.4958-.8973-2.0078-.4983-.4479-1.1413-.6898-1.8004-.6898-.0482 0-.0949.0053-.1424.0084l-2.24586-.1791-.11025.0122-.19209.0108c-.40879 0-.80684-.1478-1.11846-.4188-.35977-.3131-.57266-.7632-.58643-1.2416l-.00068-.0443-.95381-9.2013-3.5749-.9859-.04287-.0084c-.10869-.0215-.19971-.0935-.24649-.1946l-.03144-.1454.04443-.1699 4.61436-8.1487.00996-1.2731v-.0169c-.00225-.1101-.00303-.2189-.00303-.3275.00772-4.6144 1.80117-8.26738 4.70246-10.84326 2.9043-2.56982 6.9599-4.03808 11.4817-4.03808.431 0 .8658.01377 1.3037.04062 5.4144.34063 9.4003 2.50088 12.1017 5.64014 2.6969 3.14158 4.0955 7.31428 4.0955 11.68688 0 .5747-.0237 1.1527-.0728 1.7322z" fill="#fff"/></mask><g fill="#f5f5f5"><path d="m37.0709 14.9457c-.1248-.1263-.2648-.2419-.4188-.3445l-.1577-.0329c-.0826-.0359-.1484-.0949-.1914-.1662-.2465-.1163-.5045-.1913-.767-.2288-.2266-.0315-.3858-.2419-.3529-.4701.0306-.2282.2426-.3873.4692-.356.2596.0383.5198.1042.7694.2022.0405-.1823.0635-.3683.0635-.5558-.0008-.4103-.0972-.8245-.3024-1.2142-.2343-.4455-.5779-.793-.9799-1.0302-.3521-.2082-.7502-.3323-1.159-.3614-.0297.3728-.1185.7441-.2732 1.1039-.0919.2112-.336.3084-.548.2173-.2114-.0903-.3093-.3352-.2182-.5465.1484-.3467.2182-.7035.2197-1.0572l-.0054-.15076c-.0283-.48994-.1906-.96299-.4669-1.3664-.2764-.40274-.6637-.73262-1.1459-.94161-.346-.14775-.7043-.21738-1.0573-.21738-.6759 0-1.3304.26035-1.8249.71953.0926.31465.1454.6461.1454.99063 0 .22968-.1882.4164-.4179.4164s-.4172-.18672-.4172-.4164c0-.3376-.062-.65762-.1753-.95537-.1922-.50137-.5313-.93311-.9668-1.2378-.4341-.30459-.96-.48301-1.5325-.48301-.4968 0-.96.13555-1.358.36973-.3185.18828-.5933.44248-.8091.74102.4218.57793.6713 1.29218.6713 2.0623 0 .22959-.1875.41562-.418.41562-.2297 0-.4172-.18603-.4172-.41562 0-.67666-.2488-1.29219-.6629-1.76299-.4914-.56113-1.2087-.9124-2.0125-.9124-.558 0-1.0717.16914-1.5011.46006-.428.29092-.7686.70273-.97 1.18652-.13.31612-.2044.66446-.2044 1.02881 0 .22959-.186.41562-.4164.41562s-.4164-.18603-.4164-.41562c0-.33838.049-.66445.1378-.97529-.3138-.12705-.6537-.19746-1.0027-.19746-.1983 0-.3973.02295-.5994.06816-.5941.13701-1.0909.45703-1.4545.89024-.2618.3124-.4487.68357-.5458 1.08237.8612.0153 1.7216.3483 2.3861.999.1639.1615.1669.4249.0062.5886-.1616.1654-.4249.1669-.5895.0069-.5221-.509-1.1949-.764-1.8717-.7648-.1209 0-.2419.0084-.3629.0238h-.0014c-.5672.0788-1.1146.3375-1.5487.78-.5098.5206-.7625 1.1927-.7631 1.8709 0 .3867.0841.7762.2525 1.1345.1309.2824.3146.5458.5519.777.268.2633.5773.4585.9073.5855.2135.0835.3215.3246.2373.5389-.0834.2159-.3238.3231-.5389.2388-.4309-.1668-.8382-.4224-1.1904-.7677-.1538-.1516-.2909-.3131-.4125-.4845-.3147.4509-.48537.9904-.48537 1.5401 0 .4257.10187.8551.31687 1.2585.2419.4517.5918.8038 1.0036 1.0442.3253.1906.689.3108 1.0641.3529l-.0008-.0253c0-.2205.0207-.4363.0582-.6461.0429-.2265.2611-.3744.4862-.3338.2265.0421.3758.2595.3352.4861-.0299.1599-.0459.326-.0459.4937l.0068.1938.0222.1952v.0022l.0008.0038c.1914 1.3076 1.3213 2.285 2.644 2.285l.1922-.0076c.5864-.0421 1.1138-.2688 1.5318-.6216.2931-.2473.5335-.5572.6981-.9064.0972-.209.3475-.2977.555-.1991.2082.0981.2971.346.199.5543-.1783.3759-.4218.715-.7141 1.0035.1637.5038.4714.9363.8734 1.2578.4594.3682 1.0388.5856 1.6649.5856l.193-.0076c.3965-.0283.764-.1424 1.0894-.32-.0506-.2396-.0796-.4845-.0796-.7326 0-.5114.114-1.0327.3498-1.5226.1003-.2074.349-.294.5557-.1937.2075.0988.2955.3484.1952.5558-.1814.3759-.2664.7709-.2664 1.1605 0 .2725.0421.5443.1233.8022.2136.6806.6967 1.2754 1.3909 1.6091.3751.1814.7701.2664 1.159.2664.6178 0 1.2218-.2159 1.701-.6071l.0015-.0007c.2909-.2397.5344-.5428.7096-.9049l.0008-.0016c.1631-.3383.2488-.6927.2633-1.0464.0107-.2297.2044-.4088.4355-.398.2297.01.4072.2043.3973.434-.02.4638-.1324.9323-.346 1.374-.1715.3575-.3973.6714-.6621.94.4914.7058 1.3089 1.1506 2.1931 1.1498.1638 0 .3307-.0152.4984-.0474.6437-.1209 1.1865-.4616 1.5723-.9301.3851-.4693.6094-1.0656.6094-1.6949l-.0008-.0566v-.0031c-.003-.1416-.0176-.29-.0451-.4394-.0666-.3544-.2021-.676-.3881-.96-.2694-.2373-.5687-.5473-.8511-.8918-.3009-.3674-.578-.7693-.764-1.1742-.1225-.271-.2098-.545-.2113-.8336 0-.1278.0175-.2603.0658-.3873.0467-.1294.1232-.2519.2258-.3529.1623-.1616.4255-.1616.5886 0 .1623.1637.1623.4286 0 .5902l-.0314.0498-.016.1003c-.0016.1049.0421.2825.1362.4868.0934.2037.2319.4325.395.6583.3231.4524.7418.8965 1.0572 1.1674l.0428.0368.0315.0467c.258.3843.447.8267.5381 1.3097l.0298.2075.1248.0053c.5283-.0007 1.0602-.1569 1.528-.4853.372-.2618.6552-.5979.8466-.9753.1921-.3781.2924-.7961.2924-1.2171 0-.3942-.0888-.79-.2664-1.1582-.1646.0528-.3315.0949-.5007.124-.2265.0406-.4417-.1134-.4822-.3398-.0384-.2274.1149-.4417.3414-.4816.7379-.127 1.4139-.5572 1.8319-1.2477.2648-.434.3896-.9117.3896-1.384 0-.6959-.2687-1.3764-.7693-1.8809zm-19.0969-3.1799c.3981-.4708.9263-.8054 1.4943-1.0243.5703-.219 1.1811-.3239 1.7675-.3239.5704.0008 1.1184.0973 1.5838.3132.2082.0948.2993.3437.2029.5526-.0957.2083-.343.3001-.5535.2038-.3214-.1508-.7617-.2373-1.2332-.2373-.4853 0-1.0027.0894-1.4674.2702-.4647.1783-.8727.4447-1.1598.7831-.147.176-.411.199-.5871.049-.1753-.1485-.1975-.4111-.0475-.5864zm9.4861 9.855c-.4846 0-.9241-.0551-1.3251-.1477.0107.1147.0183.2426.0183.3781 0 .2718-.0299.5824-.1148.9086-.0858.3253-.2304.6675-.4585.9959-.1309.1899-.3904.2365-.5795.1056-.1899-.131-.2358-.3897-.1065-.5803.1684-.2427.2733-.4907.3376-.7349.0644-.2441.0881-.4815.0881-.695.0008-.2947-.0444-.5374-.0765-.676-.2036-.0918-.3912-.1952-.5664-.3108-.6982-.4517-1.1651-1.0479-1.4583-1.6152-.1967-.3805-.3163-.7479-.3805-1.0671-.0367-.1822-.0551-.3475-.0551-.4977 0-.2311.1868-.4179.4172-.4179s.4172.1868.4172.4179c-.0008.1209.0253.3239.0911.5543.0658.2312.1707.4938.3223.7578.3039.5313.7869 1.0633 1.5325 1.4086.4983.2312 1.1183.3812 1.8969.3812.2303 0 .4171.1868.4171.4172 0 .2306-.1867.4174-.4171.4174zm2.9349-3.0437c-.0857.2129-.3284.317-.5428.2319-.2135-.0857-.3161-.3268-.2319-.5404l.0024-.0069.0123-.0367.0428-.15c.0315-.1317.0636-.3177.0636-.5221l-.0008-.0291c-.5725.1944-1.1038.2816-1.5929.2816-.7395.0016-1.3794-.2012-1.9-.509-.5213-.3076-.927-.7149-1.2302-1.1291-.3445-.4692-.7961-.8902-1.3136-1.188-.5189-.2986-1.0992-.4761-1.7154-.4777-.5397.0016-1.1138.1362-1.7132.4654-.5688.3123-.9347.728-1.1712 1.1842-.235.4571-.3345.9561-.3338 1.4109-.0016.421.0873.8021.2028 1.0425.0988.2082.0092.4563-.1982.555-.2074.0988-.4562.0092-.555-.1982-.1814-.3844-.2824-.8682-.284-1.3993.0008-.5283.1057-1.1055.3637-1.6574-.5174.1172-.9981.1693-1.436.1693-.2365 0-.4594-.0154-.6714-.0429l-.0774.1562-.0007.0014-.0062.0063-.0222.0283-.0888.1209c-.0758.1088-.1807.2672-.2948.4692-.2273.4004-.4875.9654-.6139 1.5998-.0451.2259-.2641.3737-.49.3277-.2257-.0451-.3728-.2641-.326-.4914.15-.7526.4464-1.3925.7043-1.848.1346-.2357.258-.4224.3482-.5496-.3398-.1018-.6338-.2266-.8741-.3537-.5488-.2917-.8345-.5841-.8589-.6078-.1593-.1661-.1547-.4295.0106-.5895.1662-.1592.4288-.1546.5887.0092l.0047.0046.0244.0237.1195.1002c.1085.0858.2763.2037.5005.3231.4501.2373 1.1223.4777 2.0233.4793.633 0 1.3794-.1209 2.2467-.4547.2197-.2044.473-.3911.7639-.5504.7135-.3911 1.4322-.5672 2.1143-.5672.7793 0 1.5042.2267 2.1319.5879.6277.3629 1.1598.8597 1.5693 1.4184.2488.3375.5756.6645.9806.9025.4072.2389.8887.3943 1.4774.395.4034 0 .8581-.075 1.3725-.2557-.1255-.2013-.3123-.3958-.62-.5718-.2006-.1141-.2718-.3682-.1585-.568.1141-.2014.3675-.2703.568-.1585.4929.2779.8229.6461 1.0142 1.0312.1937.3835.2511.7723.2511 1.1031-.0022.5773-.1684.9945-.1798 1.0243zm-.1561-5.1065c-.9738 0-1.8257-.2626-2.5147-.6599-.0971.1348-.2273.3039-.395.4876-.3773.4142-.9316.9003-1.6733 1.1666-.2182.0766-.4555-.0352-.5329-.2525-.0773-.2175.0368-.4555.2519-.5321.5474-.1952 1.0051-.5787 1.3221-.9255.1469-.1585.261-.3085.3437-.4233-.4111-.3475-.7356-.7433-.9584-1.1505-.2112-.3904-.3338-.7931-.3352-1.18427 0-.22959.1868-.41641.4172-.41641.2296 0 .4164.18682.4164.41641-.0016.21057.0719.49147.2341.78627.16.2954.4035.6031.7219.8788.6369.5519 1.5563.9744 2.7023.9744.2303 0 .4164.1876.4164.418-.0001.2295-.1862.4164-.4165.4164zm3.2854 5.869c-.1462.1761-.4096.2021-.5871.0543-.1775-.1462-.202-.4095-.0566-.5863.4547-.552.6223-1.1077.6238-1.6397.0016-.4846-.147-.9523-.3797-1.3465-.2297-.3935-.5473-.7089-.8527-.8841-.2052-.1179-.3981-.1707-.5512-.1707-.2305 0-.4164-.186-.4164-.4165 0-.2303.186-.4171.4164-.4171.2533 0 .5014.062.7372.1661.235.1026.457.2488.6637.4272.4126.3567.7632.842.9837 1.4109.1454.3795.2342.7961.2342 1.2308.0007.7149-.2434 1.4803-.8153 2.1716z"/><path d="m25.9759 2.45418.0727-1.17354-1.9962-.12359-.0727 1.17354zm12.8888 4.04719-1.5199 1.29989.0016.0019zm-13.7415-6.4562528-.1227 1.9962328.0023.00014zm-14.4885 4.5831028 1.3221 1.50064.0025-.00215zm-5.49632 12.60468h2v-.0029zm.00303.3567 1.99993.0167.00022-.0271-.00051-.0272zm-.00528.6323 1.74035.9855.25526-.4508.00432-.518zm-4.314353 7.6189-1.740344-.9855-.00149.0027zm-.103417 2.4534 1.81819-.8331-.00059-.0013zm1.84482 1.4951 1.94973.4456.44414-1.9433-1.9418-.4506zm-.00156.0068-1.949725-.4456-.426374 1.8655 1.844939.5083zm1.98418.5466 1.98934-.2063-.14091-1.359-1.31727-.3629zm.78389 7.5608-1.98934.2063.21108 2.0359 2.03047-.2582zm.00615-.0008 1.9975-.1-.10801-2.1563-2.1417.2723zm1.38105 2.8615 1.31358-1.5082-.00116-.001zm2.95635.9806.15814-1.9937-.14857-.0118-.14867.0104zm2.24826.1783-.1582 1.9938.1872.0148.1865-.0202zm.1126-.0122-.087-1.9981-.0644.0028-.0642.007zm.0359-.0015v-2h-.0435l-.0434.0019zm.2289.0865 1.4499-1.3776-.0536-.0564-.0577-.052zm.0037.0039-1.4498 1.3777.0533.0561.0575.0518zm.1134 8.0002h-2v2h2zm20.9922 0v2h2v-2zm0-5.6316h2v-.0092zm.3001-2.4979 1.959.4029.0008-.0041zm.3621-1.3984 1.8989.6279.0019-.0058zm.4302-.9883 1.6869 1.0744.0063-.01.0063-.01zm5.1785-6.708 1.6443 1.1385.0002-.0002zm3.767-11.128-1.9931-.166-.0002.0022zm-2.3439-.1962 1.9928.1703.0001-.0017zm-3.3598 9.9905-1.6503-1.1298-.0003.0004zm-5.236 6.7946-1.6923-1.0658-.0069.0111zm-.669 1.4988-1.8982-.6299-.0015.0046zm-.5833 2.4987-1.9754-.313-.0004.0027zm-.1975 2.1342-2-.0028v.0028zm0 3.28v2h2v-2zm-16.289 0h-2v2h2zm-.8973-7.4014-1.3368 1.4875.0019.0017zm-1.9428-.6814-.1589 1.9937.1451.0116.1452-.0096zm-2.24586-.1791.15899-1.9936-.18982-.0152-.18926.021zm-.11025.0122.11167 1.9969.05433-.003.05409-.006zm-.19209.0108v2h.05587l.0558-.0031zm-1.11846-.4188-1.31295 1.5087.00053.0005zm-.58643-1.2416-1.99976.0309.00021.0133.00038.0134zm-.00068-.0443 1.99976-.0309-.00135-.0879-.00907-.0874zm-.95381-9.2013 1.98934-.2062-.14084-1.3586-1.31676-.3632zm-3.5749-.9859.53174-1.928-.07298-.0202-.07429-.0145zm-.04287-.0084-.38783 1.962.00335.0007zm-.24649-.1946-1.954809.4228.046791.2164.092978.2009zm-.03144-.1454-1.934942-.5059-.120803.462.100931.4667zm.04443-.1699-1.74034-.9855-.128583.2271-.066016.2524zm4.61436-8.1487 1.74034.9855.25554-.4513.00406-.5186zm.00996-1.2731 1.99994.0157.00006-.0078v-.0079zm0-.0169h2v-.0203l-.00042-.0204zm-.00303-.3275-2-.0033v.0033zm4.70246-10.84326-1.3254-1.49783-.0025.00224zm12.7854-3.99746.1256-1.996054-.0031-.000193zm12.1017 5.64014 1.5175-1.30272-.0015-.0018zm3.3052-2.83105c-3.4729-4.06086-8.653-6.7612-15.141-7.15272l-.2409 3.99274c5.4646.32976 9.6126 2.56829 12.342 5.75977zm-15.1388-7.15258c-.5256-.03231-1.0503-.04889-1.5718-.04889v4c.4369 0 .8798.01389 1.3264.04135zm-1.5718-.04889c-5.4517 0-10.5646 1.771259-14.36402 5.12973l2.64922 2.99698c2.9797-2.63391 7.114-4.12671 11.7148-4.12671zm-14.36159 5.12759c-3.82862 3.37326-6.18257 8.29901-6.17413 14.10821l4-.0058c-.00679-4.672 1.86328-8.49745 4.81842-11.10114zm-6.17413 14.10531c0 .1272.00083.2589.00338.3944l3.99929-.0753c-.00194-.1034-.00267-.209-.00267-.3191zm.0031.3401-.00528.6322 3.99986.0334.00528-.6323zm.25431-.3366-4.314355 7.6189 3.480685 1.971 4.31436-7.6189zm-4.315847 7.6216c-.403323.7147-.607283 1.5125-.607283 2.311h4c0-.1186.0304-.238.09095-.3453zm-.607283 2.311c0 .6655.1413 1.335.4281 1.9597l3.6352-1.6689c-.04211-.0917-.0633-.191-.0633-.2908zm.42751 1.9584c.613279 1.3383 1.812214 2.2855 3.21095 2.6101l.90413-3.8965c-.22412-.052-.3953-.1979-.4787-.3799zm1.713288.2162-.001563.0069 3.899455.8912.00156-.0068zm1.417002 2.3807 1.98418.5466 1.06232-3.8564-1.98418-.5466zm.526-1.1754.78389 7.5609 3.97867-.4125-.78388-7.5609zm3.02544 9.3386.00615-.0007-.50442-3.9681-.00616.0008zm-2.24356-1.8847c.08174 1.6319.81143 3.1794 2.06614 4.2705l2.62483-3.0183c-.41424-.3602-.66736-.8811-.69597-1.4523zm2.06498 4.2695c1.1081.9651 2.52226 1.4885 3.97598 1.4885v-4c-.49375 0-.97333-.1777-1.34883-.5048zm3.97598 1.4885c.19041 0 .40058-.0186.43305-.0208l-.27821-3.9903c-.03072.0021-.06217.0045-.08297.006-.02361.0018-.03952.0029-.05324.0038-.02768.0018-.02943.0013-.01863.0013zm.13581-.0222 2.24819.1783.3163-3.9875-2.24822-.1783zm2.62189.1729.1126-.0122-.4311-3.9767-.1126.0122zm-.016-.0025.036-.0015-.1739-3.9962-.036.0015zm-.051.0004c-.3949 0-.7948-.1439-1.1097-.4275l2.6772-2.972c-.4389-.3954-.9997-.6005-1.5675-.6005zm-1.2209-.5359.0037.004 2.8997-2.7553-.0037-.0039zm.1145.1119c-.3485-.3141-.5476-.7594-.5476-1.2307h4c0-.6643-.2832-1.2978-.7743-1.7405zm-.5476-1.2307v7.7453h4v-7.7453zm2 9.7453h20.9922v-4h-20.9922zm22.9922-2v-1.1758h-4v1.1758zm-2-1.1758h2v-.0001c0-.0001 0-.0001 0-.0002s0-.0002 0-.0003 0-.0002 0-.0003 0-.0002 0-.0004c0-.0001 0-.0003 0-.0005 0-.0001 0-.0003 0-.0005s0-.0004 0-.0006 0-.0004 0-.0007c0-.0002 0-.0005 0-.0007 0-.0003 0-.0006 0-.0009s0-.0005 0-.0009c0-.0003 0-.0006 0-.0009 0-.0004 0-.0007 0-.0011 0-.0003 0-.0007 0-.0011 0-.0003 0-.0007 0-.0011s0-.0008 0-.0013c0-.0004 0-.0008 0-.0013 0-.0004 0-.0009 0-.0014 0-.0004 0-.0009 0-.0014s0-.001 0-.0015 0-.0011 0-.0016 0-.0011 0-.0017c0-.0005 0-.0011 0-.0017s0-.0011 0-.0018c0-.0006 0-.0012 0-.0018s0-.0013 0-.0019c0-.0007 0-.0013 0-.002s0-.0014 0-.0021 0-.0014 0-.0021 0-.0014 0-.0022c0-.0007 0-.0015 0-.0022 0-.0008 0-.0015 0-.0023s0-.0016 0-.0024 0-.0016 0-.0024c0-.0009 0-.0017 0-.0026 0-.0008 0-.0017 0-.0025 0-.0009 0-.0018 0-.0027s0-.0018 0-.0027 0-.0018 0-.0027c0-.001 0-.0019 0-.0029 0-.0009 0-.0019 0-.0029 0-.0009 0-.0019 0-.0029s0-.002 0-.003 0-.0021 0-.0031c0-.0011 0-.0021 0-.0032 0-.001 0-.0021 0-.0032 0-.001 0-.0021 0-.0032s0-.0022 0-.0034c0-.0011 0-.0022 0-.0034 0-.0011 0-.0022 0-.0034s0-.0023 0-.0035 0-.0024 0-.0036 0-.0024 0-.0036 0-.0025 0-.0037c0-.0013 0-.0025 0-.0038 0-.0012 0-.0025 0-.0038s0-.0026 0-.0039 0-.0026 0-.0039 0-.0027 0-.004 0-.0027 0-.004c0-.0014 0-.0028 0-.0042 0-.0013 0-.0027 0-.0041s0-.0028 0-.0043c0-.0014 0-.0028 0-.0042 0-.0015 0-.0029 0-.0044 0-.0014 0-.0029 0-.0044s0-.0029 0-.0044 0-.003 0-.0046c0-.0015 0-.003 0-.0045 0-.0016 0-.0031 0-.0047 0-.0015 0-.0031 0-.0046 0-.0016 0-.0032 0-.0048s0-.0032 0-.0048 0-.0032 0-.0048c0-.0017 0-.0033 0-.005 0-.0016 0-.0033 0-.0049 0-.0017 0-.0034 0-.005 0-.0017 0-.0034 0-.0051s0-.0034 0-.0051c0-.0018 0-.0035 0-.0052 0-.0018 0-.0035 0-.0053 0-.0017 0-.0035 0-.0053 0-.0017 0-.0035 0-.0053s0-.0036 0-.0054 0-.0036 0-.0055c0-.0018 0-.0036 0-.0055 0-.0018 0-.0037 0-.0055 0-.0019 0-.0038 0-.0056 0-.0019 0-.0038 0-.0057s0-.0038 0-.0057 0-.0039 0-.0058 0-.0039 0-.0058c0-.002 0-.0039 0-.0059 0-.0019 0-.0039 0-.0059s0-.004 0-.006 0-.004 0-.006 0-.004 0-.0061c0-.002 0-.004 0-.0061 0-.002 0-.0041 0-.0062 0-.002 0-.0041 0-.0062s0-.0042 0-.0063 0-.0042 0-.0063 0-.0042 0-.0064c0-.0021 0-.0042 0-.0064 0-.0021 0-.0043 0-.0065 0-.0021 0-.0043 0-.0065s0-.0044 0-.0066 0-.0044 0-.0066 0-.0044 0-.0066c0-.0023 0-.0045 0-.0067 0-.0023 0-.0045 0-.0068s0-.0045 0-.0068 0-.0046 0-.0069 0-.0046 0-.0069 0-.0046 0-.0069 0-.0047 0-.007 0-.0047 0-.007c0-.0024 0-.0048 0-.0071 0-.0024 0-.0048 0-.0072 0-.0023 0-.0047 0-.0071s0-.0048 0-.0072c0-.0025 0-.0049 0-.0073s0-.0049 0-.0073c0-.0025 0-.0049 0-.0074 0-.0024 0-.0049 0-.0074 0-.0024 0-.0049 0-.0074s0-.005 0-.0075 0-.005 0-.0075 0-.0051 0-.0076 0-.0051 0-.0076c0-.0026 0-.0051 0-.0077 0-.0025 0-.0051 0-.0077s0-.0051 0-.0077 0-.0052 0-.0078 0-.0052 0-.0078c0-.0027 0-.0053 0-.0079s0-.0053 0-.0079c0-.0027 0-.0053 0-.008 0-.0026 0-.0053 0-.008 0-.0026 0-.0053 0-.008s0-.0054 0-.0081 0-.0054 0-.0081 0-.0054 0-.0081c0-.0028 0-.0055 0-.0082 0-.0028 0-.0055 0-.0083 0-.0027 0-.0055 0-.0082 0-.0028 0-.0056 0-.0083 0-.0028 0-.0056 0-.0084s0-.0056 0-.0084 0-.0056 0-.0084 0-.0057 0-.0085 0-.0056 0-.0085c0-.0028 0-.0057 0-.0085 0-.0029 0-.0057 0-.0086s0-.0058 0-.0086c0-.0029 0-.0058 0-.0087s0-.0058 0-.0087 0-.0058 0-.0087 0-.0058 0-.0088c0-.0029 0-.0058 0-.0088 0-.0029 0-.0059 0-.0088 0-.003 0-.0059 0-.0089 0-.0029 0-.0059 0-.0089s0-.0059 0-.0089 0-.006 0-.009 0-.006 0-.009 0-.006 0-.0091c0-.003 0-.006 0-.0091 0-.003 0-.006 0-.0091 0-.003 0-.0061 0-.0091 0-.0031 0-.0061 0-.0092s0-.0061 0-.0092 0-.0062 0-.0093 0-.0062 0-.0093 0-.0062 0-.0093 0-.0062 0-.0093 0-.0063 0-.0094 0-.0063 0-.0094c0-.0032 0-.0063 0-.0095 0-.0031 0-.0063 0-.0094 0-.0032 0-.0064 0-.0095 0-.0032 0-.0064 0-.0096s0-.0064 0-.0096c0-.0031 0-.0063 0-.0096 0-.0032 0-.0064 0-.0096s0-.0064 0-.0096c0-.0033 0-.0065 0-.0097 0-.0033 0-.0065 0-.0098 0-.0032 0-.0065 0-.0097 0-.0033 0-.0065 0-.0098s0-.0065 0-.0098 0-.0066 0-.0098c0-.0033 0-.0066 0-.0099s0-.0066 0-.0099 0-.0066 0-.0099 0-.0067 0-.01 0-.0066 0-.01c0-.0033 0-.0066 0-.01 0-.0033 0-.0067 0-.01 0-.0034 0-.0067 0-.0101 0-.0033 0-.0067 0-.0101 0-.0033 0-.0067 0-.0101 0-.0033 0-.0067 0-.0101s0-.0068 0-.0102 0-.0068 0-.0102 0-.0068 0-.0102 0-.0068 0-.0102c0-.0035 0-.0069 0-.0103s0-.0069 0-.0103 0-.0069 0-.0103c0-.0035 0-.0069 0-.0104 0-.0034 0-.0069 0-.0103 0-.0035 0-.007 0-.0104 0-.0035 0-.007 0-.0104 0-.0035 0-.007 0-.0105s0-.007 0-.0105c0-.0034 0-.0069 0-.0104s0-.007 0-.0105c0-.0036 0-.0071 0-.0106s0-.007 0-.0105c0-.0036 0-.0071 0-.0106s0-.0071 0-.0106c0-.0036 0-.0071 0-.0106 0-.0036 0-.0071 0-.0107 0-.0035 0-.0071 0-.0106 0-.0036 0-.0072 0-.0107 0-.0036 0-.0072 0-.0107 0-.0036 0-.0072 0-.0108 0-.0035 0-.0071 0-.0107s0-.0072 0-.0108 0-.0072 0-.0108 0-.0072 0-.0108 0-.0072 0-.0108 0-.0072 0-.0109c0-.0036 0-.0072 0-.0108s0-.0073 0-.0109 0-.0073 0-.0109 0-.0073 0-.0109c0-.0037 0-.0073 0-.011 0-.0036 0-.0073 0-.0109 0-.0037 0-.0073 0-.011s0-.0073 0-.011 0-.0073 0-.011 0-.0074 0-.011c0-.0037 0-.0074 0-.0111s0-.0073 0-.011 0-.0074 0-.0111 0-.0074 0-.0111 0-.0074 0-.0111 0-.0074 0-.0111c0-.0038 0-.0075 0-.0112s0-.0074 0-.0111c0-.0038 0-.0075 0-.0112s0-.0075 0-.0112 0-.0075 0-.0112 0-.0075 0-.0112c0-.0038 0-.0075 0-.0112 0-.0038 0-.0075 0-.0113 0-.0037 0-.0075 0-.0112 0-.0038 0-.0075 0-.0113s0-.0075 0-.0113 0-.0075 0-.0113 0-.0075 0-.0113 0-.0075 0-.0113 0-.0076 0-.0113c0-.0038 0-.0076 0-.0114s0-.0076 0-.0114c0-.0037 0-.0075 0-.0113s0-.0076 0-.0114 0-.0076 0-.0114 0-.0076 0-.0114 0-.0076 0-.0114 0-.0076 0-.0114 0-.0076 0-.0115c0-.0038 0-.0076 0-.0114s0-.0076 0-.0115c0-.0038 0-.0076 0-.0114s0-.0077 0-.0115 0-.0076 0-.0115c0-.0038 0-.0076 0-.0115 0-.0038 0-.0076 0-.0115 0-.0038 0-.0076 0-.0115 0-.0038 0-.0076 0-.0115 0-.0038 0-.0077 0-.0115s0-.0077 0-.0115c0-.0039 0-.0077 0-.0116 0-.0038 0-.0077 0-.0115 0-.0039 0-.0077 0-.0116 0-.0038 0-.0077 0-.0115 0-.0039 0-.0077 0-.0116 0-.0038 0-.0077 0-.0116 0-.0038 0-.0077 0-.0115 0-.0039 0-.0078 0-.0116 0-.0039 0-.0078 0-.0116 0-.0039 0-.0077 0-.0116s0-.0077 0-.0116 0-.0077 0-.0116 0-.0078 0-.0116c0-.0039 0-.0078 0-.0116 0-.0039 0-.0078 0-.0117 0-.0038 0-.0077 0-.0116s0-.0077 0-.0116 0-.0078 0-.0116c0-.0039 0-.0078 0-.0117 0-.0038 0-.0077 0-.0116s0-.0078 0-.0116c0-.0039 0-.0078 0-.0117s0-.0078 0-.0116c0-.0039 0-.0078 0-.0117s0-.0077 0-.0116 0-.0078 0-.0117 0-.0077 0-.0116 0-.0078 0-.0117 0-.0078 0-.0116c0-.0039 0-.0078 0-.0117s0-.0078 0-.0117c0-.0038 0-.0077 0-.0116s0-.0078 0-.0117 0-.0077 0-.0116 0-.0078 0-.0117 0-.0077 0-.0116 0-.0078 0-.0117 0-.0078 0-.0116c0-.0039 0-.0078 0-.0117s0-.0078 0-.0116c0-.0039 0-.0078 0-.0117s0-.0078 0-.0116c0-.0039 0-.0078 0-.0117s0-.0078 0-.0116c0-.0039 0-.0078 0-.0117s0-.0077 0-.0116 0-.0078 0-.0116c0-.0039 0-.0078 0-.0117s0-.0077 0-.0116 0-.0078 0-.0116c0-.0039 0-.0078 0-.0117 0-.0038 0-.0077 0-.0116 0-.0038 0-.0077 0-.0116s0-.0077 0-.0116 0-.0077 0-.0116 0-.0077 0-.0116 0-.0077 0-.0116 0-.0077 0-.0116c0-.0038 0-.0077 0-.0116 0-.0038 0-.0077 0-.0115 0-.0039 0-.0077 0-.0116s0-.0077 0-.0116c0-.0038 0-.0077 0-.0115 0-.0039 0-.0077 0-.0116 0-.0038 0-.0077 0-.0115 0-.0039 0-.0077 0-.0115 0-.0039 0-.0077 0-.0116 0-.0038 0-.0077 0-.0115s0-.0077 0-.0115 0-.0077 0-.0115 0-.0077 0-.0115 0-.0077 0-.0115 0-.0076 0-.0115c0-.0038 0-.0076 0-.0114 0-.0039 0-.0077 0-.0115s0-.0076 0-.0114c0-.0039 0-.0077 0-.0115s0-.0076 0-.0114 0-.0076 0-.0114 0-.0076 0-.0114 0-.0076 0-.0114 0-.0076 0-.0114 0-.0076 0-.0114 0-.0076 0-.0114c0-.0037 0-.0075 0-.0113s0-.0076 0-.0113c0-.0038 0-.0076 0-.0114 0-.0037 0-.0075 0-.0113s0-.0075 0-.0113 0-.0075 0-.0113c0-.0037 0-.0075 0-.0113 0-.0037 0-.0075 0-.0112 0-.0038 0-.0075 0-.0113 0-.0037 0-.0075 0-.0112 0-.0038 0-.0075 0-.0112 0-.0038 0-.0075 0-.0112 0-.0038 0-.0075 0-.0112 0-.0038 0-.0075 0-.0112s0-.0075 0-.0112 0-.0074 0-.0111 0-.0075 0-.0112 0-.0074 0-.0111 0-.0074 0-.0111 0-.0074 0-.0111 0-.0074 0-.011c0-.0037 0-.0074 0-.0111s0-.0074 0-.011c0-.0037 0-.0074 0-.0111 0-.0036 0-.0073 0-.011 0-.0036 0-.0073 0-.0109 0-.0037 0-.0074 0-.011 0-.0037 0-.0073 0-.011 0-.0036 0-.0073 0-.0109s0-.0073 0-.0109 0-.0073 0-.0109 0-.0073 0-.0109 0-.0072 0-.0108c0-.0037 0-.0073 0-.0109s0-.0072 0-.0108 0-.0072 0-.0108 0-.0072 0-.0108 0-.0072 0-.0107c0-.0036 0-.0072 0-.0108s0-.0071 0-.0107 0-.0071 0-.0107 0-.0071 0-.0107c0-.0035 0-.0071 0-.0106 0-.0036 0-.0071 0-.0107 0-.0035 0-.007 0-.0106 0-.0035 0-.007 0-.0106 0-.0035 0-.007 0-.0105s0-.0071 0-.0106 0-.007 0-.0105 0-.007 0-.0105 0-.007 0-.0105 0-.007 0-.0104c0-.0035 0-.007 0-.0105 0-.0034 0-.0069 0-.0104 0-.0034 0-.0069 0-.0104 0-.0034 0-.0069 0-.0103 0-.0035 0-.0069 0-.0103 0-.0035 0-.0069 0-.0104 0-.0034 0-.0068 0-.0102 0-.0035 0-.0069 0-.0103s0-.0068 0-.0102 0-.0068 0-.0102 0-.0068 0-.0102 0-.0068 0-.0102 0-.0067 0-.0101 0-.0068 0-.0101c0-.0034 0-.0067 0-.0101 0-.0033 0-.0067 0-.01 0-.0034 0-.0067 0-.0101 0-.0033 0-.0066 0-.01 0-.0033 0-.0066 0-.0099s0-.0067 0-.01 0-.0066 0-.0099 0-.0066 0-.0099 0-.0065 0-.0098 0-.0066 0-.0099c0-.0032 0-.0065 0-.0097 0-.0033 0-.0066 0-.0098 0-.0033 0-.0065 0-.0098 0-.0032 0-.0064 0-.0097 0-.0032 0-.0064 0-.0096 0-.0033 0-.0065 0-.0097s0-.0064 0-.0096 0-.0064 0-.0096 0-.0064 0-.0096c0-.0031 0-.0063 0-.0095s0-.0063 0-.0095c0-.0031 0-.0063 0-.0094 0-.0032 0-.0063 0-.0095 0-.0031 0-.0062 0-.0094 0-.0031 0-.0062 0-.0093 0-.0032 0-.0063 0-.0094s0-.0062 0-.0093 0-.0062 0-.0092c0-.0031 0-.0062 0-.0093s0-.0061 0-.0092 0-.0061 0-.0092c0-.003 0-.0061 0-.0091s0-.0061 0-.0091 0-.006 0-.0091c0-.003 0-.006 0-.009s0-.006 0-.009 0-.006 0-.009c0-.0029 0-.0059 0-.0089s0-.0059 0-.0089c0-.0029 0-.0059 0-.0088 0-.003 0-.0059 0-.0089 0-.0029 0-.0058 0-.0087 0-.003 0-.0059 0-.0088s0-.0058 0-.0087 0-.0058 0-.0087 0-.0057 0-.0086 0-.0058 0-.0086c0-.0029 0-.0057 0-.0086 0-.0028 0-.0057 0-.0085 0-.0029 0-.0057 0-.0085s0-.0056 0-.0085c0-.0028 0-.0056 0-.0084s0-.0056 0-.0083c0-.0028 0-.0056 0-.0084 0-.0027 0-.0055 0-.0083 0-.0027 0-.0055 0-.0082 0-.0028 0-.0055 0-.0082 0-.0028 0-.0055 0-.0082s0-.0055 0-.0082 0-.0054 0-.0081c0-.0026 0-.0053 0-.008s0-.0054 0-.008c0-.0027 0-.0054 0-.008 0-.0027 0-.0053 0-.0079 0-.0027 0-.0053 0-.0079 0-.0027 0-.0053 0-.0079s0-.0052 0-.0078 0-.0052 0-.0078c0-.0025 0-.0051 0-.0077s0-.0051 0-.0077c0-.0025 0-.0051 0-.0076 0-.0026 0-.0051 0-.0076s0-.0051 0-.0076 0-.005 0-.0075 0-.005 0-.0074h-4v.0074.0075.0076.0076.0076.0077.0077.0078.0078.0079.0079.0079.008.008.008.0081.0082.0082.0082.0082.0083.0084.0083.0084.0085.0085.0085.0086.0086.0086.0087.0087.0088.0087.0089.0088.0089.0089.009.009.009.0091.0091.0091.0092.0092.0093.0092.0093.0094.0093.0094.0095.0094.0095.0095.0096.0096.0096.0097.0096.0097.0098.0098.0097.0099.0098.0099.0099.01.0099.01.0101.01.0101.0101.0101.0102.0102.0102.0102.0103.0102.0104.0103.0103.0104.0104.0105.0104.0105.0105.0105.0106.0105.0106.0106.0107.0106.0107.0107.0107.0108.0107.0108.0108.0108.0109.0108.0109.0109.0109.0109.011.011.0109.011.0111.011.0111.011.0111.0111.0111.0112.0111.0112.0112.0112.0112.0112.0112.0113.0112.0113.0113.0113.0113.0114.0113.0113.0114.0114.0114.0114.0114.0114.0114.0115.0114.0115.0114.0115.0115.0115.0115.0115.0115.0116.0115.0115.0116.0115.0116.0116.0115.0116.0116.0116.0116.0116.0116.0116.0116.0117.0116.0116.0117.0116.0116.0117.0116.0117.0116.0117.0116.0117.0116.0117.0116.0117.0116.0117.0116.0117.0117.0116.0117.0116.0117.0116.0117.0116.0117.0116.0116.0117.0116.0116.0116.0117.0116.0116.0116.0116.0116.0116.0116.0115.0116.0116.0115.0116.0115.0116.0115.0115.0115.0115.0115.0115.0115.0115.0114.0115.0114.0115.0114.0114.0114.0114.0114.0113.0114.0114.0113.0113.0113.0113.0113.0113.0112.0113.0112.0112.0112.0112.0112.0111.0112.0111.0111.0111.0111.011.0111.011.011.011.011.0109.011.0109.0109.0109.0108.0109.0108.0108.0108.0108.0107.0108.0107.0107.0106.0107.0106.0106.0106.0105.0106.0105.0104.0105.0105.0104.0104.0103.0104.0103.0103.0103.0102.0102.0102.0102.0101.0101.0101.0101.01.01.01.01.0099.0099.0099.0098.0098.0098.0097.0098.0097.0096.0096.0096.0096.0096.0095.0094.0095.0094.0094.0093.0093.0093.0093.0092.0092.0091.0091.0091.0091.009.009.0089.0089.0089.0088.0088.0088.0087.0087.0087.0086.0086.0085.0085.0085.0084.0084.0084.0083.0082.0083.0082.0081.0081.0081.008.008.008.0079.0079.0078.0078.0077.0077.0077.0076.0076.0075.0075.0074.0074.0074.0073.0073.0072.0071.0072.0071.007.007.0069.0069.0069.0068.0068.0067.0066.0066.0066.0065.0065.0064.0064.0063.0063.0062.0062.0061.0061.006.006.0059.0059.0058.0058.0057.0057.0056.0055.0055.0055.0054.0053.0053.0053.0052.0051.0051.005.0049.005.0048.0048.0048.0046.0047.0045.0046.0044.0044.0044.0042.0043.0041.0042.004.004.0039.0039.0038.0038.0037.0036.0036.0035.0034.0034.0034.0032.0032.0032.0031.003.0029.0029.0029.0027.0027.0027.0025.0026.0024.0024.0023.0022.0022.0021.0021.002.0019.0018.0018.0017.0017.0016.0015.0014.0014.0013.0013.0011.0011.0011.0009.0009.0009.0007.0007.0006.0005.0005.0004.0003.0003.0002.0001zm2-4.465c-.0016-.3359.0778-1.2041.2591-2.0858l-3.918-.8058c-.2198 1.0689-.3442 2.223-.3411 2.9099zm.2599-2.0899c.0885-.4346.193-.8422.3012-1.1693l-3.7977-1.2559c-.1708.5163-.3126 1.0841-.4231 1.6276zm.3031-1.1751c.0509-.1556.1027-.2899.1482-.3938.0494-.1127.0758-.1543.0681-.1422l-3.3738-2.1488c-.2602.4085-.4813.9433-.6441 1.4405zm.2289-.556c.6137-.9893 1.369-1.9131 2.2697-2.9903.8794-1.0518 1.8879-2.2389 2.8536-3.6336l-3.2886-2.2771c-.8423 1.2165-1.725 2.2581-2.6337 3.3449-.8875 1.0614-1.8175 2.186-2.6 3.4473zm5.1235-6.6241c1.9947-2.8817 3.6637-6.5993 4.1158-12.1026l-3.9866-.3275c-.3915 4.7666-1.8012 7.8176-3.4182 10.1535zm4.1156-12.1004c.0582-.6985.0874-1.3977.0874-2.0942h-4c0 .5848-.0246 1.1733-.0736 1.7623zm.0874-2.0942c0-5.2846-1.6888-10.4906-5.1435-14.51993l-3.0367 2.60359c2.758 3.21674 4.1802 7.46484 4.1802 11.91634zm-6.4171 1.5617c-.3768 4.4084-1.5837 6.9369-3.0174 9.0311l3.3006 2.2596c1.7998-2.629 3.2631-5.8125 3.7023-10.95zm-3.0177 9.0315c-.74 1.0814-1.5685 2.0496-2.4976 3.1608-.9081 1.086-1.8898 2.2837-2.7801 3.6974l3.3847 2.1316c.7349-1.1668 1.564-2.1868 2.464-3.2631.879-1.0513 1.8558-2.1901 2.7302-3.4679zm-5.2846 6.8693c-.3984.6417-.6643 1.3099-.868 1.9236l3.7964 1.2599c.153-.4609.302-.8033.4701-1.074zm-.8695 1.9282c-.3082.9361-.5185 1.9243-.659 2.811l3.9508.6259c.1183-.7468.2861-1.5132.5076-2.1862zm-.6594 2.8137c-.1385.8821-.2207 1.7333-.2217 2.4417l4 .0055c.0006-.4367.0546-1.0706.1733-1.8267zm-.2217 2.4445v.0047.0048.0048.0049.0048.0048.0049.0048.0049.0048.0049.0049.0049.0049.0049.005.0049.005.0049.005.0049.005.005.005.005.0051.005.005.0051.005.0051.0051.005.0051.0051.0051.0052.0051.0051.0052.0051.0052.0052.0051.0052.0052.0052.0052.0053.0052.0052.0053.0052.0053.0053.0053.0053.0053.0053.0053.0053.0053.0054.0053.0054.0054.0053.0054.0054.0054.0054.0054.0055.0054.0054.0055.0054.0055.0055.0055.0055.0055.0055.0055.0055.0055.0056.0055.0056.0055.0056.0056.0056.0056.0056.0056.0056.0056.0056.0057.0056.0057.0056.0057.0057.0057.0057.0057.0057.0057.0057.0058.0057.0057.0058.0058.0057.0058.0058.0058.0058.0058.0058.0058.0058.0059.0058.0058.0059.0059.0058.0059.0059.0059.0059.0059.0059.0059.0059.006.0059.006.0059.006.0059.006.006.006.006.006.006.006.006.006.0061.006.0061.006.0061.0061.006.0061.0061.0061.0061.0061.0061.0061.0061.0062.0061.0062.0061.0062.0061.0062.0062.0062.0062.0061.0062.0063.0062.0062.0062.0062.0063.0062.0063.0062.0063.0063.0062.0063.0063.0063.0063.0063.0063.0063.0063.0064.0063.0063.0064.0063.0064.0063.0064.0064.0064.0063.0064.0064.0064.0064.0064.0064.0065.0064.0064.0065.0064.0065.0064.0065.0064.0065.0065.0065.0064.0065.0065.0065.0065.0065.0066.0065.0065.0065.0066.0065.0066.0065.0066.0065.0066.0066.0066.0065.0066.0066.0066.0066.0066.0066.0066.0067.0066.0066.0066.0067.0066.0067.0066.0067.0066.0067.0067.0067.0066.0067.0067.0067.0067.0067.0067.0067.0067.0067.0068.0067.0067.0068.0067.0067.0068.0067.0068.0068.0067.0068.0068.0067.0068.0068.0068.0068.0068.0068.0068.0068.0068.0068.0069.0068.0068.0068.0069.0068.0069.0068.0068.0069.0069.0068.0069.0069.0068.0069.0069.0069.0068.0069.0069.0069.0069.0069.0069.0069.007.0069.0069.0069.0069.007.0069.0069.007.0069.007.0069.007.0069.007.0069.007.007.0069.007.007.007.007.0069.007.007.007.007.007.007.007.007.007.007.0071.007.007.007.007.0071.007.007.0071.007.0071.007.007.0071.007.0071.0071.007.0071.007.0071.0071.007.0071.0071.0071.007.0071.0071.0071.0071.0071.0071.0071.0071.0071.0071.0071.0071.0071.0071.0071.0071.0071.0071.0071.0072.0071.0071.0071.0072.0071.0071.0071.0072.0071.0072.0071.0071.0072.0071.0072.0071.0072.0071.0072.0071.0072.0071.0072.0071.0072.0072.0071.0072.0071.0072.0072.0071.0072.0072.0072.0071.0072.0072.0072.0071.0072.0072.0072.0071.0072.0072.0072.0072.0072.0072.0071.0072.0072.0072.0072.0072.0072.0072.0072.0072.0072.0072.0072.0072.0072.0072.0072.0072.0072.0072.0072.0072.0072.0072.0072.0072.0072.0072.0072.0072.0072.0072.0072.0072.0072.0072.0072.0072.0072.0073.0072.0072.0072.0072.0072.0072.0072.0072.0072.0072.0072h4c0-.0024 0-.0048 0-.0072s0-.0048 0-.0072 0-.0048 0-.0072 0-.0048 0-.0072 0-.0048 0-.0072 0-.0048 0-.0072 0-.0048 0-.0072 0-.0048 0-.0072 0-.0048 0-.0072 0-.0048 0-.0072 0-.0048 0-.0072 0-.0049 0-.0073 0-.0048 0-.0072 0-.0048 0-.0072 0-.0048 0-.0072 0-.0048 0-.0072 0-.0048 0-.0072 0-.0048 0-.0072 0-.0048 0-.0072 0-.0048 0-.0072 0-.0048 0-.0072 0-.0048 0-.0072 0-.0048 0-.0072 0-.0048 0-.0072 0-.0048 0-.0072 0-.0048 0-.0072 0-.0048 0-.0072 0-.0048 0-.0072 0-.0048 0-.0072 0-.0048 0-.0072 0-.0048 0-.0072 0-.0048 0-.0072 0-.0048 0-.0072 0-.0048 0-.0072 0-.0048 0-.0072 0-.0048 0-.0072 0-.0048 0-.0072 0-.0048 0-.0072 0-.0048 0-.0072 0-.0048 0-.0072 0-.0048 0-.0072 0-.0048 0-.0072 0-.0048 0-.0072 0-.0048 0-.0072 0-.0048 0-.0072 0-.0048 0-.0072 0-.0048 0-.0072 0-.0048 0-.0072 0-.0048 0-.0072 0-.0048 0-.0072 0-.0047 0-.0071 0-.0048 0-.0072 0-.0048 0-.0072 0-.0048 0-.0072 0-.0048 0-.0072 0-.0048 0-.0072 0-.0048 0-.0072c0-.0023 0-.0047 0-.0071s0-.0048 0-.0072 0-.0048 0-.0072 0-.0048 0-.0072 0-.0048 0-.0071c0-.0024 0-.0048 0-.0072s0-.0048 0-.0072 0-.0048 0-.0072 0-.0048 0-.0071c0-.0024 0-.0048 0-.0072s0-.0048 0-.0072 0-.0048 0-.0072c0-.0023 0-.0047 0-.0071s0-.0048 0-.0072 0-.0048 0-.0072c0-.0023 0-.0047 0-.0071s0-.0048 0-.0072 0-.0048 0-.0071c0-.0024 0-.0048 0-.0072s0-.0048 0-.0072 0-.0047 0-.0071 0-.0048 0-.0072 0-.0048 0-.0071c0-.0024 0-.0048 0-.0072s0-.0048 0-.0071c0-.0024 0-.0048 0-.0072s0-.0048 0-.0071c0-.0024 0-.0048 0-.0072s0-.0048 0-.0071c0-.0024 0-.0048 0-.0072s0-.0047 0-.0071 0-.0048 0-.0072c0-.0023 0-.0047 0-.0071s0-.0048 0-.0071c0-.0024 0-.0048 0-.0072s0-.0047 0-.0071 0-.0048 0-.0072c0-.0023 0-.0047 0-.0071s0-.0047 0-.0071 0-.0048 0-.0071c0-.0024 0-.0048 0-.0072 0-.0023 0-.0047 0-.0071s0-.0047 0-.0071 0-.0048 0-.0071c0-.0024 0-.0048 0-.0072 0-.0023 0-.0047 0-.0071 0-.0023 0-.0047 0-.0071s0-.0047 0-.0071 0-.0047 0-.0071 0-.0048 0-.0071c0-.0024 0-.0048 0-.0071 0-.0024 0-.0048 0-.0071 0-.0024 0-.0048 0-.0071 0-.0024 0-.0048 0-.0071 0-.0024 0-.0048 0-.0071 0-.0024 0-.0048 0-.0071 0-.0024 0-.0048 0-.0071 0-.0024 0-.0048 0-.0071 0-.0024 0-.0048 0-.0071 0-.0024 0-.0048 0-.0071 0-.0024 0-.0047 0-.0071s0-.0047 0-.0071 0-.0047 0-.0071c0-.0023 0-.0047 0-.0071 0-.0023 0-.0047 0-.007 0-.0024 0-.0048 0-.0071 0-.0024 0-.0047 0-.0071 0-.0023 0-.0047 0-.0071 0-.0023 0-.0047 0-.007 0-.0024 0-.0047 0-.0071s0-.0047 0-.0071c0-.0023 0-.0047 0-.007 0-.0024 0-.0047 0-.0071 0-.0023 0-.0047 0-.007 0-.0024 0-.0047 0-.0071s0-.0047 0-.0071c0-.0023 0-.0047 0-.007 0-.0024 0-.0047 0-.0071 0-.0023 0-.0047 0-.007s0-.0047 0-.007c0-.0024 0-.0047 0-.0071 0-.0023 0-.0047 0-.007 0-.0024 0-.0047 0-.0071 0-.0023 0-.0047 0-.007s0-.0047 0-.007c0-.0024 0-.0047 0-.0071 0-.0023 0-.0046 0-.007 0-.0023 0-.0047 0-.007s0-.0047 0-.007c0-.0024 0-.0047 0-.007 0-.0024 0-.0047 0-.0071 0-.0023 0-.0046 0-.007 0-.0023 0-.0046 0-.007 0-.0023 0-.0047 0-.007s0-.0047 0-.007 0-.0047 0-.007 0-.0047 0-.007 0-.0047 0-.007 0-.0047 0-.007 0-.0046 0-.007c0-.0023 0-.0046 0-.007 0-.0023 0-.0046 0-.0069 0-.0024 0-.0047 0-.007 0-.0024 0-.0047 0-.007s0-.0047 0-.007 0-.0046 0-.007c0-.0023 0-.0046 0-.0069 0-.0024 0-.0047 0-.007s0-.0046 0-.007c0-.0023 0-.0046 0-.0069s0-.0047 0-.007 0-.0046 0-.0069c0-.0024 0-.0047 0-.007s0-.0046 0-.0069 0-.0047 0-.007 0-.0046 0-.0069 0-.0046 0-.007c0-.0023 0-.0046 0-.0069s0-.0046 0-.0069 0-.0046 0-.007c0-.0023 0-.0046 0-.0069s0-.0046 0-.0069 0-.0046 0-.0069 0-.0046 0-.0069 0-.0047 0-.007 0-.0046 0-.0069 0-.0046 0-.0069 0-.0046 0-.0069 0-.0046 0-.0069 0-.0046 0-.0069 0-.0046 0-.0069 0-.0046 0-.0069 0-.0045 0-.0068 0-.0046 0-.0069 0-.0046 0-.0069 0-.0046 0-.0069 0-.0046 0-.0068c0-.0023 0-.0046 0-.0069s0-.0046 0-.0069 0-.0046 0-.0068c0-.0023 0-.0046 0-.0069s0-.0046 0-.0069c0-.0022 0-.0045 0-.0068s0-.0046 0-.0068c0-.0023 0-.0046 0-.0069s0-.0046 0-.0068c0-.0023 0-.0046 0-.0069 0-.0022 0-.0045 0-.0068s0-.0045 0-.0068 0-.0046 0-.0068c0-.0023 0-.0046 0-.0069 0-.0022 0-.0045 0-.0068s0-.0045 0-.0068 0-.0045 0-.0068 0-.0045 0-.0068 0-.0045 0-.0068 0-.0045 0-.0068 0-.0045 0-.0068 0-.0045 0-.0068 0-.0045 0-.0068c0-.0022 0-.0045 0-.0068 0-.0022 0-.0045 0-.0067 0-.0023 0-.0045 0-.0068s0-.0045 0-.0068c0-.0022 0-.0045 0-.0067 0-.0023 0-.0045 0-.0068s0-.0045 0-.0068c0-.0022 0-.0045 0-.0067 0-.0023 0-.0045 0-.0068 0-.0022 0-.0045 0-.0067s0-.0045 0-.0067c0-.0023 0-.0045 0-.0068 0-.0022 0-.0045 0-.0067s0-.0045 0-.0067c0-.0023 0-.0045 0-.0068 0-.0022 0-.0044 0-.0067 0-.0022 0-.0045 0-.0067s0-.0045 0-.0067 0-.0045 0-.0067 0-.0045 0-.0067 0-.0045 0-.0067 0-.0045 0-.0067 0-.0045 0-.0067 0-.0044 0-.0067c0-.0022 0-.0044 0-.0066 0-.0023 0-.0045 0-.0067s0-.0045 0-.0067 0-.0044 0-.0067c0-.0022 0-.0044 0-.0066s0-.0045 0-.0067 0-.0044 0-.0066 0-.0045 0-.0067 0-.0044 0-.0066 0-.0044 0-.0067c0-.0022 0-.0044 0-.0066s0-.0044 0-.0066 0-.0044 0-.0066 0-.0045 0-.0067 0-.0044 0-.0066 0-.0044 0-.0066 0-.0044 0-.0066 0-.0044 0-.0066 0-.0044 0-.0066 0-.0044 0-.0066 0-.0044 0-.0066 0-.0044 0-.0065c0-.0022 0-.0044 0-.0066s0-.0044 0-.0066 0-.0044 0-.0066c0-.0021 0-.0043 0-.0065s0-.0044 0-.0066 0-.0043 0-.0065 0-.0044 0-.0066 0-.0043 0-.0065 0-.0044 0-.0066c0-.0021 0-.0043 0-.0065s0-.0043 0-.0065 0-.0044 0-.0065c0-.0022 0-.0044 0-.0066 0-.0021 0-.0043 0-.0065 0-.0021 0-.0043 0-.0065 0-.0021 0-.0043 0-.0065 0-.0021 0-.0043 0-.0065 0-.0021 0-.0043 0-.0065 0-.0021 0-.0043 0-.0064 0-.0022 0-.0044 0-.0065 0-.0022 0-.0043 0-.0065s0-.0043 0-.0065c0-.0021 0-.0043 0-.0064 0-.0022 0-.0043 0-.0065 0-.0021 0-.0043 0-.0064 0-.0022 0-.0043 0-.0065 0-.0021 0-.0043 0-.0064 0-.0022 0-.0043 0-.0065 0-.0021 0-.0043 0-.0064s0-.0043 0-.0064c0-.0022 0-.0043 0-.0065 0-.0021 0-.0042 0-.0064 0-.0021 0-.0042 0-.0064 0-.0021 0-.0043 0-.0064s0-.0043 0-.0064 0-.0042 0-.0064c0-.0021 0-.0042 0-.0064 0-.0021 0-.0042 0-.0063 0-.0022 0-.0043 0-.0064 0-.0022 0-.0043 0-.0064s0-.0042 0-.0064c0-.0021 0-.0042 0-.0063s0-.0043 0-.0064 0-.0042 0-.0063 0-.0043 0-.0064 0-.0042 0-.0063 0-.0042 0-.0063c0-.0022 0-.0043 0-.0064s0-.0042 0-.0063 0-.0042 0-.0063 0-.0042 0-.0063 0-.0042 0-.0063 0-.0042 0-.0063 0-.0042 0-.0063 0-.0042 0-.0063 0-.0042 0-.0063 0-.0042 0-.0062c0-.0021 0-.0042 0-.0063s0-.0042 0-.0063 0-.0041 0-.0062 0-.0042 0-.0063 0-.0041 0-.0062 0-.0042 0-.0063c0-.002 0-.0041 0-.0062s0-.0041 0-.0062 0-.0042 0-.0062c0-.0021 0-.0042 0-.0062 0-.0021 0-.0042 0-.0063 0-.002 0-.0041 0-.0062 0-.002 0-.0041 0-.0061 0-.0021 0-.0042 0-.0062 0-.0021 0-.0042 0-.0062 0-.0021 0-.0041 0-.0062s0-.0041 0-.0062c0-.002 0-.0041 0-.0061 0-.0021 0-.0041 0-.0062 0-.002 0-.0041 0-.0061 0-.0021 0-.0041 0-.0062 0-.002 0-.0041 0-.0061 0-.0021 0-.0041 0-.0062 0-.002 0-.004 0-.0061 0-.002 0-.0041 0-.0061s0-.0041 0-.0061 0-.0041 0-.0061 0-.0041 0-.0061 0-.0041 0-.0061 0-.0041 0-.0061 0-.004 0-.0061c0-.002 0-.004 0-.006 0-.0021 0-.0041 0-.0061s0-.0041 0-.0061 0-.004 0-.006 0-.0041 0-.0061 0-.004 0-.006 0-.004 0-.0061c0-.002 0-.004 0-.006s0-.004 0-.006 0-.004 0-.006 0-.004 0-.006 0-.004 0-.006 0-.004 0-.006 0-.004 0-.006 0-.004 0-.006 0-.004 0-.006 0-.0039 0-.0059 0-.004 0-.006 0-.004 0-.0059c0-.002 0-.004 0-.006s0-.0039 0-.0059 0-.004 0-.006c0-.0019 0-.0039 0-.0059s0-.0039 0-.0059 0-.0039 0-.0059 0-.004 0-.0059c0-.002 0-.004 0-.0059 0-.002 0-.0039 0-.0059s0-.0039 0-.0059c0-.0019 0-.0039 0-.0059 0-.0019 0-.0039 0-.0058 0-.002 0-.0039 0-.0059s0-.0039 0-.0059c0-.0019 0-.0039 0-.0058s0-.0039 0-.0058c0-.002 0-.0039 0-.0059 0-.0019 0-.0039 0-.0058s0-.0039 0-.0058c0-.002 0-.0039 0-.0058 0-.002 0-.0039 0-.0058 0-.002 0-.0039 0-.0058 0-.002 0-.0039 0-.0058 0-.002 0-.0039 0-.0058s0-.0039 0-.0058 0-.0038 0-.0057c0-.002 0-.0039 0-.0058s0-.0038 0-.0058c0-.0019 0-.0038 0-.0057s0-.0038 0-.0057c0-.002 0-.0039 0-.0058s0-.0038 0-.0057 0-.0038 0-.0057 0-.0038 0-.0057 0-.0038 0-.0057 0-.0038 0-.0057 0-.0038 0-.0057 0-.0038 0-.0057 0-.0038 0-.0057c0-.0018 0-.0037 0-.0056s0-.0038 0-.0057 0-.0037 0-.0056 0-.0038 0-.0057c0-.0018 0-.0037 0-.0056s0-.0037 0-.0056 0-.0038 0-.0056c0-.0019 0-.0038 0-.0056 0-.0019 0-.0038 0-.0056 0-.0019 0-.0038 0-.0056 0-.0019 0-.0038 0-.0056 0-.0019 0-.0037 0-.0056s0-.0037 0-.0056c0-.0018 0-.0037 0-.0055 0-.0019 0-.0037 0-.0056 0-.0018 0-.0037 0-.0055 0-.0019 0-.0037 0-.0056 0-.0018 0-.0037 0-.0055s0-.0037 0-.0055c0-.0019 0-.0037 0-.0055 0-.0019 0-.0037 0-.0055 0-.0019 0-.0037 0-.0055 0-.0019 0-.0037 0-.0055 0-.0019 0-.0037 0-.0055s0-.0037 0-.0055 0-.0036 0-.0055c0-.0018 0-.0036 0-.0054s0-.0036 0-.0055c0-.0018 0-.0036 0-.0054s0-.0036 0-.0054 0-.0037 0-.0055 0-.0036 0-.0054 0-.0036 0-.0054 0-.0036 0-.0054 0-.0036 0-.0054 0-.0036 0-.0054 0-.0035 0-.0053 0-.0036 0-.0054 0-.0036 0-.0054 0-.0035 0-.0053 0-.0036 0-.0054c0-.0017 0-.0035 0-.0053s0-.0035 0-.0053 0-.0036 0-.0053c0-.0018 0-.0036 0-.0053 0-.0018 0-.0036 0-.0053 0-.0018 0-.0036 0-.0053 0-.0018 0-.0036 0-.0053 0-.0018 0-.0035 0-.0053s0-.0035 0-.0053c0-.0017 0-.0035 0-.0052 0-.0018 0-.0035 0-.0053 0-.0017 0-.0035 0-.0052 0-.0018 0-.0035 0-.0052 0-.0018 0-.0035 0-.0053 0-.0017 0-.0034 0-.0052 0-.0017 0-.0035 0-.0052s0-.0035 0-.0052 0-.0034 0-.0052c0-.0017 0-.0034 0-.0051 0-.0018 0-.0035 0-.0052s0-.0035 0-.0052 0-.0034 0-.0051c0-.0018 0-.0035 0-.0052s0-.0034 0-.0051 0-.0034 0-.0051c0-.0018 0-.0035 0-.0052s0-.0034 0-.0051 0-.0034 0-.0051 0-.0034 0-.0051 0-.0034 0-.005c0-.0017 0-.0034 0-.0051s0-.0034 0-.0051 0-.0034 0-.005c0-.0017 0-.0034 0-.0051s0-.0033 0-.005 0-.0034 0-.005c0-.0017 0-.0034 0-.0051 0-.0016 0-.0033 0-.005 0-.0016 0-.0033 0-.005 0-.0016 0-.0033 0-.005 0-.0016 0-.0033 0-.005 0-.0016 0-.0033 0-.0049 0-.0017 0-.0033 0-.005 0-.0016 0-.0033 0-.0049 0-.0017 0-.0033 0-.005 0-.0016 0-.0033 0-.0049 0-.0017 0-.0033 0-.005 0-.0016 0-.0032 0-.0049 0-.0016 0-.0032 0-.0049 0-.0016 0-.0033 0-.0049s0-.0032 0-.0049c0-.0016 0-.0032 0-.0049 0-.0016 0-.0032 0-.0048s0-.0033 0-.0049 0-.0032 0-.0048c0-.0017 0-.0033 0-.0049s0-.0032 0-.0048 0-.0032 0-.0048 0-.0033 0-.0049 0-.0032 0-.0048 0-.0032 0-.0048 0-.0031 0-.0047zm2 1.28h-16.289v4h16.289zm-14.289 2v-5.3936h-4v5.3936zm0-5.3936c0-1.3356-.5686-2.6063-1.5623-3.4971l-2.6699 2.9785c.1486.1332.2322.3215.2322.5186zm-1.5604-3.4954c-.8692-.7811-1.9897-1.2022-3.1373-1.2022v4c.1706 0 .3361.0628.4636.1773zm-3.1373-1.2022c-.0942 0-.1727.0052-.2157.0083-.0205.0014-.0417.0032-.0489.0037-.0108.0009-.0114.0009-.0092.0007l.2628 3.9914c.0135-.0009.0257-.0018.0359-.0025.0101-.0008.0192-.0015.0259-.002.0032-.0003.0069-.0006.0092-.0008.0028-.0002.0049-.0003.0068-.0005.0038-.0003.0054-.0004.0059-.0005.0013 0-.0057.0005-.0175.001-.012.0006-.031.0012-.0552.0012zm.0166.0148-2.24587-.1791-.31798 3.9873 2.24595.1791zm-2.62495-.1733-.11025.0122.44018 3.9757.11025-.0122zm-.00183.0032-.19209.0107.22334 3.9938.19209-.0108zm-.08042.0076c.07246 0 .14079.0258.19396.0721l-2.62484 3.0183c.67642.5882 1.54083.9096 2.43088.9096zm.19449.0725c.06227.0542.09752.1306.0998.2096l-3.99835.1151c.02981 1.0358.49085 2.0124 1.27265 2.6927zm.10039.2363-.00069-.0444-3.99952.0617.00068.0444zm-.01111-.2197-.95381-9.2013-3.97868.4124.95381 9.2013zm-2.41141-10.9231-3.5749-.9859-1.06348 3.856 3.5749.9859zm-3.72217-1.0206-.04287-.0084-.76895 3.9254.04287.0084zm-.03952-.0078c.52547.1039.96141.4536 1.18074.9275l-3.63009 1.6801c.31288.676.93085 1.1697 1.6737 1.3165zm1.32051 1.3448-.03145-.1454-3.909624.8455.031445.1454zm-.05132.7833.04443-.1699-3.869879-1.012-.044433.17zm-.15017.3096 4.61436-8.1487-3.48069-1.971-4.61435 8.1487zm4.87396-9.1186.00996-1.273-3.99988-.0313-.00996 1.273zm.01002-1.2887v-.0169h-4v.0169zm-.00042-.0576c-.00189-.093-.00261-.1876-.00261-.2868h-4c0 .118.00085.241.00344.3683zm-.00261-.2835c.00677-4.0494 1.55986-7.1576 4.03026-9.35096l-2.6557-2.99119c-3.33207 2.95839-5.3659 7.15625-5.37456 12.33555zm4.02776-9.34873c2.4938-2.20661 6.0595-3.53591 10.1564-3.53591v-4.000002c-4.9467 0-9.4923 1.607222-12.807 4.540252zm10.1564-3.53591c.3884 0 .7824.01241 1.1813.03687l.2449-3.992497c-.4769-.029248-.9527-.044375-1.4262-.044375zm1.1782.03668c4.906.30864 8.38 2.23952 10.7112 4.9486l3.032-2.60904c-3.0716-3.56944-7.5694-5.959069-13.4921-6.331671zm10.7097 4.9468c2.3474 2.73456 3.613 6.42746 3.613 10.38416h4c0-4.7885-1.5316-9.4409-4.578-12.9896zm3.613 10.38416c0 .5197-.0215 1.0414-.0656 1.5636l3.9857.3372c.0539-.6368.0799-1.271.0799-1.9008z" mask="url(#a)"/></g></svg>