<svg fill="none" height="50" viewBox="0 0 50 50" width="50" xmlns="http://www.w3.org/2000/svg" xmlns:xlink="http://www.w3.org/1999/xlink"><clipPath id="a"><path d="m0 0h50v50h-50z"/></clipPath><g clip-path="url(#a)" fill="#f5f5f5"><path d="m25 0c-13.7855 0-25 11.2145-25 25s11.2145 25 25 25 25-11.2145 25-25-11.2145-25-25-25zm0 48.3871c-12.8951 0-23.38706-10.492-23.38706-23.3871s10.49196-23.38706 23.38706-23.38706 23.3871 10.49196 23.3871 23.38706-10.492 23.3871-23.3871 23.3871z"/><path d="m34.6934 14.2153-13.1153 7.033c-.0144.0081-.0225.0234-.0363.0323-.0533.0331-.0935.0775-.1379.1226-.0443.0443-.0894.0848-.1226.1379-.0089.0136-.0241.0217-.0323.0362l-7.0338 13.1161c-.1686.3137-.1113.7.1403.9516.1549.1549.3612.2363.5702.2363.1299 0 .2604-.0315.3814-.096l13.1161-7.0338c.0145-.0082.0226-.0234.0362-.0323.0533-.0332.0935-.0775.1379-.1226.0443-.0444.0895-.0848.1226-.1379.0089-.0136.0242-.0218.0323-.0362l7.033-13.1153c.1686-.3137.1113-.7-.1403-.9516-.2515-.2524-.637-.3089-.9515-.1403zm-17.7935 18.8854 5.2581-9.804 4.5467 4.5468zm10.9443-6.3983-4.5467-4.5468 9.804-5.258z"/></g></svg>