<svg width="50" height="50" viewBox="0 0 50 50" fill="none" xmlns="http://www.w3.org/2000/svg">
<path d="M41.0423 23.5417C40.3132 22.7084 39.0632 22.7084 38.2298 23.4375L38.1256 23.5417C36.8756 24.7917 35.4173 25.9375 33.8548 26.7709L29.7923 17.1875C32.084 15.625 33.334 13.125 33.334 10.4167C33.334 5.83337 29.584 2.08337 25.0007 2.08337C20.4173 2.08337 16.6673 5.83337 16.6673 10.4167C16.6673 13.125 18.0215 15.7292 20.209 17.2917L16.1465 26.7709C14.584 25.9375 13.1257 24.7917 11.8757 23.5417C11.1465 22.7084 9.89648 22.7084 9.06315 23.4375L8.95898 23.5417C8.12565 24.375 8.12565 25.7292 8.95898 26.5625C10.6257 28.2292 12.3965 29.5834 14.4798 30.7292L11.1465 38.4375L10.0007 47.2917C10.0007 47.6042 10.209 47.8125 10.5215 47.8125C10.7298 47.8125 10.834 47.7084 10.9382 47.6042L18.0215 32.1875C19.584 32.7084 21.2507 33.125 22.9173 33.2292V34.375C22.9173 35.5209 23.8548 36.4584 25.0007 36.4584C26.1465 36.4584 27.084 35.5209 27.084 34.375V33.2292C28.7507 33.125 30.4173 32.7084 32.084 32.1875L39.0631 47.6042C39.2715 48.125 40.1048 47.9167 40.1048 47.2917L38.8548 38.3334L35.5215 30.7292C37.5006 29.5834 39.3757 28.2292 41.0423 26.5625C41.8757 25.7292 41.7715 24.375 41.0423 23.5417ZM25.0007 6.25004C27.2923 6.25004 29.1673 8.12504 29.1673 10.4167C29.1673 12.7084 27.2923 14.5834 25.0007 14.5834C22.709 14.5834 20.834 12.7084 20.834 10.4167C20.834 8.12504 22.709 6.25004 25.0007 6.25004ZM27.084 28.9584V28.125C27.084 26.9792 26.1465 26.0417 25.0007 26.0417C23.8548 26.0417 22.9173 26.9792 22.9173 28.125V28.9584C21.8757 28.8542 20.834 28.6459 19.7923 28.3334L24.0632 18.75H25.9381L30.3132 28.4375C29.2715 28.75 28.1257 28.8542 27.084 28.9584Z" fill="#F5F5F5"/>
</svg>
