<svg width="50" height="50" viewBox="0 0 50 50" fill="none" xmlns="http://www.w3.org/2000/svg">
<g clip-path="url(#clip0_193_373)">
<path fill-rule="evenodd" clip-rule="evenodd" d="M47.7365 14.5633C47.6882 14.6742 47.6208 14.7758 47.5375 14.8635L17.1884 45.2115C17.0764 45.4242 16.8937 45.5911 16.6718 45.6835L1.60713 49.9032C1.57377 49.915 1.53961 49.9245 1.5049 49.9314L1.45378 49.9467C1.44508 49.9467 1.4353 49.9467 1.42768 49.9467C1.32673 49.9771 1.22207 49.9936 1.11664 49.9956C1.01273 49.9967 0.909273 49.9816 0.809956 49.951C0.787118 49.9445 0.766454 49.951 0.743616 49.9412C0.720777 49.9314 0.729478 49.9304 0.720777 49.9271C0.626646 49.8892 0.538678 49.8375 0.459766 49.7738C0.416363 49.7459 0.375266 49.7146 0.336873 49.6802C0.302452 49.6418 0.271174 49.6007 0.243344 49.5573C0.179717 49.4783 0.12805 49.3904 0.09 49.2963C0.0848968 49.289 0.0801778 49.2813 0.0758618 49.2735C0.068249 49.2517 0.0758618 49.23 0.0660738 49.2071C0.0365275 49.108 0.0215083 49.005 0.0214844 48.9015C0.0239268 48.7958 0.0403836 48.6908 0.0704241 48.5894C0.0704241 48.5807 0.0704241 48.572 0.0704241 48.5644L0.0856497 48.5111C0.0976127 48.4785 0.0997878 48.4426 0.113926 48.41L4.33361 33.3453C4.42638 33.1236 4.5932 32.941 4.80561 32.8287L34.6947 2.94722C34.7382 2.89828 34.7893 2.85695 34.8339 2.8091L35.1601 2.48284C35.1765 2.46652 35.1971 2.46109 35.2145 2.44586C36.8413 0.877362 39.0136 0.00184776 41.2734 0.00390988C43.5332 0.00597201 45.7039 0.885449 47.3278 2.45691C48.9517 4.02838 49.902 6.16903 49.9783 8.42753C50.0545 10.686 49.2508 12.8859 47.7365 14.5633ZM43.6267 15.7694L39.6909 11.8336L13.9812 37.5443C13.9812 37.553 13.9965 37.5562 14.0008 37.5649L16.5816 42.8145L43.6267 15.7694ZM2.7447 47.2789L5.77352 46.4317L3.5919 44.2512L2.7447 47.2789ZM4.24987 41.9032L8.11828 45.7738L14.7741 43.9086C14.7741 43.9086 11.9628 38.0641 11.9584 38.0641L6.11393 35.2474L4.24987 41.9032ZM12.4576 36.0239C12.4663 36.0239 12.4696 36.038 12.4783 36.0435L38.189 10.3317L34.2531 6.39583L7.208 33.441L12.4576 36.0239ZM41.2036 2.17506C40.2837 2.17661 39.3743 2.37031 38.5336 2.74374C37.6929 3.11718 36.9395 3.66211 36.3216 4.34363L36.314 4.33602L35.755 4.89393L45.1286 14.2675L45.7017 13.6933L45.6952 13.6868C46.6816 12.7843 47.3719 11.6045 47.6753 10.3024C47.9787 9.00035 47.8809 7.63696 47.395 6.39145C46.909 5.14595 46.0575 4.07665 44.9525 3.3241C43.8475 2.57155 42.5406 2.17099 41.2036 2.17506Z" fill="#F5F5F5"/>
</g>
<defs>
<clipPath id="clip0_193_373">
<rect width="50" height="50" fill="white"/>
</clipPath>
</defs>
</svg>
