<svg width="70" height="70" viewBox="0 0 70 70" fill="none" xmlns="http://www.w3.org/2000/svg">
<path d="M39.5161 38.394C42.0068 38.394 44.0323 36.3681 44.0323 33.877C44.0323 31.386 42.0068 29.3601 39.5161 29.3601C37.0255 29.3601 35 31.386 35 33.877C35 36.3681 37.0255 38.394 39.5161 38.394ZM39.5161 31.6186C40.7615 31.6186 41.7742 32.6315 41.7742 33.877C41.7742 35.1226 40.7615 36.1355 39.5161 36.1355C38.2708 36.1355 37.2581 35.1226 37.2581 33.877C37.2581 32.6315 38.2708 31.6186 39.5161 31.6186Z" fill="#F5F5F5"/>
<path d="M52.824 28.6102C52.6795 28.346 52.5384 28.0795 52.3826 27.822C55.8194 18.1592 56.7079 9.80174 52.5971 7.38292C50.041 5.88104 46.3253 7.15143 41.7742 11.0507V2.25847H44.0323V0H25.9677V2.25847H28.2258V11.0541C23.6724 7.1503 19.9545 5.87879 17.3995 7.38292C14.779 8.9232 14.0361 13.0822 15.251 19.4093L17.4695 18.9835C16.4952 13.9076 16.896 10.2986 18.5444 9.32972C20.3485 8.26711 23.9535 10.0513 28.2258 14.0985V19.2252C24.605 20.5001 21.5295 22.7156 19.2252 25.5455C18.7318 24.0425 18.296 22.5779 17.9527 21.1844L15.7613 21.7253C16.2355 23.654 16.87 25.7036 17.6185 27.8209C17.4627 28.0784 17.3216 28.3449 17.1771 28.6091C6.2571 30.609 0 34.1604 0 38.3939C0 43.0949 7.41097 46.4058 17.1974 48.1798C17.3329 48.4249 17.4876 48.6552 17.6321 48.8935C13.781 59.7454 13.685 67.2074 17.3995 69.3913C18.0894 69.7967 18.8718 70 19.7377 70C20.2887 70 20.8758 69.9176 21.4934 69.7516C25.1921 68.7601 30.0097 64.7016 34.9334 58.7156C34.956 58.7167 34.9774 58.7201 35 58.7201C35.0215 58.7201 35.0418 58.7167 35.0632 58.7167C39.9881 64.7028 44.8045 68.7612 48.5032 69.7516C49.1208 69.9164 49.7068 70 50.2589 70C51.126 70 51.9073 69.7967 52.5971 69.3913C56.3094 67.2063 56.2156 59.7454 52.3656 48.898C52.5124 48.6575 52.6682 48.4238 52.8048 48.1764C55.0256 47.7688 57.1245 47.2923 59.0292 46.7322L58.3924 44.5663C57.0127 44.9717 55.5202 45.3308 53.961 45.6537C54.8269 43.3953 55.3226 40.9539 55.3226 38.3939C55.3226 35.8475 54.8473 33.4004 53.9881 31.1341C63.4652 33.0922 67.7419 36.1275 67.7419 38.3939C67.7419 40.2357 65.1339 42.2265 60.5873 43.8537L61.3482 45.9801C67.0092 43.9531 70 41.331 70 38.3939C70 34.1604 63.7429 30.609 52.824 28.6102ZM41.7742 14.0962C46.0431 10.0536 49.6481 8.26485 51.4523 9.33085C53.7961 10.7085 53.6358 16.9001 50.785 25.559C48.4795 22.7247 45.4006 20.5035 41.7742 19.2263V14.0962ZM29.6868 21.1234L30.4839 20.8784V2.25847H39.5161V20.8784L40.3132 21.1234C42.2337 21.714 43.995 22.5971 45.5564 23.7139H24.4435C26.005 22.5971 27.7663 21.714 29.6868 21.1234ZM32.5342 25.9724C32.0668 27.2834 30.8248 28.2308 29.3548 28.2308C27.8848 28.2308 26.6429 27.2834 26.1755 25.9724H32.5342ZM21.8694 25.9724H23.8248C24.3498 28.5459 26.6294 30.4893 29.356 30.4893C32.0826 30.4893 34.3621 28.5459 34.8871 25.9724H48.1306C48.7708 26.6476 49.3556 27.3703 49.8829 28.136C48.2131 32.6461 45.8816 37.7051 42.8615 43.0305C42.0327 44.4918 41.1803 45.9101 40.3166 47.2911C38.5723 47.3747 36.8008 47.4278 35 47.4278C33.1744 47.4278 31.4006 47.3849 29.6856 47.3036C29.0681 46.3166 28.4595 45.3048 27.8589 44.2761C29.4316 43.2733 30.4839 41.523 30.4839 39.5231C30.4839 36.4098 27.9515 33.877 24.8387 33.877C24.0732 33.877 23.3439 34.0328 22.6766 34.3106C21.7158 32.2012 20.8679 30.1324 20.125 28.1224C20.65 27.3624 21.2326 26.6442 21.8694 25.9724ZM23.6476 36.3624C24.0202 36.2224 24.4187 36.1354 24.8387 36.1354C26.7061 36.1354 28.2258 37.6554 28.2258 39.5231C28.2258 40.6851 27.6376 41.7105 26.7434 42.3214C25.6335 40.3294 24.5994 38.3374 23.6476 36.3624ZM24.4718 42.8736C22.7782 42.6873 21.4516 41.2655 21.4516 39.5231C21.4516 38.9348 21.6165 38.3883 21.8818 37.9049C22.689 39.5548 23.5584 41.2147 24.4718 42.8736ZM2.25806 38.3939C2.25806 36.1275 6.53484 33.0922 16.0119 31.1341C15.1527 33.4004 14.6774 35.8475 14.6774 38.3939C14.6774 40.9607 15.1753 43.4088 16.0469 45.6718C7.46629 43.9 2.25806 41.0533 2.25806 38.3939ZM16.9355 38.3939C16.9355 35.6352 17.5598 33.0086 18.6742 30.6451C19.3166 32.2723 20.0155 33.9267 20.7889 35.6058C19.8055 36.6221 19.1935 38.0009 19.1935 39.5231C19.1935 42.6364 21.726 45.1693 24.8387 45.1693C25.139 45.1693 25.4269 45.1264 25.7148 45.0812C26.1168 45.7746 26.5198 46.4611 26.9297 47.1364C23.9818 46.9196 21.2315 46.5899 18.7194 46.1698C17.5881 43.8108 16.9355 41.1797 16.9355 38.3939ZM20.9097 67.571C19.9297 67.8319 19.1337 67.7901 18.5444 67.4445C16.5324 66.2622 16.0492 60.8013 19.2285 51.1881C22.3944 55.0851 26.9737 57.7727 32.1752 58.501C27.9537 63.4267 23.9276 66.7625 20.9097 67.571ZM20.151 48.6575C22.8019 49.0403 25.5771 49.3181 28.3929 49.4864C29.9702 51.9503 31.5847 54.254 33.2015 56.3702C27.7979 55.8338 23.0932 52.9023 20.151 48.6575ZM34.9977 55.0015C33.7163 53.3224 32.436 51.5258 31.1737 49.6174C32.4495 49.6614 33.7276 49.6862 35 49.6862C36.2871 49.6862 37.5595 49.6591 38.8218 49.6174C37.5595 51.5246 36.2792 53.3224 34.9977 55.0015ZM41.5969 49.4943C44.4658 49.326 47.2252 49.0392 49.8468 48.6598C46.9045 52.9034 42.1987 55.8349 36.794 56.3702C38.4097 54.2562 40.0208 51.9549 41.5969 49.4943ZM51.4523 67.4445C50.864 67.7912 50.0669 67.8319 49.0869 67.571C46.069 66.7625 42.0429 63.4267 37.8215 58.501C43.0229 57.7727 47.6023 55.0874 50.7681 51.1915C53.9452 60.8024 53.4631 66.2611 51.4523 67.4445ZM51.2897 46.1529C48.7087 46.5854 45.9516 46.9095 43.0748 47.1229C43.6665 46.1483 44.2524 45.1591 44.8271 44.1451C47.3177 39.7535 49.5555 35.1101 51.3235 30.6406C52.4402 33.0052 53.0645 35.6341 53.0645 38.3939C53.0645 41.173 52.4153 43.7984 51.2897 46.1529Z" fill="#F5F5F5"/>
</svg>
