<svg width="70" height="70" viewBox="0 0 70 70" fill="none" xmlns="http://www.w3.org/2000/svg">
<g clip-path="url(#clip0_193_1623)">
<path d="M40.8326 0H24.4994C21.2829 0 18.666 2.6168 18.666 5.83338V47.8334C18.666 48.4773 19.1875 49 19.8326 49H26.8326C27.4778 49 27.9993 48.4773 27.9993 47.8334C27.9993 47.1894 27.4778 46.6668 26.8326 46.6668H20.9993V44.3334H22.1659C22.8111 44.3334 23.3325 43.8107 23.3325 43.1668C23.3325 42.5228 22.8111 42.0001 22.1659 42.0001H20.9993V39.6668H22.1659C22.8111 39.6668 23.3325 39.1441 23.3325 38.5001C23.3325 37.8562 22.8111 37.3335 22.1659 37.3335H20.9993V35H22.1659C22.8111 35 23.3325 34.4773 23.3325 33.8334C23.3325 33.1894 22.8111 32.6668 22.1659 32.6668H20.9993V30.3334H26.8326C27.4778 30.3334 27.9993 29.8107 27.9993 29.1668C27.9993 28.5228 27.4778 28.0001 26.8326 28.0001H20.9993V25.6668H22.1659C22.8111 25.6668 23.3325 25.1441 23.3325 24.5001C23.3325 23.8562 22.8111 23.3335 22.1659 23.3335H20.9993V21H22.1659C22.8111 21 23.3325 20.4773 23.3325 19.8334C23.3325 19.1894 22.8111 18.6668 22.1659 18.6668H20.9993V16.3334H22.1659C22.8111 16.3334 23.3325 15.8107 23.3325 15.1668C23.3325 14.5228 22.8111 14.0001 22.1659 14.0001H20.9993V11.6666H26.8326C27.4778 11.6666 27.9993 11.1439 27.9993 10.5C27.9993 9.85606 27.4778 9.33338 26.8326 9.33338H20.9993V5.83338C20.9993 3.90373 22.5696 2.33338 24.4993 2.33338H40.8326C42.7623 2.33338 44.3326 3.90373 44.3326 5.83338V64.1668C44.3326 66.0964 42.7623 67.6668 40.8326 67.6668H24.4994C22.5697 67.6668 20.9994 66.0964 20.9994 64.1668V52.5C20.9994 51.8561 20.4779 51.3334 19.8328 51.3334C19.1876 51.3334 18.6662 51.8561 18.6662 52.5V64.1666C18.6662 67.3831 21.2829 70 24.4995 70H40.8329C44.0494 70 46.6663 67.3832 46.6663 64.1666V5.83338C46.666 2.6168 44.0492 0 40.8326 0Z" fill="#F5F5F5"/>
<path d="M4.66602 15.1656V57.1656C4.66602 57.8096 5.18746 58.3323 5.83264 58.3323C6.47781 58.3323 6.99926 57.8096 6.99926 57.1656V15.1656C6.99926 14.5217 6.47781 13.999 5.83264 13.999C5.18746 13.999 4.66602 14.5216 4.66602 15.1656Z" fill="#F5F5F5"/>
<path d="M6.87641 0.643828C6.48088 -0.147227 5.18588 -0.147227 4.78926 0.643828L0.1225 9.97721C0.0419727 10.1383 0 10.3179 0 10.4987V64.1653C0 67.3817 2.6168 69.9986 5.83338 69.9986C9.04982 69.9986 11.6668 67.3818 11.6668 64.1653V61.8319C11.6668 61.1879 11.1453 60.6653 10.5001 60.6653H5.83338C5.1882 60.6653 4.66676 61.1879 4.66676 61.8319C4.66676 62.4758 5.1882 62.9985 5.83338 62.9985H9.33338V64.1651C9.33338 66.0948 7.76303 67.6651 5.83338 67.6651C3.90373 67.6651 2.33338 66.0948 2.33338 64.1651V10.774L5.83338 3.774L8.61232 9.33203H5.83338C5.1882 9.33203 4.66676 9.85471 4.66676 10.4987C4.66676 11.1426 5.1882 11.6653 5.83338 11.6653H9.33338V57.1653C9.33338 57.8092 9.85483 58.3319 10.5 58.3319C11.1452 58.3319 11.6666 57.8092 11.6666 57.1653V10.5011V10.4801C11.6631 10.2911 11.6154 10.1126 11.5336 9.95629L6.87641 0.643828Z" fill="#F5F5F5"/>
<path d="M37.3313 58.3334C37.3313 55.7596 35.2383 53.6667 32.6647 53.6667C30.0911 53.6667 27.998 55.7598 27.998 58.3334C27.998 60.907 30.0911 63 32.6647 63C35.2383 63 37.3313 60.907 37.3313 58.3334ZM30.3313 58.3334C30.3313 57.0466 31.3777 56 32.6647 56C33.9504 56 34.998 57.0464 34.998 58.3334C34.998 59.6203 33.9504 60.6667 32.6647 60.6667C31.3779 60.6666 30.3313 59.6202 30.3313 58.3334Z" fill="#F5F5F5"/>
<path d="M59.4994 56C58.8542 56 58.3328 56.5227 58.3328 57.1666C58.3328 57.8106 58.8542 58.3333 59.4994 58.3333H68.8328C69.478 58.3333 69.9994 57.8106 69.9994 57.1666V50.1666C69.9994 46.9502 67.3826 44.3333 64.166 44.3333H59.4994C56.283 44.3333 53.666 46.9501 53.666 50.1666V64.1666C53.666 67.3831 56.2828 70 59.4994 70H64.166C67.3825 70 69.9994 67.3832 69.9994 64.1666V61.8333C69.9994 61.1893 69.478 60.6666 68.8328 60.6666C68.1876 60.6666 67.6662 61.1893 67.6662 61.8333V64.1666C67.6662 66.0963 66.0958 67.6666 64.1662 67.6666H59.4995C57.5699 67.6666 55.9995 66.0963 55.9995 64.1666V50.1666C55.9995 48.237 57.5699 46.6666 59.4995 46.6666H64.1662C66.0958 46.6666 67.6662 48.237 67.6662 50.1666V56H59.4994Z" fill="#F5F5F5"/>
</g>
<defs>
<clipPath id="clip0_193_1623">
<rect width="70" height="70" fill="white"/>
</clipPath>
</defs>
</svg>
