<svg width="50" height="51" viewBox="0 0 50 51" fill="none" xmlns="http://www.w3.org/2000/svg">
<g clip-path="url(#clip0_302_287)">
<path d="M40.0709 15.3458C39.9461 15.2175 39.8061 15.1 39.6521 14.9958L39.4944 14.9624C39.4118 14.9259 39.346 14.8659 39.303 14.7935C39.0565 14.6753 38.7985 14.5991 38.536 14.561C38.3094 14.5291 38.1502 14.3152 38.1831 14.0834C38.2137 13.8516 38.4257 13.6898 38.6523 13.7217C38.9119 13.7606 39.1721 13.8276 39.4217 13.9271C39.4622 13.7419 39.4852 13.5529 39.4852 13.3624C39.4844 12.9455 39.388 12.5247 39.1828 12.1288C38.9485 11.6761 38.6049 11.323 38.2029 11.082C37.8508 10.8704 37.4527 10.7444 37.0439 10.7148C37.0142 11.0936 36.9254 11.4708 36.7707 11.8364C36.6788 12.051 36.4347 12.1498 36.2227 12.0572C36.0113 11.9654 35.9134 11.7166 36.0045 11.5019C36.1529 11.1496 36.2227 10.7872 36.2242 10.4278L36.2188 10.2746C36.1905 9.77679 36.0282 9.29615 35.7519 8.88626C35.4755 8.47707 35.0882 8.14189 34.606 7.92956C34.26 7.77943 33.9017 7.70869 33.5487 7.70869C32.8728 7.70869 32.2183 7.97321 31.7238 8.43976C31.8164 8.75946 31.8692 9.09622 31.8692 9.44628C31.8692 9.67965 31.681 9.86936 31.4513 9.86936C31.2216 9.86936 31.0341 9.67965 31.0341 9.44628C31.0341 9.10326 30.9721 8.77811 30.8588 8.47558H30.8596C30.6674 7.96617 30.3275 7.5275 29.892 7.21793C29.4579 6.90845 28.932 6.72717 28.3595 6.72717C27.8627 6.72717 27.3995 6.86489 27.0015 7.10283C26.683 7.29413 26.4082 7.55241 26.1924 7.85573C26.6142 8.44294 26.8637 9.16865 26.8637 9.95112C26.8637 10.1844 26.6762 10.3734 26.4457 10.3734C26.216 10.3734 26.0285 10.1844 26.0285 9.95112C26.0285 9.26361 25.7797 8.63821 25.3656 8.15985C24.8742 7.58972 24.1569 7.23281 23.3531 7.23281C22.7951 7.23281 22.2814 7.40467 21.852 7.70025C21.424 7.99584 21.0834 8.41426 20.882 8.90581C20.752 9.227 20.6776 9.58092 20.6776 9.95112C20.6776 10.1844 20.4916 10.3734 20.2612 10.3734C20.0308 10.3734 19.8448 10.1844 19.8448 9.95112C19.8448 9.60732 19.8938 9.27601 19.9826 8.96018C19.6687 8.8311 19.3289 8.75956 18.9799 8.75956C18.7816 8.75956 18.5826 8.78287 18.3805 8.82881C17.7864 8.96802 17.2896 9.29318 16.926 9.73333C16.6642 10.0507 16.4773 10.4279 16.3802 10.8331C17.2414 10.8486 18.1018 11.1869 18.7663 11.8481C18.9302 12.0122 18.9332 12.2798 18.7725 12.4462C18.6109 12.6142 18.3476 12.6158 18.183 12.4531C17.6609 11.936 16.9881 11.6769 16.3113 11.6761C16.1904 11.6761 16.0694 11.6846 15.9484 11.7002H15.947H15.9462C15.379 11.7803 14.8324 12.0431 14.3983 12.4928C13.8885 13.0217 13.6358 13.7046 13.6352 14.3937C13.6352 14.7866 13.7193 15.1824 13.8877 15.5464C14.0186 15.8334 14.2023 16.101 14.4396 16.3358V16.3365C14.7076 16.6041 15.0169 16.8017 15.3469 16.9308C15.5604 17.0156 15.6684 17.2606 15.5842 17.4783C15.5008 17.6977 15.2604 17.8066 15.0453 17.721C14.6144 17.5514 14.2071 17.2917 13.8549 16.9409C13.7011 16.7869 13.564 16.6228 13.4424 16.4486C13.1277 16.9068 12.957 17.455 12.957 18.0135C12.957 18.446 13.0589 18.8823 13.2739 19.2922C13.5158 19.7511 13.8657 20.1089 14.2775 20.3531C14.6028 20.5467 14.9665 20.6689 15.3416 20.7117L15.3408 20.686C15.3408 20.4619 15.3615 20.2426 15.399 20.0295C15.4419 19.7993 15.6601 19.6491 15.8852 19.6904C16.1117 19.7331 16.261 19.954 16.2204 20.1842C16.1905 20.3467 16.1745 20.5155 16.1745 20.6859L16.1813 20.8827L16.2035 21.0811V21.0833L16.2043 21.0872C16.3957 22.4157 17.5256 23.4088 18.8483 23.4088L19.0405 23.4011H19.0413C19.6276 23.3583 20.1543 23.128 20.5723 22.7695C20.8654 22.5183 21.1058 22.2034 21.2704 21.8485C21.3676 21.6362 21.6179 21.5461 21.8254 21.6463C22.0336 21.746 22.1225 21.9979 22.0244 22.2095C21.8461 22.5914 21.6026 22.9359 21.3103 23.2291C21.474 23.7409 21.7817 24.1804 22.1837 24.507C22.6431 24.8812 23.2225 25.1021 23.8486 25.1021L24.0416 25.0943H24.0424C24.4389 25.0656 24.8056 24.9497 25.131 24.7692C25.0804 24.5258 25.0514 24.2769 25.0514 24.0249C25.0514 23.5053 25.1654 22.9756 25.4012 22.4778C25.5015 22.2671 25.7502 22.1792 25.9569 22.2811C26.1644 22.3814 26.2524 22.635 26.1521 22.8457C25.9707 23.2276 25.8857 23.629 25.8857 24.0249C25.8857 24.3017 25.9278 24.5779 26.009 24.8399H26.0098C26.2233 25.5314 26.7057 26.1358 27.3999 26.4748C27.775 26.6592 28.17 26.7455 28.5589 26.7455C29.1767 26.7455 29.7807 26.5261 30.2599 26.1287L30.2614 26.1279C30.5523 25.8844 30.7958 25.5765 30.971 25.2085L30.9718 25.2069C31.1349 24.8632 31.2206 24.5032 31.2351 24.1438C31.2458 23.9104 31.4395 23.7284 31.6706 23.7393C31.9003 23.7495 32.0778 23.9469 32.0679 24.1803C32.0479 24.6516 31.9354 25.1276 31.7219 25.5764V25.5756C31.5504 25.9388 31.3246 26.2585 31.0598 26.5315C31.5512 27.2486 32.3687 27.7005 33.2529 27.6997C33.4167 27.6997 33.5836 27.6842 33.7513 27.6515C34.395 27.5287 34.9378 27.1825 35.3236 26.7065C35.7087 26.2296 35.933 25.6238 35.933 24.9844L35.9322 24.9269V24.9238C35.9292 24.7799 35.9146 24.6291 35.8871 24.4773C35.8205 24.1172 35.685 23.7904 35.499 23.5019C35.2296 23.2608 34.9303 22.9459 34.6479 22.5958C34.347 22.2225 34.0699 21.8141 33.8839 21.4027C33.7614 21.1274 33.6741 20.849 33.6726 20.5558C33.6726 20.4259 33.6901 20.2913 33.7384 20.1623C33.7851 20.0308 33.8616 19.9064 33.9642 19.8037C34.1265 19.6395 34.3897 19.6395 34.5528 19.8037C34.7151 19.9701 34.7151 20.2392 34.5528 20.4034L34.5214 20.454L34.5054 20.5559C34.5038 20.6624 34.5475 20.8429 34.6416 21.0505C34.735 21.2575 34.8735 21.49 35.0366 21.7194C35.3597 22.1791 35.7784 22.6302 36.0937 22.9055L36.1366 22.9429L36.1681 22.9903C36.4261 23.3807 36.6151 23.8303 36.7062 24.3211V24.3219L36.736 24.5318L36.8608 24.5373C37.3891 24.5365 37.921 24.3778 38.3888 24.0442C38.7608 23.7781 39.044 23.4367 39.2354 23.0532C39.4275 22.669 39.5278 22.2443 39.5278 21.8166C39.5278 21.416 39.439 21.0139 39.2614 20.6398C39.0968 20.6935 38.9299 20.7363 38.7607 20.7658C38.5342 20.807 38.319 20.6506 38.2785 20.4205C38.2401 20.1895 38.3934 19.9717 38.6199 19.9313C39.3578 19.8022 40.0338 19.3651 40.4518 18.6635C40.7166 18.2225 40.8414 17.7371 40.8414 17.2573C40.8414 16.5502 40.5727 15.8589 40.0721 15.3463L40.0709 15.3458ZM20.974 12.1149C21.3721 11.6365 21.9003 11.2966 22.4683 11.0741C23.0386 10.8517 23.6494 10.7451 24.2358 10.7451C24.8062 10.7459 25.3542 10.8439 25.8196 11.0633C26.0278 11.1597 26.1189 11.4125 26.0225 11.6248C25.9268 11.8365 25.6795 11.9297 25.469 11.8318C25.1476 11.6786 24.7073 11.5907 24.2358 11.5907C23.7505 11.5907 23.2331 11.6816 22.7684 11.8652C22.3037 12.0464 21.8957 12.3171 21.6086 12.6609C21.4616 12.8398 21.1976 12.8631 21.0215 12.7107C20.8462 12.5598 20.824 12.293 20.974 12.1149ZM30.4601 22.128C29.9755 22.128 29.536 22.072 29.135 21.9779C29.1457 22.0945 29.1533 22.2244 29.1533 22.3621C29.1533 22.6383 29.1234 22.9539 29.0385 23.2853C28.9527 23.6158 28.8081 23.9635 28.58 24.2972C28.4491 24.4901 28.1896 24.5375 28.0005 24.4044C27.8106 24.2714 27.7647 24.0085 27.894 23.8148C28.0624 23.5683 28.1673 23.3163 28.2316 23.0682C28.296 22.8201 28.3197 22.5789 28.3197 22.362C28.3205 22.0626 28.2753 21.816 28.2432 21.6752C28.0395 21.5818 27.852 21.4769 27.6768 21.3594C26.9786 20.9005 26.5117 20.2946 26.2185 19.7182C26.0218 19.3317 25.9022 18.9584 25.838 18.634C25.8013 18.4489 25.7829 18.281 25.7829 18.1284C25.7829 17.8935 25.9697 17.7037 26.2001 17.7037C26.4305 17.7037 26.6173 17.8935 26.6173 18.1284C26.6165 18.2512 26.6426 18.4574 26.7084 18.6916C26.7742 18.9264 26.8791 19.1932 27.0307 19.4615C27.3346 20.0013 27.8176 20.5419 28.5632 20.8927C29.0615 21.1276 29.6815 21.28 30.4601 21.28C30.6904 21.28 30.8772 21.4698 30.8772 21.7039C30.8772 21.9382 30.6905 22.128 30.4601 22.128ZM33.395 19.0355C33.3093 19.2518 33.0666 19.3576 32.8522 19.2711C32.6387 19.184 32.5361 18.939 32.6203 18.722V18.7212L32.6227 18.715L32.635 18.6777L32.6778 18.5253C32.7093 18.3915 32.7414 18.2025 32.7414 17.9948L32.7406 17.9653C32.1681 18.1628 31.6368 18.2514 31.1477 18.2514C30.4082 18.253 29.7683 18.0469 29.2477 17.7343C28.7264 17.4217 28.3207 17.0079 28.0175 16.5871C27.673 16.1103 27.2214 15.6825 26.7039 15.38C26.185 15.0766 25.6047 14.8962 24.9885 14.8946C24.4488 14.8962 23.8747 15.033 23.2753 15.3675C22.7065 15.6848 22.3406 16.1071 22.1041 16.5707C21.8691 17.035 21.7696 17.5421 21.7703 18.0042C21.7687 18.4319 21.8576 18.8192 21.9731 19.0635C22.0719 19.275 21.9823 19.527 21.7749 19.6273C21.5675 19.7278 21.3187 19.6367 21.2199 19.4259C21.0385 19.0354 20.9375 18.5438 20.9359 18.0042C20.9367 17.4675 21.0416 16.881 21.2996 16.3202C20.7822 16.4393 20.3015 16.4922 19.8636 16.4922C19.6271 16.4922 19.4042 16.4766 19.1922 16.4486L19.1148 16.6073L19.1141 16.6088L19.1079 16.6151L19.0857 16.6439L18.9969 16.7667C18.9211 16.8773 18.8162 17.0382 18.7021 17.2435C18.4748 17.6503 18.2146 18.2243 18.0882 18.869C18.0431 19.0985 17.8241 19.2486 17.5982 19.2019C17.3725 19.156 17.2254 18.9336 17.2722 18.7026C17.4222 17.938 17.7186 17.2878 17.9765 16.825C18.1111 16.5855 18.2345 16.3958 18.3247 16.2666C17.9849 16.1632 17.6909 16.0364 17.4506 15.9072C16.9018 15.6108 16.6161 15.3137 16.5917 15.2896C16.4324 15.1208 16.437 14.8532 16.6023 14.6907C16.7685 14.529 17.0311 14.5336 17.191 14.7L17.1957 14.7047L17.2201 14.7288L17.3396 14.8306C17.4481 14.9177 17.6159 15.0376 17.8401 15.1588C18.2902 15.4 18.9624 15.6442 19.8634 15.6458C20.4964 15.6458 21.2428 15.523 22.1101 15.1838C22.3298 14.9762 22.5831 14.7865 22.874 14.6246C23.5875 14.2272 24.3062 14.0483 24.9883 14.0483C25.7676 14.0483 26.4925 14.2786 27.1202 14.6457C27.7479 15.0144 28.28 15.5191 28.6895 16.0869C28.9383 16.4298 29.2651 16.762 29.6701 17.0038C30.0773 17.2465 30.5588 17.4045 31.1475 17.4051C31.5509 17.4051 32.0056 17.3289 32.52 17.1454C32.3945 16.9408 32.2077 16.7432 31.9 16.5643C31.6994 16.4484 31.6282 16.1903 31.7415 15.9873C31.8556 15.7827 32.109 15.7126 32.3095 15.8262C32.8024 16.1086 33.1324 16.4827 33.3237 16.8739C33.5174 17.2636 33.5748 17.6587 33.5748 17.9947C33.5726 18.5813 33.4064 19.0052 33.395 19.0355ZM33.2389 13.847C32.2651 13.847 31.4132 13.5802 30.7242 13.1766C30.627 13.3135 30.4969 13.4853 30.3292 13.672C29.9519 14.0928 29.3976 14.5867 28.6559 14.8573C28.4377 14.9351 28.2004 14.8216 28.123 14.6007C28.0457 14.3797 28.1598 14.1379 28.3749 14.0601C28.9223 13.8618 29.38 13.4721 29.697 13.1198C29.8439 12.9588 29.958 12.8064 30.0407 12.6897C29.6296 12.3366 29.3051 11.9345 29.0823 11.5207C28.8711 11.124 28.7485 10.7149 28.7471 10.3175C28.7471 10.0842 28.9339 9.89437 29.1643 9.89437C29.3939 9.89437 29.5807 10.0842 29.5807 10.3175C29.5791 10.5314 29.6526 10.8168 29.8148 11.1163C29.9748 11.4164 30.2183 11.7291 30.5367 12.0092C31.1736 12.57 32.093 12.9993 33.239 12.9993C33.4693 12.9993 33.6554 13.1899 33.6554 13.4239C33.6553 13.6572 33.4692 13.847 33.2389 13.847ZM36.5243 19.8102C36.3781 19.9891 36.1147 20.0155 35.9372 19.8654C35.7597 19.7168 35.7352 19.4493 35.8806 19.2696C36.3353 18.7088 36.5029 18.1442 36.5044 17.6037C36.506 17.1113 36.3574 16.6361 36.1247 16.2356C35.895 15.8357 35.5774 15.5153 35.272 15.3372C35.0668 15.2175 34.8739 15.1638 34.7208 15.1638C34.4903 15.1638 34.3044 14.9749 34.3044 14.7407C34.3044 14.5066 34.4904 14.3168 34.7208 14.3168C34.9741 14.3168 35.2222 14.3798 35.458 14.4856C35.693 14.5899 35.915 14.7384 36.1217 14.9197C36.5343 15.2821 36.8849 15.7752 37.1054 16.3532C37.2508 16.7389 37.3395 17.1621 37.3395 17.6038C37.3403 18.3301 37.0962 19.1078 36.5243 19.8102Z" fill="#1893C6"/>
<path d="M16.8418 41.0264L16.8702 41.0521C16.8694 41.0513 16.8694 41.0513 16.8687 41.0505L16.8418 41.0264Z" fill="#1893C6"/>
<path d="M41.8647 6.76607C38.7636 3.08172 34.0995 0.572672 28.1232 0.206241C27.6371 0.175879 27.1533 0.1604 26.6741 0.1604C21.6479 0.1604 17.0242 1.81861 13.6347 4.86287C10.2428 7.89929 8.13076 12.3451 8.13838 17.6698C8.13838 17.7903 8.13916 17.9109 8.14141 18.0322L8.13613 18.6746L3.82178 26.4158C3.58984 26.8334 3.47266 27.2994 3.47266 27.7653C3.47266 28.1541 3.55391 28.5446 3.71836 28.9086C4.0667 29.6809 4.75176 30.2363 5.56318 30.4276L5.56162 30.4345L7.5458 30.9899L8.32969 38.672L8.33584 38.6712C8.39102 39.7904 8.88242 40.8412 9.71689 41.5785C10.4587 42.235 11.4056 42.5912 12.3793 42.5912C12.4779 42.5912 12.5752 42.5819 12.6732 42.5749L14.9215 42.7561L15.0341 42.7437L15.07 42.7421C15.1564 42.7421 15.2369 42.7733 15.2989 42.83L15.3026 42.834C15.3739 42.8993 15.416 42.9949 15.416 43.093V50.9625H36.4082V49.7679C36.4082 49.7679 36.4082 46.5316 36.4082 45.2406C36.4059 44.7209 36.5077 43.6936 36.7083 42.7026C36.8078 42.2057 36.931 41.7102 37.0704 41.2818C37.2082 40.854 37.3675 40.49 37.5006 40.2776C38.8969 37.9909 40.8711 36.115 42.6791 33.462C44.485 30.8114 46.0243 27.3728 46.4461 22.1554C46.4997 21.5014 46.5266 20.8472 46.5266 20.1963C46.5266 15.2501 44.9711 10.4472 41.8647 6.76607ZM44.1022 21.9561C43.6942 26.8056 42.3592 29.7074 40.7424 32.1069C39.128 34.504 37.1316 36.3886 35.5064 39.0105C35.2232 39.4741 35.0157 39.9875 34.8374 40.5334C34.5726 41.3509 34.3835 42.2422 34.2541 43.0721C34.1255 43.9043 34.0574 44.6588 34.0566 45.2406C34.0566 46.0697 34.0566 47.3234 34.0566 48.5733H17.7676V43.0931C17.7676 42.3145 17.4415 41.5733 16.8703 41.053C16.372 40.598 15.729 40.3522 15.0699 40.3522C15.0217 40.3522 14.975 40.3576 14.9275 40.3608L12.6816 40.1788L12.5714 40.1912L12.3793 40.2021C11.9705 40.2021 11.5725 40.052 11.2608 39.7766C10.9011 39.4585 10.6882 39.0012 10.6744 38.5151L10.6737 38.4701L9.71992 29.1212L6.14502 28.1194L6.10215 28.1109C5.99346 28.0891 5.90244 28.0159 5.85566 27.9133L5.82422 27.7655L5.86865 27.5929L10.483 19.3134L10.493 18.0199V18.0028C10.4907 17.8908 10.4899 17.7803 10.4899 17.67C10.4977 12.9816 12.2911 9.26996 15.1924 6.65275C18.0967 4.0417 22.1523 2.54989 26.6741 2.54989C27.1051 2.54989 27.5399 2.56388 27.9778 2.59116L28.0505 1.3988L27.9785 2.59116C33.3929 2.93725 37.3781 5.13216 40.0795 8.32178C42.7764 11.5138 44.175 15.7534 44.175 20.1962C44.175 20.7801 44.1513 21.3673 44.1022 21.9561Z" fill="#1893C6"/>
</g>
<defs>
<clipPath id="clip0_302_287">
<rect width="50" height="50.8021" fill="white" transform="translate(0 0.1604)"/>
</clipPath>
</defs>
</svg>
