<svg width="70" height="70" viewBox="0 0 70 70" fill="none" xmlns="http://www.w3.org/2000/svg">
<g clip-path="url(#clip0_193_1650)">
<path d="M39.7928 33.1965C39.9992 33.6002 40.4099 33.8335 40.8346 33.8335C41.0119 33.8335 41.1939 33.7926 41.3631 33.7063C41.4319 33.6713 48.2989 30.183 51.6857 29.1131C52.2994 28.9183 52.64 28.2626 52.4452 27.649C52.2514 27.0353 51.6005 26.6935 50.9811 26.8872C47.4134 28.0154 40.5931 31.4804 40.3038 31.6274C39.7297 31.919 39.5012 32.6215 39.7928 33.1965Z" fill="#FE860C"/>
<path d="M40.8345 19.8337C41.0119 19.8337 41.1938 19.7928 41.3631 19.7066C41.4319 19.6716 48.2989 16.1832 51.6857 15.1134C52.2994 14.9186 52.64 14.2629 52.4451 13.6493C52.2514 13.0356 51.6005 12.6938 50.981 12.8875C47.4134 14.0157 40.5931 17.4807 40.3038 17.6276C39.7299 17.9192 39.5011 18.6216 39.7927 19.1967C39.9992 19.6003 40.4099 19.8337 40.8345 19.8337Z" fill="#FE860C"/>
<path d="M68.8328 17.5004C68.1877 17.5004 67.6662 18.0231 67.6662 18.667V64.1667C67.6662 66.0963 66.0959 67.6667 64.1663 67.6667H36.1665V64.9822C37.8675 64.3872 42.2984 63.0001 46.6664 63.0001C56.8292 63.0001 63.73 65.2506 63.7988 65.2738C64.1499 65.3904 64.542 65.3322 64.8488 65.1128C65.1532 64.8935 65.3329 64.5412 65.3329 64.1665V12.8338C65.3329 12.2867 64.9538 11.813 64.4193 11.6951C64.4193 11.6951 63.5047 11.491 61.9413 11.2039C61.3101 11.0873 60.7001 11.5073 60.5833 12.1396C60.4667 12.7742 60.8854 13.3821 61.519 13.4987C62.1152 13.6083 62.6145 13.7051 62.9995 13.7822V62.6162C60.3558 61.9231 54.4853 60.6667 46.6663 60.6667C41.5831 60.6667 36.5899 62.3362 35.0451 62.902C33.6719 62.2954 29.521 60.6667 24.4997 60.6667C16.4637 60.6667 9.84408 61.9921 6.99981 62.6652V13.7367C9.32962 13.1639 16.2106 11.6671 24.4997 11.6671C28.7534 11.6671 32.4014 12.9912 33.833 13.5897V59.5001C33.833 59.9201 34.0592 60.3086 34.4244 60.5151C34.7896 60.7228 35.2399 60.7169 35.6005 60.4999C35.716 60.4311 47.2752 53.5268 57.5348 50.1073C58.0119 49.9475 58.3328 49.503 58.3328 49.0002V1.16717C58.3328 0.784495 58.1449 0.426295 57.8299 0.20823C57.5173 -0.00997163 57.116 -0.060147 56.7555 0.0741097C47.4211 3.57518 37.9759 9.45281 37.8813 9.51118C37.3353 9.85298 37.1685 10.5728 37.5103 11.1188C37.851 11.6649 38.5708 11.8317 39.1179 11.4899C39.2042 11.4351 47.4211 6.32279 55.9994 2.87299V48.165C48.0358 50.9323 39.721 55.4508 36.1662 57.4737V12.8338C36.1662 12.3917 35.9166 11.988 35.521 11.7897C35.3203 11.6906 30.5395 9.33386 24.4997 9.33386C13.9578 9.33386 5.85302 11.6147 5.51232 11.7126C5.0118 11.8549 4.66645 12.3135 4.66645 12.8338V64.1668C4.66645 64.532 4.83912 64.8773 5.12965 65.0979C5.335 65.253 5.58232 65.3336 5.8332 65.3336C5.94052 65.3336 6.04784 65.3184 6.15284 65.288C6.23337 65.2659 14.3008 63.0002 24.4997 63.0002C28.765 63.0002 32.4096 64.3279 33.833 64.924V67.6668H5.8332C3.90356 67.6668 2.33322 66.0965 2.33322 64.1668V18.6672C2.33322 18.0232 1.81055 17.5006 1.16661 17.5006C0.522672 17.5006 0 18.0232 0 18.6672V64.1668C0 67.3832 2.61678 70.0002 5.83333 70.0002H64.1663C67.3827 70.0002 69.9996 67.3834 69.9996 64.1668V18.6672C69.9995 18.0231 69.478 17.5004 68.8328 17.5004Z" fill="#FE860C"/>
<path d="M39.7928 26.1967C39.9992 26.6005 40.4099 26.8337 40.8346 26.8337C41.0119 26.8337 41.1939 26.7928 41.3631 26.7066C41.4319 26.6716 48.2989 23.1832 51.6857 22.1134C52.2994 21.9186 52.64 21.2629 52.4452 20.6493C52.2514 20.0356 51.6005 19.6938 50.9811 19.8875C47.4134 21.0157 40.5931 24.4807 40.3038 24.6276C39.7297 24.9192 39.5012 25.6217 39.7928 26.1967Z" fill="#FE860C"/>
<path d="M39.7928 40.1965C39.9992 40.6002 40.4099 40.8335 40.8346 40.8335C41.0119 40.8335 41.1939 40.7926 41.3631 40.7063C41.4319 40.6713 48.2989 37.183 51.6857 36.1131C52.2994 35.9183 52.64 35.2626 52.4452 34.649C52.2514 34.0353 51.6005 33.6935 50.9811 33.8872C47.4134 35.0154 40.5931 38.4804 40.3038 38.6274C39.7297 38.919 39.5012 39.6215 39.7928 40.1965Z" fill="#FE860C"/>
<path d="M28.2656 21.6514C21.0615 19.9609 12.875 22.1146 12.5309 22.2067C11.9091 22.3735 11.5392 23.0128 11.706 23.6358C11.846 24.1573 12.3173 24.5003 12.8319 24.5003C12.9323 24.5003 13.0337 24.4874 13.1353 24.4606C13.2135 24.4385 21.0954 22.3653 27.7337 23.9228C28.3578 24.0687 28.9891 23.6801 29.136 23.0525C29.2829 22.426 28.8932 21.7983 28.2656 21.6514Z" fill="#FE860C"/>
<path d="M28.2656 28.6513C21.0615 26.962 12.875 29.1145 12.5309 29.2067C11.9091 29.3735 11.5392 30.0129 11.706 30.6358C11.846 31.1572 12.3173 31.5003 12.8319 31.5003C12.9323 31.5003 13.0337 31.4874 13.1353 31.4606C13.2135 31.4385 21.0954 29.3653 27.7337 30.9228C28.3578 31.0686 28.9891 30.6801 29.136 30.0524C29.2829 29.426 28.8932 28.7983 28.2656 28.6513Z" fill="#FE860C"/>
<path d="M39.7928 47.1965C39.9992 47.6002 40.4099 47.8334 40.8346 47.8334C41.0119 47.8334 41.1939 47.7926 41.3631 47.7063C41.4319 47.6713 48.2989 44.1829 51.6857 43.1131C52.2994 42.9183 52.64 42.2626 52.4452 41.649C52.2514 41.0354 51.6005 40.6935 50.9811 40.8872C47.4134 42.0154 40.5931 45.4804 40.3038 45.6274C39.7297 45.919 39.5012 46.6214 39.7928 47.1965Z" fill="#FE860C"/>
<path d="M28.2656 35.6513C21.0615 33.962 12.875 36.1133 12.5309 36.2066C11.9091 36.3734 11.5392 37.0129 11.706 37.6357C11.846 38.1572 12.3173 38.5014 12.8319 38.5014C12.9323 38.5014 13.0337 38.4875 13.1353 38.4606C13.2135 38.4384 21.0954 36.3652 27.7337 37.9227C28.3578 38.0686 28.9891 37.68 29.136 37.0524C29.2829 36.4259 28.8932 35.7983 28.2656 35.6513Z" fill="#FE860C"/>
<path d="M28.2656 49.6511C21.0615 47.9606 12.875 50.1143 12.5309 50.2065C11.9091 50.3733 11.5392 51.0127 11.706 51.6356C11.846 52.157 12.3173 52.5013 12.8319 52.5013C12.9323 52.5013 13.0337 52.4873 13.1353 52.4604C13.2135 52.4383 21.0954 50.3651 27.7337 51.9226C28.3578 52.0672 28.9891 51.6799 29.136 51.0522C29.2829 50.4258 28.8932 49.7981 28.2656 49.6511Z" fill="#FE860C"/>
<path d="M28.2656 42.6513C21.0615 40.9608 12.875 43.1133 12.5309 43.2067C11.9091 43.3735 11.5392 44.0129 11.706 44.6358C11.846 45.1572 12.3173 45.5015 12.8319 45.5015C12.9323 45.5015 13.0337 45.4875 13.1353 45.4606C13.2135 45.4385 21.0954 43.3653 27.7337 44.9228C28.3578 45.0686 28.9891 44.6801 29.136 44.0524C29.2829 43.426 28.8932 42.7983 28.2656 42.6513Z" fill="#FE860C"/>
</g>
<defs>
<clipPath id="clip0_193_1650">
<rect width="70" height="70" fill="white"/>
</clipPath>
</defs>
</svg>
