<svg width="50" height="50" viewBox="0 0 50 50" fill="none" xmlns="http://www.w3.org/2000/svg">
<g clip-path="url(#clip0_302_93)">
<path d="M18.2549 5.47351C17.8218 5.47351 17.4707 5.82459 17.4707 6.25769C17.4707 6.6908 17.8218 7.04187 18.2549 7.04187H24.7176C24.8558 6.47439 25.0919 5.9449 25.4086 5.47351H18.2549Z" fill="#1893C6"/>
<path d="M47.6296 0H14.0002C13.4048 0 12.9219 0.482715 12.9219 1.07832V23.6129C12.9219 24.2084 13.4046 24.6912 14.0002 24.6912H19.6099L19.6208 22.5347H15.0786V2.15654H46.5514V22.5347H35.3883V24.6912H47.6295C48.225 24.6912 48.7078 24.2085 48.7078 23.6129V1.07832C48.7078 0.482715 48.225 0 47.6296 0Z" fill="#1893C6"/>
<path d="M29.4857 4.76526C27.5876 4.76526 26.0488 6.30403 26.0488 8.20217C26.0488 9.12522 26.4191 10.0246 27.113 10.6872C27.708 10.6872 31.2754 10.6872 31.8584 10.6872C32.5137 10.0614 32.9226 9.17981 32.9226 8.20217C32.9227 6.30403 31.3839 4.76526 29.4857 4.76526Z" fill="#1893C6"/>
<path d="M44.6925 7.60102C44.4961 7.41586 44.2662 7.28959 44.024 7.2183L43.6564 5.46801C43.5451 4.93832 43.0255 4.59897 42.4956 4.7102C42.1013 4.79301 41.8128 5.10229 41.7368 5.47348H33.5631C33.8798 5.94506 34.1159 6.47446 34.2541 7.04194H41.9837L42.1579 7.87153L38.7856 11.4477C38.0879 11.5293 33.3789 12.0798 32.7137 12.1577C32.7137 12.1577 26.6811 12.1577 25.0492 12.1577C22.9053 12.1577 21.1359 13.9016 21.125 16.0623L21.0645 28.124C21.0586 29.2895 21.8901 29.9077 22.7138 29.9118C22.7166 29.9118 22.7195 29.9118 22.7223 29.9118C23.6339 29.9117 24.3754 29.1748 24.38 28.2618L24.3978 24.7211L24.4412 16.0789C24.4463 15.8889 24.6032 15.7384 24.793 15.7411C24.9828 15.7437 25.1353 15.8984 25.1353 16.0883C25.1344 31.5714 25.0992 19.7713 25.0992 41.1876C25.7096 40.9198 26.3764 40.7587 27.0763 40.7288V40.3358C26.7428 39.6603 26.5546 38.9008 26.5546 38.0979C26.5546 36.229 27.5709 34.5942 29.0792 33.7138V28.0496H29.9385V33.3145C30.4675 33.1271 31.0361 33.024 31.6285 33.024C32.4522 33.024 33.2299 33.2225 33.9185 33.5723L33.9121 15.3566C34.9465 15.2356 39.0904 14.7511 39.7703 14.6717C40.1576 14.6264 40.5166 14.4461 40.7842 14.1623L44.7612 9.94526C45.3897 9.27895 45.3588 8.22944 44.6925 7.60102Z" fill="#1893C6"/>
<path d="M39.7054 46.2484C39.695 44.1627 37.9865 42.4764 35.9144 42.4764C34.8442 42.4764 28.3844 42.4764 27.3139 42.4764C25.2339 42.4764 23.5332 44.1686 23.5228 46.2485L23.5039 50H24.9187C24.9187 47.8233 26.6977 46.0816 28.837 46.0816H34.5306C36.6854 46.0816 38.4487 47.8369 38.4487 50H39.7243L39.7054 46.2484Z" fill="#1893C6"/>
<path d="M31.6287 34.7777C29.7952 34.7777 28.3086 36.264 28.3086 38.0978C28.3086 39.9334 29.8 41.4179 31.6287 41.4179C33.4512 41.4179 34.9488 39.9417 34.9488 38.0978C34.9489 36.2641 33.4624 34.7777 31.6287 34.7777Z" fill="#1893C6"/>
<path d="M9.39043 34.7777C7.56094 34.7777 6.07031 36.2596 6.07031 38.0978C6.07021 39.9423 7.56904 41.4179 9.39043 41.4179C11.2197 41.4179 12.7105 39.9328 12.7105 38.0978C12.7106 36.2641 11.2241 34.7777 9.39043 34.7777Z" fill="#1893C6"/>
<path d="M34.5305 47.2002H28.8369C27.2906 47.2002 26.0371 48.4536 26.0371 50H37.3303C37.3303 48.4537 36.0768 47.2002 34.5305 47.2002Z" fill="#1893C6"/>
<path d="M12.0344 47.2002H6.34082C4.79453 47.2002 3.54102 48.4536 3.54102 50C4.70889 50 13.6764 50 14.8342 50C14.8342 48.4537 13.5807 47.2002 12.0344 47.2002Z" fill="#1893C6"/>
<path d="M20.6136 31.1069C19.8504 30.9336 19.0916 31.4122 18.9187 32.1751L17.2397 39.577C16.8578 39.8564 13.7063 42.1618 13.2763 42.4764C12.4047 42.4764 5.6041 42.4764 5.10293 42.4764C3.0335 42.4764 1.32236 44.1599 1.31182 46.2485L1.29297 50.0001H2.42314C2.42314 47.8369 4.18604 46.0817 6.3415 46.0817H12.0351C12.7639 46.0817 13.4465 46.2823 14.0317 46.6305L14.054 45.4182L19.3407 41.5509C19.6167 41.3491 19.8103 41.0544 19.8858 40.7209L21.6819 32.8019C21.855 32.0388 21.3767 31.2799 20.6136 31.1069Z" fill="#1893C6"/>
</g>
<defs>
<clipPath id="clip0_302_93">
<rect width="50" height="50" fill="white"/>
</clipPath>
</defs>
</svg>
