<svg fill="none" height="50" viewBox="0 0 50 50" width="50" xmlns="http://www.w3.org/2000/svg"><path d="m49.6493 22.0343-.6682.0954c-.2029-1.422-1.0321-2.6049-2.1776-3.2723-.586-.2441-1.2769-.3908-2.0055-.3908-.8182 0-1.592.1836-2.2865.5124l.0005.001-9.8259 4.4752-1.5173.6911.1048-1.664c.0057-.0904.0201-.1658.032-.2179.0026-.0116.0054-.0232.0081-.0341-.0657-1.7849-1.5094-3.1879-3.2527-3.1879-.0876 0-.1762.0038-.2726.011l-.059-.6312v.6322h-6.4332-.1453l-.1393-.0413-8.0947-2.4031-.0121-.0036v-.0001c-.0008-.0002-.0074-.0021-.0191-.0039-.0114-.0017-.025-.0028-.0396-.0028h-.0034-3.68856-1v-1-1.3067c0-.1743-.13648-.2929-.27542-.2929h-6.6033c-.13895 0-.27542.1186-.27542.2929v21.0453c0 .1743.13647.2929.27542.2929h6.6033c.13895 0 .27542-.1186.27542-.2929v-1.7308-1.1708l1.15641.1831c3.14105.4974 5.96355 1.2985 8.63835 2.3899 1.8065.627 3.8828.9904 6.0495.9904 2.5376 0 4.9571-.4987 7.1701-1.4052l-.0018-.0044c2.0175-.9099 3.7298-1.8646 5.3473-2.9442l-.0022-.0035.0022-.0014.1372-.0865.0002.0003c.015-.0094.03-.0188.0449-.0282.5122-.3212 1.0326-.6476 1.5588-.963zm0 0-.661.139.0017.0086.3102-.0527m.3491-.0949-.3491.0949m0 0-.3068.0685c.0038.017.0066.0386.0066.0648 0 .0435-.0076.0754-.0137.0925l-.0017.004c-.274.5958-.6797 1.1202-1.1883 1.5402l-.0004-.0004-.0255.0224.0003.0003c-.7865.7204-1.6139 1.3982-2.5649 2.0846l-.006.0044c-1.9723 1.4461-4.173 2.8909-6.9444 4.5532zm-42.69521 12.9195h1v-1-18.4594-1h-1-4.05244-1v1 18.4594 1h1zm40.70111-11.4675 1.3752-1.2521-.2664-.0675-.0731-.3703-.0034-.0172-.0016-.008c-.214-1.04-.8553-1.9195-1.7356-2.4545l-.4065.6689.241-.7514c-.5112-.1757-1.0547-.268-1.6173-.268-.7471 0-1.4611.166-2.0796.4536-.0015.0007-.003.0014-.0044.002l-13.2478 6.0334.0001.0003c-.0329.0142-.0677.0218-.106.0218h-13.2321c-.139 0-.2755-.1186-.2755-.2929s.1365-.2929.2755-.2929h11.5791c.9568 0 1.7414-.2923 2.2883-.8398.5366-.537.7473-1.2236.7473-1.8324s-.2107-1.2955-.7473-1.8325c-.5469-.5475-1.3315-.8397-2.2883-.8397h-6.6152-.0034c-.0146 0-.0282-.0011-.0397-.0028-.0117-.0017-.0182-.0036-.019-.0039v-.0001l-.0121-.0036-8.0947-2.4031-.1393-.0413h-.1453-3.50486-1v1 12.8119.892l.88614.1015.18316.021c3.09466.4336 6.05806 1.2588 8.60096 2.3326l-.0038.0116c1.9365.6799 4.0126 1.0477 6.1727 1.0477 2.5107 0 4.9152-.4987 6.9968-1.3644l.2169-.088.0207-.0084.0203-.0093c1.7901-.8208 3.5048-1.7868 5.0031-2.8051.0794-.0495.1584-.0989.2372-.1481.5037-.3147.9951-.6218 1.4929-.9191l.0022-.0012c2.7375-1.6439 4.9293-3.0807 6.8909-4.5176l.0683-.0471.0089-.0062.0089-.0064c.8242-.5958 1.617-1.24 2.3457-1.9034z" stroke="#f5f5f5" stroke-width="2"/></svg>