<svg width="50" height="50" viewBox="0 0 50 50" fill="none" xmlns="http://www.w3.org/2000/svg">
<g clip-path="url(#clip0_499_532)">
<path d="M47.9173 50H2.08398V45.8333H7.08398C3.75065 35.4167 10.4173 31.25 14.7923 28.3333C16.6673 27.0833 18.5423 26.0417 18.5423 25C18.5423 23.9583 16.6673 22.7083 14.7923 21.6667C10.4173 18.75 3.75065 14.7917 7.08398 4.16667H2.08398V0H47.9173V4.16667H42.9173C46.2506 14.5833 39.584 18.75 35.209 21.6667C33.1256 22.7083 31.2507 23.9583 31.2507 25C31.2507 26.0417 33.1256 27.2917 35.0006 28.3333C39.3756 31.25 46.0423 35.4167 42.709 45.8333H47.9173V50ZM11.6673 45.8333H38.334C41.6673 37.5 37.2923 34.7917 32.9173 31.875C30.0007 30.2083 27.084 28.3333 27.084 25C27.084 21.6667 30.0007 19.7917 32.9173 18.125C37.2923 15.2083 41.6673 12.5 38.334 4.16667H11.6673C8.33398 12.5 12.709 15.2083 17.084 18.125C20.0007 19.7917 22.9173 21.6667 22.9173 25C22.9173 28.3333 20.0007 30.2083 17.084 31.875C12.709 34.7917 8.33398 37.5 11.6673 45.8333Z" fill="#F5F5F5"/>
<path d="M35.0007 47.9167H14.5841C13.9591 44.7917 15.0007 42.9167 19.3757 38.9583C21.0424 37.5 23.1257 35.8333 25.0007 33.125C27.0841 35.625 29.1674 37.5 30.6257 38.9583C35.0007 43.125 36.0424 43.75 35.0007 47.9167Z" fill="#F5F5F5"/>
<path d="M19.5843 12.5C18.126 15.2083 18.126 15.2083 21.4593 16.875C22.501 17.2917 23.751 17.9167 24.7927 18.75C25.8343 17.9167 27.2927 17.2917 28.126 16.875C31.6677 15.2083 31.6677 15.2083 30.2093 12.5" fill="#F5F5F5"/>
</g>
<defs>
<clipPath id="clip0_499_532">
<rect width="50" height="50" fill="white"/>
</clipPath>
</defs>
</svg>
