<svg width="28" height="28" viewBox="0 0 28 28" fill="none" xmlns="http://www.w3.org/2000/svg">
<g filter="url(#filter0_d_329_468)">
<path fill-rule="evenodd" clip-rule="evenodd" d="M23.4412 3.2562C24.1863 2.51129 24.1863 1.30358 23.4412 0.558668C22.6964 -0.186223 21.4886 -0.186223 20.7437 0.558668L14 7.3025L7.25619 0.558668C6.51128 -0.186223 5.30358 -0.186223 4.55867 0.558668C3.81378 1.30358 3.81378 2.51129 4.55867 3.2562L11.3025 9.99999L4.55867 16.7437C3.81378 17.4888 3.81378 18.6964 4.55867 19.4412C5.30358 20.1863 6.51128 20.1863 7.25619 19.4412L14 12.6975L20.7437 19.4412C21.4886 20.1863 22.6964 20.1863 23.4412 19.4412C24.1863 18.6964 24.1863 17.4888 23.4412 16.7437L16.6975 9.99999L23.4412 3.2562Z" fill="#FE860C"/>
</g>
<defs>
<filter id="filter0_d_329_468" x="0" y="0" width="28" height="28" filterUnits="userSpaceOnUse" color-interpolation-filters="sRGB">
<feFlood flood-opacity="0" result="BackgroundImageFix"/>
<feColorMatrix in="SourceAlpha" type="matrix" values="0 0 0 0 0 0 0 0 0 0 0 0 0 0 0 0 0 0 127 0" result="hardAlpha"/>
<feOffset dy="4"/>
<feGaussianBlur stdDeviation="2"/>
<feComposite in2="hardAlpha" operator="out"/>
<feColorMatrix type="matrix" values="0 0 0 0 0 0 0 0 0 0 0 0 0 0 0 0 0 0 0.25 0"/>
<feBlend mode="normal" in2="BackgroundImageFix" result="effect1_dropShadow_329_468"/>
<feBlend mode="normal" in="SourceGraphic" in2="effect1_dropShadow_329_468" result="shape"/>
</filter>
</defs>
</svg>
